Aarav.ufo
<glyph name="exclam" format="1">
  <advance width="339"/>
  <unicode hex="0021"/>
  <outline>
    <contour>
      <point x="146" y="233" type="line"/>
      <point x="100" y="739" type="line"/>
      <point x="240" y="739" type="line"/>
      <point x="193" y="233" type="line"/>
    </contour>
    <contour>
      <point x="107" y="0" type="line"/>
      <point x="107" y="120" type="line"/>
      <point x="233" y="120" type="line"/>
      <point x="233" y="0" type="line"/>
    </contour>
  </outline>
</glyph>
<glyph name="quotedbl" format="1">
  <advance width="357"/>
  <unicode hex="0022"/>
  <outline>
    <contour>
      <point x="77" y="720" type="curve" smooth="yes"/>
      <point x="55" y="720"/>
      <point x="38" y="690"/>
      <point x="41" y="673" type="curve" smooth="yes"/>
      <point x="51" y="613"/>
      <point x="45" y="559"/>
      <point x="45" y="540" type="curve" smooth="yes"/>
      <point x="45" y="517"/>
      <point x="68" y="497"/>
      <point x="91" y="497" type="curve" smooth="yes"/>
      <point x="117" y="497"/>
      <point x="137" y="522"/>
      <point x="137" y="544" type="curve" smooth="yes"/>
      <point x="137" y="568"/>
      <point x="132" y="598"/>
      <point x="132" y="609" type="curve" smooth="yes"/>
      <point x="132" y="637"/>
      <point x="143" y="650"/>
      <point x="143" y="676" type="curve" smooth="yes"/>
      <point x="143" y="699"/>
      <point x="113" y="720"/>
    </contour>
    <contour>
      <point x="265" y="730" type="curve" smooth="yes"/>
      <point x="243" y="731"/>
      <point x="216" y="711"/>
      <point x="216" y="693" type="curve" smooth="yes"/>
      <point x="213" y="615"/>
      <point x="226" y="617"/>
      <point x="211" y="563" type="curve" smooth="yes"/>
      <point x="201" y="523"/>
      <point x="230" y="504"/>
      <point x="253" y="503" type="curve" smooth="yes"/>
      <point x="279" y="502"/>
      <point x="299" y="530"/>
      <point x="300" y="552" type="curve" smooth="yes"/>
      <point x="301" y="576"/>
      <point x="306" y="632"/>
      <point x="306" y="643" type="curve" smooth="yes"/>
      <point x="306" y="653"/>
      <point x="316" y="670"/>
      <point x="316" y="679" type="curve" smooth="yes"/>
      <point x="317" y="688"/>
      <point x="301" y="729"/>
    </contour>
  </outline>
</glyph>
<glyph name="numbersign" format="1">
  <advance width="735"/>
  <unicode hex="0023"/>
  <outline>
    <contour>
      <point x="640" y="514" type="curve" smooth="yes"/>
      <point x="614" y="514"/>
      <point x="516" y="503"/>
      <point x="490" y="503" type="curve" smooth="yes"/>
      <point x="480" y="503"/>
      <point x="392" y="499"/>
      <point x="308" y="499" type="curve" smooth="yes"/>
      <point x="248" y="499"/>
      <point x="202" y="505"/>
      <point x="157" y="505" type="curve" smooth="yes"/>
      <point x="114" y="505"/>
      <point x="111" y="474"/>
      <point x="107" y="464" type="curve" smooth="yes"/>
      <point x="96" y="436"/>
      <point x="110" y="415"/>
      <point x="128" y="415" type="curve" smooth="yes"/>
      <point x="147" y="415"/>
      <point x="232" y="428"/>
      <point x="515" y="428" type="curve" smooth="yes"/>
      <point x="559" y="428"/>
      <point x="620" y="427"/>
      <point x="638" y="427" type="curve" smooth="yes"/>
      <point x="654" y="427"/>
      <point x="693" y="440"/>
      <point x="699" y="476" type="curve" smooth="yes"/>
      <point x="706" y="517"/>
      <point x="663" y="514"/>
    </contour>
    <contour>
      <point x="624" y="233" type="curve" smooth="yes"/>
      <point x="624" y="275"/>
      <point x="588" y="271"/>
      <point x="565" y="271" type="curve" smooth="yes"/>
      <point x="539" y="271"/>
      <point x="322" y="268"/>
      <point x="296" y="268" type="curve" smooth="yes"/>
      <point x="212" y="268"/>
      <point x="141" y="276"/>
      <point x="91" y="276" type="curve" smooth="yes"/>
      <point x="40" y="276"/>
      <point x="35" y="243"/>
      <point x="35" y="233" type="curve" smooth="yes"/>
      <point x="35" y="203"/>
      <point x="63" y="190"/>
      <point x="81" y="190" type="curve" smooth="yes"/>
      <point x="100" y="190"/>
      <point x="275" y="196"/>
      <point x="352" y="196" type="curve" smooth="yes"/>
      <point x="396" y="196"/>
      <point x="551" y="185"/>
      <point x="569" y="185" type="curve" smooth="yes"/>
      <point x="593" y="185"/>
      <point x="624" y="205"/>
    </contour>
    <contour>
      <point x="398" y="670" type="curve" smooth="yes"/>
      <point x="386" y="670"/>
      <point x="342" y="672"/>
      <point x="312" y="589" type="curve" smooth="yes"/>
      <point x="254" y="426"/>
      <point x="247" y="408"/>
      <point x="200" y="289" type="curve" smooth="yes"/>
      <point x="128" y="111"/>
      <point x="93" y="81"/>
      <point x="93" y="36" type="curve" smooth="yes"/>
      <point x="93" y="-13"/>
      <point x="138" y="-15"/>
      <point x="149" y="-15" type="curve" smooth="yes"/>
      <point x="162" y="-15"/>
      <point x="182" y="-7"/>
      <point x="182" y="7" type="curve" smooth="yes"/>
      <point x="182" y="23"/>
      <point x="185" y="37"/>
      <point x="194" y="64" type="curve" smooth="yes"/>
      <point x="204" y="96"/>
      <point x="204" y="90"/>
      <point x="279" y="281" type="curve" smooth="yes"/>
      <point x="354" y="470"/>
      <point x="404" y="583"/>
      <point x="412" y="590" type="curve" smooth="yes"/>
      <point x="423" y="598"/>
      <point x="424" y="635"/>
      <point x="424" y="642" type="curve" smooth="yes"/>
      <point x="424" y="648"/>
      <point x="411" y="670"/>
    </contour>
    <contour>
      <point x="581" y="656" type="curve" smooth="yes"/>
      <point x="569" y="656"/>
      <point x="550" y="672"/>
      <point x="520" y="589" type="curve" smooth="yes"/>
      <point x="462" y="426"/>
      <point x="455" y="408"/>
      <point x="408" y="289" type="curve" smooth="yes"/>
      <point x="336" y="111"/>
      <point x="337" y="104"/>
      <point x="305" y="43" type="curve" smooth="yes"/>
      <point x="282" y="0"/>
      <point x="338" y="-5"/>
      <point x="349" y="-5" type="curve" smooth="yes"/>
      <point x="404" y="-5"/>
      <point x="393" y="31"/>
      <point x="406" y="71" type="curve" smooth="yes"/>
      <point x="416" y="103"/>
      <point x="412" y="90"/>
      <point x="487" y="281" type="curve" smooth="yes"/>
      <point x="562" y="470"/>
      <point x="612" y="583"/>
      <point x="620" y="590" type="curve" smooth="yes"/>
      <point x="642" y="606"/>
      <point x="614" y="656"/>
    </contour>
  </outline>
</glyph>
<glyph name="dollar" format="1">
  <advance width="712"/>
  <unicode hex="0024"/>
  <outline>
    <contour>
      <point x="320" y="666" type="line"/>
      <point x="258" y="654"/>
      <point x="178" y="581"/>
      <point x="178" y="535" type="qcurve"/>
      <point x="178" y="486"/>
      <point x="258" y="407"/>
      <point x="320" y="398" type="qcurve"/>
    </contour>
    <contour>
      <point x="385" y="49" type="line"/>
      <point x="457" y="57"/>
      <point x="554" y="140"/>
      <point x="554" y="248"/>
      <point x="457" y="326"/>
      <point x="385" y="332" type="qcurve"/>
    </contour>
    <contour>
      <point x="100" y="225" type="qcurve"/>
      <point x="161" y="225" type="line"/>
      <point x="161" y="165"/>
      <point x="250" y="67"/>
      <point x="320" y="49" type="qcurve"/>
      <point x="320" y="341" type="line"/>
      <point x="233" y="350"/>
      <point x="116" y="462"/>
      <point x="116" y="535" type="qcurve"/>
      <point x="116" y="606"/>
      <point x="232" y="714"/>
      <point x="320" y="724" type="qcurve"/>
      <point x="320" y="839" type="line"/>
      <point x="385" y="839" type="line"/>
      <point x="385" y="724" type="line"/>
      <point x="474" y="714"/>
      <point x="593" y="597"/>
      <point x="593" y="519" type="qcurve"/>
      <point x="529" y="519" type="line"/>
      <point x="529" y="574"/>
      <point x="446" y="656"/>
      <point x="385" y="666" type="qcurve"/>
      <point x="385" y="389" type="line"/>
      <point x="483" y="376"/>
      <point x="613" y="264"/>
      <point x="613" y="194" type="qcurve"/>
      <point x="613" y="117"/>
      <point x="482" y="1"/>
      <point x="385" y="-9" type="qcurve"/>
      <point x="385" y="-101" type="line"/>
      <point x="320" y="-101" type="line"/>
      <point x="320" y="-9" type="line"/>
      <point x="225" y="4"/>
      <point x="100" y="137"/>
    </contour>
  </outline>
</glyph>
<glyph name="percent" format="1">
  <advance width="814"/>
  <unicode hex="0025"/>
  <outline>
    <contour>
      <point x="142" y="671" type="curve" smooth="yes"/>
      <point x="121" y="671"/>
      <point x="47" y="626"/>
      <point x="47" y="530" type="curve" smooth="yes"/>
      <point x="47" y="429"/>
      <point x="108" y="368"/>
      <point x="163" y="368" type="curve" smooth="yes"/>
      <point x="270" y="368"/>
      <point x="338" y="464"/>
      <point x="338" y="521" type="curve" smooth="yes"/>
      <point x="338" y="595"/>
      <point x="279" y="706"/>
      <point x="156" y="706" type="curve" smooth="yes"/>
      <point x="116" y="706"/>
      <point x="95" y="669"/>
      <point x="64" y="663" type="curve" smooth="yes"/>
      <point x="58" y="662"/>
      <point x="35" y="647"/>
      <point x="35" y="628" type="curve" smooth="yes"/>
      <point x="35" y="608"/>
      <point x="42" y="597"/>
      <point x="62" y="597" type="curve" smooth="yes"/>
      <point x="83" y="597"/>
      <point x="152" y="623"/>
      <point x="184" y="623" type="curve" smooth="yes"/>
      <point x="219" y="623"/>
      <point x="261" y="599"/>
      <point x="261" y="547" type="curve" smooth="yes"/>
      <point x="261" y="478"/>
      <point x="195" y="444"/>
      <point x="175" y="444" type="curve" smooth="yes"/>
      <point x="152" y="444"/>
      <point x="118" y="468"/>
      <point x="118" y="519" type="curve" smooth="yes"/>
      <point x="118" y="580"/>
      <point x="176" y="587"/>
      <point x="176" y="609" type="curve" smooth="yes"/>
      <point x="176" y="636"/>
      <point x="181" y="671"/>
    </contour>
    <contour>
      <point x="522" y="336" type="curve" smooth="yes"/>
      <point x="499" y="336"/>
      <point x="456" y="319"/>
      <point x="461" y="296" type="curve" smooth="yes"/>
      <point x="474" y="234"/>
      <point x="452" y="199"/>
      <point x="452" y="153" type="curve" smooth="yes"/>
      <point x="452" y="66"/>
      <point x="488" y="3"/>
      <point x="563" y="3" type="curve" smooth="yes"/>
      <point x="677" y="3"/>
      <point x="764" y="117"/>
      <point x="764" y="175" type="curve" smooth="yes"/>
      <point x="764" y="262"/>
      <point x="681" y="307"/>
      <point x="627" y="307" type="curve" smooth="yes"/>
      <point x="578" y="307"/>
      <point x="578" y="295"/>
      <point x="470" y="296" type="curve" smooth="yes"/>
      <point x="461" y="296"/>
      <point x="444" y="293"/>
      <point x="444" y="265" type="curve" smooth="yes"/>
      <point x="444" y="239"/>
      <point x="457" y="222"/>
      <point x="504" y="222" type="curve" smooth="yes"/>
      <point x="549" y="222"/>
      <point x="686" y="246"/>
      <point x="686" y="175" type="curve" smooth="yes"/>
      <point x="686" y="132"/>
      <point x="625" y="84"/>
      <point x="576" y="84" type="curve" smooth="yes"/>
      <point x="555" y="84"/>
      <point x="532" y="101"/>
      <point x="532" y="148" type="curve" smooth="yes"/>
      <point x="532" y="209"/>
      <point x="571" y="265"/>
      <point x="571" y="293" type="curve" smooth="yes"/>
      <point x="571" y="320"/>
      <point x="549" y="336"/>
    </contour>
    <contour>
      <point x="531" y="727" type="curve" smooth="yes"/>
      <point x="519" y="727"/>
      <point x="475" y="729"/>
      <point x="445" y="646" type="curve" smooth="yes"/>
      <point x="380" y="466"/>
      <point x="372" y="446"/>
      <point x="319" y="315" type="curve" smooth="yes"/>
      <point x="239" y="118"/>
      <point x="204" y="93"/>
      <point x="204" y="43" type="curve" smooth="yes"/>
      <point x="204" y="-6"/>
      <point x="254" y="-10"/>
      <point x="265" y="-10" type="curve" smooth="yes"/>
      <point x="278" y="-10"/>
      <point x="301" y="-2"/>
      <point x="301" y="12" type="curve" smooth="yes"/>
      <point x="301" y="28"/>
      <point x="292" y="44"/>
      <point x="301" y="71" type="curve" smooth="yes"/>
      <point x="312" y="106"/>
      <point x="308" y="92"/>
      <point x="392" y="304" type="curve" smooth="yes"/>
      <point x="476" y="514"/>
      <point x="540" y="639"/>
      <point x="549" y="647" type="curve" smooth="yes"/>
      <point x="560" y="655"/>
      <point x="561" y="692"/>
      <point x="561" y="699" type="curve" smooth="yes"/>
      <point x="561" y="705"/>
      <point x="544" y="727"/>
    </contour>
  </outline>
</glyph>
<glyph name="ampersand" format="1">
  <advance width="607"/>
  <unicode hex="0026"/>
  <outline>
    <contour>
      <point x="516" y="-47" type="curve" smooth="yes"/>
      <point x="534" y="-47"/>
      <point x="563" y="-31"/>
      <point x="561" y="-4" type="curve" smooth="yes"/>
      <point x="559" y="23"/>
      <point x="524" y="48"/>
      <point x="504" y="68" type="curve" smooth="yes"/>
      <point x="422" y="154"/>
      <point x="206" y="418"/>
      <point x="197" y="558" type="curve" smooth="yes"/>
      <point x="195" y="582"/>
      <point x="227" y="611"/>
      <point x="261" y="611" type="curve" smooth="yes"/>
      <point x="308" y="611"/>
      <point x="338" y="564"/>
      <point x="338" y="542" type="curve" smooth="yes"/>
      <point x="338" y="508"/>
      <point x="274" y="446"/>
      <point x="208" y="410" type="curve" smooth="yes"/>
      <point x="118" y="361"/>
      <point x="35" y="313"/>
      <point x="35" y="199" type="curve" smooth="yes"/>
      <point x="35" y="117"/>
      <point x="89" y="0"/>
      <point x="300" y="0" type="curve" smooth="yes"/>
      <point x="451" y="0"/>
      <point x="557" y="140"/>
      <point x="557" y="288" type="curve" smooth="yes"/>
      <point x="557" y="297"/>
      <point x="549" y="325"/>
      <point x="536" y="325" type="curve" smooth="yes"/>
      <point x="529" y="325"/>
      <point x="489" y="316"/>
      <point x="488" y="291" type="curve"/>
      <point x="482" y="190"/>
      <point x="398" y="81"/>
      <point x="291" y="81" type="curve" smooth="yes"/>
      <point x="190" y="81"/>
      <point x="114" y="145"/>
      <point x="114" y="194" type="curve" smooth="yes"/>
      <point x="114" y="335"/>
      <point x="423" y="367"/>
      <point x="423" y="536" type="curve" smooth="yes"/>
      <point x="423" y="613"/>
      <point x="343" y="702"/>
      <point x="259" y="702" type="curve" smooth="yes"/>
      <point x="187" y="702"/>
      <point x="117" y="597"/>
      <point x="117" y="552" type="curve" smooth="yes"/>
      <point x="117" y="406"/>
      <point x="371" y="116"/>
      <point x="458" y="-14" type="curve" smooth="yes"/>
      <point x="476" y="-41"/>
      <point x="507" y="-47"/>
    </contour>
  </outline>
</glyph>
<glyph name="quotesingle" format="1">
  <advance width="179"/>
  <unicode hex="0027"/>
  <outline>
    <contour>
      <point x="88" y="720" type="curve" smooth="yes"/>
      <point x="66" y="720"/>
      <point x="46" y="705"/>
      <point x="46" y="687" type="curve" smooth="yes"/>
      <point x="46" y="609"/>
      <point x="40" y="570"/>
      <point x="40" y="551" type="curve" smooth="yes"/>
      <point x="40" y="510"/>
      <point x="61" y="493"/>
      <point x="84" y="493" type="curve" smooth="yes"/>
      <point x="110" y="493"/>
      <point x="129" y="522"/>
      <point x="129" y="544" type="curve" smooth="yes"/>
      <point x="129" y="568"/>
      <point x="132" y="624"/>
      <point x="132" y="635" type="curve" smooth="yes"/>
      <point x="132" y="645"/>
      <point x="141" y="662"/>
      <point x="141" y="671" type="curve" smooth="yes"/>
      <point x="141" y="680"/>
      <point x="124" y="720"/>
    </contour>
  </outline>
</glyph>
<glyph name="parenleft" format="1">
  <advance width="440"/>
  <unicode hex="0028"/>
  <outline>
    <contour>
      <point x="308" y="737" type="curve" smooth="yes"/>
      <point x="293" y="737"/>
      <point x="269" y="726"/>
      <point x="249" y="696" type="curve" smooth="yes"/>
      <point x="195" y="614"/>
      <point x="55" y="423"/>
      <point x="55" y="199" type="curve" smooth="yes"/>
      <point x="55" y="1"/>
      <point x="129" y="-143"/>
      <point x="264" y="-143" type="curve" smooth="yes"/>
      <point x="334" y="-143"/>
      <point x="374" y="-110"/>
      <point x="374" y="-99" type="curve" smooth="yes"/>
      <point x="374" y="-61"/>
      <point x="321" y="-74"/>
      <point x="299" y="-74" type="curve" smooth="yes"/>
      <point x="214" y="-74"/>
      <point x="140" y="0"/>
      <point x="140" y="192" type="curve" smooth="yes"/>
      <point x="140" y="386"/>
      <point x="282" y="615"/>
      <point x="299" y="615" type="curve" smooth="yes"/>
      <point x="313" y="615"/>
      <point x="326" y="598"/>
      <point x="341" y="598" type="curve" smooth="yes"/>
      <point x="354" y="598"/>
      <point x="380" y="631"/>
      <point x="380" y="646" type="curve" smooth="yes"/>
      <point x="380" y="658"/>
      <point x="357" y="737"/>
    </contour>
  </outline>
</glyph>
<glyph name="parenright" format="1">
  <advance width="466"/>
  <unicode hex="0029"/>
  <outline>
    <contour>
      <point x="100" y="-220" type="line"/>
      <point x="197" y="-104"/>
      <point x="300" y="184"/>
      <point x="300" y="340" type="qcurve"/>
      <point x="300" y="495"/>
      <point x="197" y="783"/>
      <point x="100" y="899" type="qcurve"/>
      <point x="166" y="899" type="line"/>
      <point x="264" y="783"/>
      <point x="366" y="495"/>
      <point x="366" y="340" type="qcurve"/>
      <point x="366" y="184"/>
      <point x="264" y="-104"/>
      <point x="166" y="-220" type="qcurve"/>
    </contour>
  </outline>
</glyph>
<glyph name="asterisk" format="1">
  <advance width="423"/>
  <unicode hex="002A"/>
  <outline>
    <contour>
      <point x="89" y="447" type="curve" smooth="yes"/>
      <point x="121" y="447"/>
      <point x="144" y="479"/>
      <point x="178" y="501" type="curve" smooth="yes"/>
      <point x="186" y="506"/>
      <point x="248" y="547"/>
      <point x="296" y="583" type="curve" smooth="yes"/>
      <point x="319" y="600"/>
      <point x="365" y="614"/>
      <point x="365" y="643" type="curve" smooth="yes"/>
      <point x="365" y="670"/>
      <point x="343" y="679"/>
      <point x="325" y="679" type="curve" smooth="yes"/>
      <point x="315" y="679"/>
      <point x="305" y="676"/>
      <point x="299" y="672" type="curve" smooth="yes"/>
      <point x="290" y="667"/>
      <point x="271" y="640"/>
      <point x="133" y="555" type="curve" smooth="yes"/>
      <point x="82" y="524"/>
      <point x="52" y="525"/>
      <point x="52" y="489" type="curve" smooth="yes"/>
      <point x="52" y="466"/>
      <point x="68" y="447"/>
    </contour>
    <contour>
      <point x="373" y="484" type="curve" smooth="yes"/>
      <point x="373" y="531"/>
      <point x="314" y="536"/>
      <point x="275" y="557" type="curve" smooth="yes"/>
      <point x="167" y="615"/>
      <point x="121" y="666"/>
      <point x="89" y="666" type="curve" smooth="yes"/>
      <point x="60" y="666"/>
      <point x="50" y="650"/>
      <point x="50" y="635" type="curve" smooth="yes"/>
      <point x="50" y="618"/>
      <point x="60" y="608"/>
      <point x="72" y="600" type="curve" smooth="yes"/>
      <point x="80" y="594"/>
      <point x="112" y="582"/>
      <point x="248" y="493" type="curve" smooth="yes"/>
      <point x="284" y="469"/>
      <point x="313" y="445"/>
      <point x="336" y="445" type="curve" smooth="yes"/>
      <point x="362" y="445"/>
      <point x="373" y="458"/>
    </contour>
    <contour>
      <point x="205" y="733" type="curve" smooth="yes"/>
      <point x="169" y="733"/>
      <point x="164" y="697"/>
      <point x="164" y="674" type="curve" smooth="yes"/>
      <point x="164" y="660"/>
      <point x="169" y="617"/>
      <point x="169" y="603" type="curve" smooth="yes"/>
      <point x="169" y="594"/>
      <point x="168" y="484"/>
      <point x="174" y="426" type="curve" smooth="yes"/>
      <point x="177" y="375"/>
      <point x="206" y="373"/>
      <point x="214" y="373" type="curve" smooth="yes"/>
      <point x="239" y="373"/>
      <point x="252" y="401"/>
      <point x="252" y="419" type="curve" smooth="yes"/>
      <point x="252" y="430"/>
      <point x="239" y="460"/>
      <point x="239" y="622" type="curve" smooth="yes"/>
      <point x="239" y="647"/>
      <point x="250" y="682"/>
      <point x="250" y="692" type="curve" smooth="yes"/>
      <point x="250" y="708"/>
      <point x="228" y="733"/>
    </contour>
  </outline>
</glyph>
<glyph name="plus" format="1">
  <advance width="695"/>
  <unicode hex="002B"/>
  <outline>
    <contour>
      <point x="377" y="596" type="curve" smooth="yes"/>
      <point x="364" y="596"/>
      <point x="322" y="571"/>
      <point x="322" y="541" type="curve" smooth="yes"/>
      <point x="322" y="508"/>
      <point x="323" y="482"/>
      <point x="323" y="446" type="curve" smooth="yes"/>
      <point x="323" y="386"/>
      <point x="287" y="192"/>
      <point x="287" y="117" type="curve" smooth="yes"/>
      <point x="287" y="80"/>
      <point x="326" y="49"/>
      <point x="343" y="49" type="curve" smooth="yes"/>
      <point x="360" y="49"/>
      <point x="384" y="83"/>
      <point x="384" y="91" type="curve" smooth="yes"/>
      <point x="384" y="100"/>
      <point x="383" y="113"/>
      <point x="383" y="126" type="curve" smooth="yes"/>
      <point x="383" y="198"/>
      <point x="424" y="490"/>
      <point x="424" y="524" type="curve" smooth="yes"/>
      <point x="424" y="560"/>
      <point x="404" y="596"/>
    </contour>
    <contour>
      <point x="90" y="334" type="curve" smooth="yes"/>
      <point x="90" y="311"/>
      <point x="98" y="278"/>
      <point x="140" y="278" type="curve" smooth="yes"/>
      <point x="173" y="278"/>
      <point x="291" y="287"/>
      <point x="339" y="295" type="curve" smooth="yes"/>
      <point x="386" y="302"/>
      <point x="499" y="294"/>
      <point x="516" y="294" type="curve" smooth="yes"/>
      <point x="535" y="294"/>
      <point x="559" y="288"/>
      <point x="568" y="288" type="curve" smooth="yes"/>
      <point x="580" y="288"/>
      <point x="605" y="309"/>
      <point x="605" y="337" type="curve" smooth="yes"/>
      <point x="605" y="351"/>
      <point x="593" y="388"/>
      <point x="578" y="388" type="curve" smooth="yes"/>
      <point x="565" y="388"/>
      <point x="540" y="383"/>
      <point x="527" y="383" type="curve" smooth="yes"/>
      <point x="488" y="383"/>
      <point x="306" y="370"/>
      <point x="288" y="370" type="curve" smooth="yes"/>
      <point x="189" y="370"/>
      <point x="152" y="377"/>
      <point x="139" y="377" type="curve" smooth="yes"/>
      <point x="125" y="377"/>
      <point x="90" y="365"/>
    </contour>
  </outline>
</glyph>
<glyph name="comma" format="1">
  <advance width="188"/>
  <unicode hex="002C"/>
  <outline>
    <contour>
      <point x="40" y="6" type="curve" smooth="yes"/>
      <point x="21" y="-78"/>
      <point x="0" y="-106"/>
      <point x="0" y="-115" type="curve" smooth="yes"/>
      <point x="0" y="-125"/>
      <point x="3" y="-149"/>
      <point x="35" y="-149" type="curve" smooth="yes"/>
      <point x="47" y="-149"/>
      <point x="79" y="-141"/>
      <point x="89" y="-110" type="curve" smooth="yes"/>
      <point x="101" y="-72"/>
      <point x="109" y="-52"/>
      <point x="123" y="-22" type="curve" smooth="yes"/>
      <point x="136" y="4"/>
      <point x="152" y="23"/>
      <point x="152" y="47" type="curve" smooth="yes"/>
      <point x="152" y="80"/>
      <point x="161" y="108"/>
      <point x="94" y="108" type="curve" smooth="yes"/>
      <point x="49" y="108"/>
      <point x="45" y="29"/>
    </contour>
  </outline>
</glyph>
<glyph name="hyphen" format="1">
  <advance width="460"/>
  <unicode hex="002D"/>
  <outline>
    <contour>
      <point x="410" y="286" type="curve" smooth="yes"/>
      <point x="410" y="328"/>
      <point x="374" y="334"/>
      <point x="351" y="334" type="curve" smooth="yes"/>
      <point x="337" y="334"/>
      <point x="294" y="331"/>
      <point x="280" y="331" type="curve" smooth="yes"/>
      <point x="271" y="331"/>
      <point x="161" y="330"/>
      <point x="103" y="324" type="curve" smooth="yes"/>
      <point x="52" y="321"/>
      <point x="50" y="286"/>
      <point x="50" y="276" type="curve" smooth="yes"/>
      <point x="50" y="246"/>
      <point x="78" y="233"/>
      <point x="96" y="233" type="curve" smooth="yes"/>
      <point x="107" y="233"/>
      <point x="137" y="246"/>
      <point x="299" y="246" type="curve" smooth="yes"/>
      <point x="324" y="246"/>
      <point x="359" y="235"/>
      <point x="369" y="235" type="curve" smooth="yes"/>
      <point x="385" y="235"/>
      <point x="410" y="258"/>
    </contour>
  </outline>
</glyph>
<glyph name="period" format="1">
  <advance width="201"/>
  <unicode hex="002E"/>
  <outline>
    <contour>
      <point x="104" y="116" type="curve" smooth="yes"/>
      <point x="88" y="116"/>
      <point x="51" y="113"/>
      <point x="48" y="83" type="curve" smooth="yes"/>
      <point x="46" y="63"/>
      <point x="35" y="55"/>
      <point x="35" y="28" type="curve" smooth="yes"/>
      <point x="35" y="19"/>
      <point x="39" y="-7"/>
      <point x="78" y="-7" type="curve" smooth="yes"/>
      <point x="96" y="-7"/>
      <point x="125" y="-2"/>
      <point x="133" y="7" type="curve" smooth="yes"/>
      <point x="146" y="21"/>
      <point x="166" y="40"/>
      <point x="166" y="57" type="curve" smooth="yes"/>
      <point x="166" y="97"/>
      <point x="129" y="116"/>
    </contour>
  </outline>
</glyph>
<glyph name="slash" format="1">
  <advance width="451"/>
  <unicode hex="002F"/>
  <outline>
    <contour>
      <point x="358" y="741" type="curve" smooth="yes"/>
      <point x="332" y="741"/>
      <point x="303" y="726"/>
      <point x="303" y="701" type="curve" smooth="yes"/>
      <point x="303" y="666"/>
      <point x="299" y="662"/>
      <point x="292" y="642" type="curve" smooth="yes"/>
      <point x="284" y="619"/>
      <point x="175" y="306"/>
      <point x="156" y="258" type="curve" smooth="yes"/>
      <point x="69" y="43"/>
      <point x="48" y="3"/>
      <point x="11" y="-36" type="curve" smooth="yes"/>
      <point x="7" y="-41"/>
      <point x="-3" y="-58"/>
      <point x="-3" y="-87" type="curve" smooth="yes"/>
      <point x="-3" y="-98"/>
      <point x="22" y="-129"/>
      <point x="52" y="-129" type="curve" smooth="yes"/>
      <point x="97" y="-129"/>
      <point x="149" y="13"/>
      <point x="172" y="69" type="curve" smooth="yes"/>
      <point x="217" y="178"/>
      <point x="376" y="601"/>
      <point x="378" y="611" type="curve" smooth="yes"/>
      <point x="380" y="626"/>
      <point x="411" y="665"/>
      <point x="411" y="681" type="curve" smooth="yes"/>
      <point x="411" y="717"/>
      <point x="383" y="741"/>
    </contour>
  </outline>
</glyph>
<glyph name="zero" format="1">
  <advance width="555"/>
  <unicode hex="0030"/>
  <outline>
    <contour>
      <point x="221" y="714" type="curve" smooth="yes"/>
      <point x="182" y="714"/>
      <point x="116" y="686"/>
      <point x="116" y="657" type="curve" smooth="yes"/>
      <point x="116" y="627"/>
      <point x="122" y="612"/>
      <point x="139" y="612" type="curve" smooth="yes"/>
      <point x="154" y="612"/>
      <point x="199" y="625"/>
      <point x="224" y="625" type="curve" smooth="yes"/>
      <point x="370" y="625"/>
      <point x="439" y="432"/>
      <point x="439" y="317" type="curve" smooth="yes"/>
      <point x="439" y="196"/>
      <point x="361" y="63"/>
      <point x="246" y="63" type="curve" smooth="yes"/>
      <point x="168" y="63"/>
      <point x="113" y="146"/>
      <point x="113" y="244" type="curve" smooth="yes"/>
      <point x="113" y="463"/>
      <point x="205" y="504"/>
      <point x="205" y="543" type="curve" smooth="yes"/>
      <point x="205" y="590"/>
      <point x="185" y="602"/>
      <point x="155" y="602" type="curve" smooth="yes"/>
      <point x="134" y="602"/>
      <point x="35" y="504"/>
      <point x="35" y="263" type="curve" smooth="yes"/>
      <point x="35" y="124"/>
      <point x="114" y="-14"/>
      <point x="257" y="-14" type="curve" smooth="yes"/>
      <point x="410" y="-14"/>
      <point x="520" y="164"/>
      <point x="520" y="303" type="curve" smooth="yes"/>
      <point x="520" y="535"/>
      <point x="358" y="714"/>
    </contour>
  </outline>
</glyph>
<glyph name="one" format="1">
  <advance width="413"/>
  <unicode hex="0031"/>
  <outline>
    <contour>
      <point x="69" y="724" type="curve" smooth="yes"/>
      <point x="44" y="724"/>
      <point x="25" y="695"/>
      <point x="25" y="679" type="curve" smooth="yes"/>
      <point x="25" y="660"/>
      <point x="44" y="604"/>
      <point x="44" y="518" type="curve" smooth="yes"/>
      <point x="44" y="438"/>
      <point x="34" y="256"/>
      <point x="34" y="202" type="curve" smooth="yes"/>
      <point x="34" y="159"/>
      <point x="40" y="134"/>
      <point x="40" y="122" type="curve" smooth="yes"/>
      <point x="40" y="107"/>
      <point x="29" y="80"/>
      <point x="29" y="63" type="curve" smooth="yes"/>
      <point x="29" y="45"/>
      <point x="64" y="-2"/>
      <point x="85" y="-2" type="curve" smooth="yes"/>
      <point x="103" y="-2"/>
      <point x="124" y="22"/>
      <point x="124" y="34" type="curve" smooth="yes"/>
      <point x="124" y="47"/>
      <point x="97" y="111"/>
      <point x="97" y="175" type="curve" smooth="yes"/>
      <point x="97" y="214"/>
      <point x="118" y="631"/>
      <point x="118" y="658" type="curve" smooth="yes"/>
      <point x="118" y="678"/>
      <point x="92" y="724"/>
    </contour>
  </outline>
</glyph>
<glyph name="two" format="1">
  <advance width="633"/>
  <unicode hex="0032"/>
  <outline>
    <contour>
      <point x="79" y="7" type="line"/>
      <point x="79" y="108"/>
      <point x="146" y="192" type="qcurve"/>
      <point x="212" y="275"/>
      <point x="321" y="338" type="qcurve"/>
      <point x="390" y="378"/>
      <point x="474" y="470"/>
      <point x="474" y="529" type="qcurve"/>
      <point x="474" y="583"/>
      <point x="382" y="652"/>
      <point x="321" y="652" type="qcurve"/>
      <point x="257" y="652"/>
      <point x="166" y="563"/>
      <point x="166" y="499" type="qcurve"/>
      <point x="166" y="455" type="line"/>
      <point x="85" y="455" type="line"/>
      <point x="85" y="499" type="line"/>
      <point x="85" y="594"/>
      <point x="224" y="727"/>
      <point x="321" y="727" type="qcurve"/>
      <point x="415" y="727"/>
      <point x="555" y="615"/>
      <point x="555" y="529" type="qcurve"/>
      <point x="555" y="453"/>
      <point x="504" y="390" type="qcurve"/>
      <point x="454" y="327"/>
      <point x="373" y="280" type="qcurve"/>
      <point x="277" y="225" type="line"/>
      <point x="188" y="174"/>
      <point x="173" y="88" type="qcurve"/>
      <point x="555" y="88" type="line"/>
      <point x="555" y="7" type="line"/>
    </contour>
  </outline>
</glyph>
<glyph name="three" format="1">
  <advance width="635"/>
  <unicode hex="0033"/>
  <outline>
    <contour>
      <point x="318" y="714" type="curve" smooth="yes"/>
      <point x="201" y="714"/>
      <point x="135" y="695"/>
      <point x="135" y="649" type="curve" smooth="yes"/>
      <point x="135" y="609"/>
      <point x="165" y="582"/>
      <point x="184" y="582" type="curve" smooth="yes"/>
      <point x="202" y="582"/>
      <point x="227" y="629"/>
      <point x="237" y="635" type="curve"/>
      <point x="246" y="642"/>
      <point x="291" y="648"/>
      <point x="316" y="648" type="curve" smooth="yes"/>
      <point x="339" y="648"/>
      <point x="431" y="643"/>
      <point x="431" y="572" type="curve" smooth="yes"/>
      <point x="431" y="450"/>
      <point x="246" y="386"/>
      <point x="218" y="375" type="curve" smooth="yes"/>
      <point x="190" y="366"/>
      <point x="185" y="345"/>
      <point x="185" y="339" type="curve" smooth="yes"/>
      <point x="185" y="334"/>
      <point x="212" y="282"/>
      <point x="232" y="282" type="curve" smooth="yes"/>
      <point x="251" y="282"/>
      <point x="290" y="323"/>
      <point x="377" y="323" type="curve" smooth="yes"/>
      <point x="462" y="323"/>
      <point x="521" y="257"/>
      <point x="521" y="187" type="curve" smooth="yes"/>
      <point x="521" y="113"/>
      <point x="440" y="50"/>
      <point x="323" y="50" type="curve" smooth="yes"/>
      <point x="278" y="50"/>
      <point x="192" y="52"/>
      <point x="191" y="63" type="curve"/>
      <point x="188" y="72"/>
      <point x="203" y="87"/>
      <point x="203" y="96" type="curve" smooth="yes"/>
      <point x="203" y="105"/>
      <point x="160" y="113"/>
      <point x="141" y="113" type="curve" smooth="yes"/>
      <point x="121" y="113"/>
      <point x="51" y="100"/>
      <point x="51" y="66" type="curve" smooth="yes"/>
      <point x="51" y="-11"/>
      <point x="216" y="-11"/>
      <point x="314" y="-11" type="curve" smooth="yes"/>
      <point x="410" y="-11"/>
      <point x="592" y="25"/>
      <point x="592" y="183" type="curve" smooth="yes"/>
      <point x="592" y="324"/>
      <point x="454" y="367"/>
      <point x="380" y="388" type="curve"/>
      <point x="380" y="388"/>
      <point x="347" y="349"/>
      <point x="381" y="372" type="curve"/>
      <point x="416" y="394"/>
      <point x="515" y="484"/>
      <point x="515" y="568" type="curve" smooth="yes"/>
      <point x="515" y="637"/>
      <point x="462" y="714"/>
    </contour>
  </outline>
</glyph>
<glyph name="four" format="1">
  <advance width="635"/>
  <unicode hex="0034"/>
  <outline>
    <contour>
      <point x="432" y="715" type="curve" smooth="yes"/>
      <point x="405" y="715"/>
      <point x="359" y="668"/>
      <point x="351" y="642" type="curve"/>
      <point x="340" y="617"/>
      <point x="220" y="505"/>
      <point x="189" y="466" type="curve"/>
      <point x="157" y="427"/>
      <point x="70" y="317"/>
      <point x="61" y="312" type="curve"/>
      <point x="54" y="310"/>
      <point x="41" y="299"/>
      <point x="41" y="293" type="curve" smooth="yes"/>
      <point x="41" y="284"/>
      <point x="58" y="231"/>
      <point x="92" y="231" type="curve" smooth="yes"/>
      <point x="127" y="231"/>
      <point x="362" y="261"/>
      <point x="411" y="261" type="curve" smooth="yes"/>
      <point x="460" y="261"/>
      <point x="583" y="270"/>
      <point x="599" y="270" type="curve" smooth="yes"/>
      <point x="615" y="270"/>
      <point x="630" y="288"/>
      <point x="630" y="301" type="curve" smooth="yes"/>
      <point x="630" y="312"/>
      <point x="608" y="338"/>
      <point x="588" y="338" type="curve" smooth="yes"/>
      <point x="568" y="338"/>
      <point x="532" y="322"/>
      <point x="498" y="322" type="curve" smooth="yes"/>
      <point x="475" y="322"/>
      <point x="297" y="313"/>
      <point x="136" y="312" type="curve" smooth="yes"/>
      <point x="130" y="312"/>
      <point x="122" y="282"/>
      <point x="142" y="300" type="curve" smooth="yes"/>
      <point x="164" y="321"/>
      <point x="334" y="520"/>
      <point x="378" y="554" type="curve" smooth="yes"/>
      <point x="426" y="592"/>
      <point x="475" y="616"/>
      <point x="475" y="648" type="curve" smooth="yes"/>
      <point x="475" y="675"/>
      <point x="460" y="715"/>
    </contour>
    <contour>
      <point x="529" y="584" type="curve" smooth="yes"/>
      <point x="497" y="584"/>
      <point x="479" y="549"/>
      <point x="479" y="535" type="curve" smooth="yes"/>
      <point x="479" y="523"/>
      <point x="490" y="462"/>
      <point x="490" y="434" type="curve" smooth="yes"/>
      <point x="490" y="361"/>
      <point x="433" y="98"/>
      <point x="433" y="41" type="curve" smooth="yes"/>
      <point x="433" y="14"/>
      <point x="443" y="-12"/>
      <point x="464" y="-12" type="curve" smooth="yes"/>
      <point x="485" y="-12"/>
      <point x="511" y="10"/>
      <point x="513" y="36" type="curve" smooth="yes"/>
      <point x="525" y="185"/>
      <point x="570" y="341"/>
      <point x="570" y="397" type="curve" smooth="yes"/>
      <point x="570" y="500"/>
      <point x="579" y="509"/>
      <point x="579" y="530" type="curve" smooth="yes"/>
      <point x="579" y="549"/>
      <point x="551" y="584"/>
    </contour>
  </outline>
</glyph>
<glyph name="five" format="1">
  <advance width="635"/>
  <unicode hex="0035"/>
  <outline>
    <contour>
      <point x="309" y="635" type="curve" smooth="yes"/>
      <point x="270" y="635"/>
      <point x="239" y="546"/>
      <point x="207" y="496" type="curve"/>
      <point x="171" y="452"/>
      <point x="89" y="383"/>
      <point x="89" y="356" type="curve" smooth="yes"/>
      <point x="89" y="337"/>
      <point x="114" y="300"/>
      <point x="134" y="300" type="curve" smooth="yes"/>
      <point x="154" y="300"/>
      <point x="275" y="336"/>
      <point x="359" y="336" type="curve" smooth="yes"/>
      <point x="423" y="336"/>
      <point x="494" y="298"/>
      <point x="494" y="241" type="curve" smooth="yes"/>
      <point x="494" y="116"/>
      <point x="327" y="55"/>
      <point x="237" y="55" type="curve" smooth="yes"/>
      <point x="173" y="55"/>
      <point x="114" y="79"/>
      <point x="112" y="86" type="curve" smooth="yes"/>
      <point x="110" y="93"/>
      <point x="109" y="127"/>
      <point x="89" y="127" type="curve" smooth="yes"/>
      <point x="63" y="127"/>
      <point x="42" y="89"/>
      <point x="42" y="69" type="curve" smooth="yes"/>
      <point x="42" y="49"/>
      <point x="80" y="-12"/>
      <point x="245" y="-12" type="curve" smooth="yes"/>
      <point x="411" y="-12"/>
      <point x="575" y="104"/>
      <point x="575" y="230" type="curve" smooth="yes"/>
      <point x="575" y="355"/>
      <point x="455" y="401"/>
      <point x="309" y="401" type="curve" smooth="yes"/>
      <point x="250" y="401"/>
      <point x="178" y="387"/>
      <point x="166" y="379" type="curve" smooth="yes"/>
      <point x="154" y="371"/>
      <point x="160" y="349"/>
      <point x="169" y="358" type="curve"/>
      <point x="182" y="375"/>
      <point x="224" y="433"/>
      <point x="280" y="475" type="curve" smooth="yes"/>
      <point x="305" y="501"/>
      <point x="348" y="540"/>
      <point x="348" y="569" type="curve" smooth="yes"/>
      <point x="348" y="593"/>
      <point x="341" y="635"/>
    </contour>
    <contour>
      <point x="365" y="623" type="curve" smooth="yes"/>
      <point x="365" y="600"/>
      <point x="387" y="579"/>
      <point x="403" y="579" type="curve" smooth="yes"/>
      <point x="419" y="579"/>
      <point x="417" y="587"/>
      <point x="427" y="596" type="curve" smooth="yes"/>
      <point x="440" y="606"/>
      <point x="502" y="643"/>
      <point x="673" y="643" type="curve" smooth="yes"/>
      <point x="709" y="643"/>
      <point x="740" y="641"/>
      <point x="744" y="636" type="curve"/>
      <point x="748" y="633"/>
      <point x="764" y="627"/>
      <point x="774" y="627" type="curve" smooth="yes"/>
      <point x="783" y="627"/>
      <point x="803" y="647"/>
      <point x="803" y="661" type="curve" smooth="yes"/>
      <point x="803" y="685"/>
      <point x="776" y="713"/>
      <point x="728" y="713" type="curve" smooth="yes"/>
      <point x="618" y="713"/>
      <point x="525" y="703"/>
      <point x="459" y="693" type="curve"/>
      <point x="398" y="682"/>
      <point x="365" y="656"/>
    </contour>
  </outline>
</glyph>
<glyph name="six" format="1">
  <advance width="635"/>
  <unicode hex="0036"/>
  <outline>
    <contour>
      <point x="399" y="724" type="curve" smooth="yes"/>
      <point x="388" y="724"/>
      <point x="365" y="714"/>
      <point x="356" y="711" type="curve" smooth="yes"/>
      <point x="334" y="703"/>
      <point x="225" y="505"/>
      <point x="198" y="442" type="curve" smooth="yes"/>
      <point x="170" y="379"/>
      <point x="128" y="289"/>
      <point x="128" y="191" type="curve" smooth="yes"/>
      <point x="128" y="89"/>
      <point x="178" y="25"/>
      <point x="245" y="4" type="curve"/>
      <point x="284" y="-11"/>
      <point x="304" y="-8"/>
      <point x="324" y="-8" type="curve" smooth="yes"/>
      <point x="437" y="-8"/>
      <point x="544" y="30"/>
      <point x="544" y="120" type="curve" smooth="yes"/>
      <point x="544" y="254"/>
      <point x="358" y="283"/>
      <point x="315" y="283" type="curve" smooth="yes"/>
      <point x="272" y="283"/>
      <point x="180" y="275"/>
      <point x="140" y="258" type="curve"/>
      <point x="86" y="237"/>
      <point x="52" y="166"/>
      <point x="52" y="156" type="curve" smooth="yes"/>
      <point x="52" y="146"/>
      <point x="59" y="122"/>
      <point x="76" y="122" type="curve" smooth="yes"/>
      <point x="94" y="122"/>
      <point x="115" y="202"/>
      <point x="161" y="218" type="curve" smooth="yes"/>
      <point x="191" y="229"/>
      <point x="238" y="238"/>
      <point x="310" y="238" type="curve" smooth="yes"/>
      <point x="386" y="238"/>
      <point x="510" y="168"/>
      <point x="510" y="115" type="curve" smooth="yes"/>
      <point x="510" y="75"/>
      <point x="406" y="54"/>
      <point x="330" y="54" type="curve" smooth="yes"/>
      <point x="250" y="54"/>
      <point x="203" y="99"/>
      <point x="203" y="155" type="curve" smooth="yes"/>
      <point x="203" y="289"/>
      <point x="241" y="359"/>
      <point x="279" y="439" type="curve" smooth="yes"/>
      <point x="317" y="519"/>
      <point x="375" y="601"/>
      <point x="391" y="618" type="curve" smooth="yes"/>
      <point x="408" y="631"/>
      <point x="435" y="634"/>
      <point x="435" y="657" type="curve" smooth="yes"/>
      <point x="435" y="670"/>
      <point x="437" y="724"/>
    </contour>
  </outline>
</glyph>
<glyph name="seven" format="1">
  <advance width="635"/>
  <unicode hex="0037"/>
  <outline>
    <contour>
      <point x="53" y="633" type="line"/>
      <point x="53" y="704" type="line"/>
      <point x="582" y="704" type="line"/>
      <point x="582" y="633" type="line"/>
      <point x="442" y="534"/>
      <point x="310" y="198"/>
      <point x="310" y="0" type="qcurve"/>
      <point x="216" y="0" type="line"/>
      <point x="216" y="190"/>
      <point x="341" y="523"/>
      <point x="471" y="633" type="qcurve"/>
    </contour>
  </outline>
</glyph>
<glyph name="eight" format="1">
  <advance width="635"/>
  <unicode hex="0038"/>
  <outline>
    <contour>
      <point x="365" y="403" type="curve" smooth="yes"/>
      <point x="390" y="403"/>
      <point x="472" y="521"/>
      <point x="472" y="549" type="curve" smooth="yes"/>
      <point x="472" y="642"/>
      <point x="415" y="681"/>
      <point x="400" y="691" type="curve" smooth="yes"/>
      <point x="386" y="700"/>
      <point x="345" y="708"/>
      <point x="323" y="708" type="curve" smooth="yes"/>
      <point x="262" y="708"/>
      <point x="94" y="637"/>
      <point x="94" y="468" type="curve" smooth="yes"/>
      <point x="94" y="325"/>
      <point x="229" y="281"/>
      <point x="278" y="255" type="curve" smooth="yes"/>
      <point x="360" y="210"/>
      <point x="439" y="164"/>
      <point x="439" y="116" type="curve" smooth="yes"/>
      <point x="439" y="60"/>
      <point x="359" y="49"/>
      <point x="314" y="49" type="curve" smooth="yes"/>
      <point x="269" y="49"/>
      <point x="220" y="49"/>
      <point x="220" y="72" type="curve" smooth="yes"/>
      <point x="220" y="146"/>
      <point x="283" y="236"/>
      <point x="323" y="273" type="curve" smooth="yes"/>
      <point x="369" y="312"/>
      <point x="521" y="515"/>
      <point x="523" y="527" type="curve"/>
      <point x="526" y="538"/>
      <point x="532" y="562"/>
      <point x="519" y="562" type="curve" smooth="yes"/>
      <point x="488" y="562"/>
      <point x="335" y="392"/>
      <point x="310" y="362" type="curve"/>
      <point x="246" y="290"/>
      <point x="153" y="198"/>
      <point x="153" y="93" type="curve" smooth="yes"/>
      <point x="153" y="-2"/>
      <point x="194" y="-15"/>
      <point x="310" y="-15" type="curve" smooth="yes"/>
      <point x="424" y="-15"/>
      <point x="522" y="65"/>
      <point x="522" y="142" type="curve" smooth="yes"/>
      <point x="522" y="231"/>
      <point x="404" y="273"/>
      <point x="328" y="317" type="curve" smooth="yes"/>
      <point x="220" y="382"/>
      <point x="164" y="398"/>
      <point x="164" y="497" type="curve" smooth="yes"/>
      <point x="164" y="567"/>
      <point x="283" y="632"/>
      <point x="326" y="632" type="curve" smooth="yes"/>
      <point x="359" y="632"/>
      <point x="390" y="611"/>
      <point x="390" y="576" type="curve" smooth="yes"/>
      <point x="390" y="551"/>
      <point x="382" y="522"/>
      <point x="375" y="520" type="curve"/>
      <point x="368" y="516"/>
      <point x="325" y="473"/>
      <point x="325" y="456" type="curve" smooth="yes"/>
      <point x="325" y="439"/>
      <point x="334" y="403"/>
    </contour>
  </outline>
</glyph>
<glyph name="nine" format="1">
  <advance width="506"/>
  <unicode hex="0039"/>
  <outline>
    <contour>
      <point x="387" y="607" type="curve" smooth="yes"/>
      <point x="387" y="680"/>
      <point x="287" y="714"/>
      <point x="240" y="714" type="curve" smooth="yes"/>
      <point x="122" y="714"/>
      <point x="15" y="638"/>
      <point x="15" y="531" type="curve" smooth="yes"/>
      <point x="15" y="439"/>
      <point x="59" y="385"/>
      <point x="155" y="385" type="curve" smooth="yes"/>
      <point x="213" y="385"/>
      <point x="293" y="407"/>
      <point x="347" y="434" type="curve"/>
      <point x="336" y="347"/>
      <point x="322" y="270"/>
      <point x="314" y="187" type="curve" smooth="yes"/>
      <point x="308" y="128"/>
      <point x="287" y="87"/>
      <point x="274" y="65" type="curve" smooth="yes"/>
      <point x="269" y="56"/>
      <point x="266" y="51"/>
      <point x="266" y="47" type="curve" smooth="yes"/>
      <point x="266" y="21"/>
      <point x="291" y="-30"/>
      <point x="324" y="-30" type="curve" smooth="yes"/>
      <point x="367" y="-30"/>
      <point x="374" y="65"/>
      <point x="374" y="92" type="curve" smooth="yes"/>
      <point x="374" y="99"/>
      <point x="378" y="116"/>
      <point x="384" y="138" type="curve" smooth="yes"/>
      <point x="401" y="205"/>
      <point x="409" y="265"/>
      <point x="419" y="326" type="curve" smooth="yes"/>
      <point x="429" y="381"/>
      <point x="437" y="442"/>
      <point x="439" y="457" type="curve" smooth="yes"/>
      <point x="440" y="462"/>
      <point x="441" y="468"/>
      <point x="446" y="474" type="curve" smooth="yes"/>
      <point x="451" y="481"/>
      <point x="456" y="488"/>
      <point x="456" y="497" type="curve" smooth="yes"/>
      <point x="456" y="514"/>
      <point x="432" y="568"/>
      <point x="412" y="568" type="curve" smooth="yes"/>
      <point x="398" y="568"/>
      <point x="384" y="554"/>
      <point x="365" y="537" type="curve"/>
      <point x="379" y="564"/>
      <point x="387" y="594"/>
    </contour>
    <contour>
      <point x="185" y="455" type="curve" smooth="yes"/>
      <point x="136" y="455"/>
      <point x="93" y="476"/>
      <point x="93" y="520" type="curve" smooth="yes"/>
      <point x="93" y="595"/>
      <point x="164" y="631"/>
      <point x="235" y="631" type="curve" smooth="yes"/>
      <point x="274" y="631"/>
      <point x="288" y="615"/>
      <point x="288" y="604" type="curve" smooth="yes"/>
      <point x="288" y="581"/>
      <point x="271" y="561"/>
      <point x="271" y="537" type="curve"/>
      <point x="271" y="517"/>
      <point x="271" y="490"/>
      <point x="303" y="488" type="curve"/>
      <point x="273" y="469"/>
      <point x="235" y="455"/>
    </contour>
  </outline>
</glyph>
<glyph name="colon" format="1">
  <advance width="279"/>
  <unicode hex="003A"/>
  <outline>
    <contour>
      <point x="100" y="386" type="line"/>
      <point x="100" y="486" type="line"/>
      <point x="180" y="486" type="line"/>
      <point x="180" y="386" type="line"/>
    </contour>
    <contour>
      <point x="100" y="0" type="line"/>
      <point x="100" y="100" type="line"/>
      <point x="180" y="100" type="line"/>
      <point x="180" y="0" type="line"/>
    </contour>
  </outline>
</glyph>
<glyph name="semicolon" format="1">
  <advance width="214"/>
  <unicode hex="003B"/>
  <outline>
    <contour>
      <point x="98" y="435" type="curve" smooth="yes"/>
      <point x="72" y="435"/>
      <point x="46" y="390"/>
      <point x="46" y="377" type="curve" smooth="yes"/>
      <point x="46" y="352"/>
      <point x="48" y="304"/>
      <point x="117" y="304" type="curve" smooth="yes"/>
      <point x="147" y="304"/>
      <point x="169" y="341"/>
      <point x="169" y="351" type="curve" smooth="yes"/>
      <point x="169" y="361"/>
      <point x="167" y="403"/>
      <point x="142" y="408" type="curve" smooth="yes"/>
      <point x="130" y="410"/>
      <point x="121" y="435"/>
    </contour>
    <contour>
      <point x="118" y="116" type="curve" smooth="yes"/>
      <point x="86" y="116"/>
      <point x="64" y="103"/>
      <point x="58" y="76" type="curve" smooth="yes"/>
      <point x="55" y="62"/>
      <point x="54" y="36"/>
      <point x="48" y="9" type="curve" smooth="yes"/>
      <point x="42" y="-19"/>
      <point x="46" y="-28"/>
      <point x="21" y="-81" type="curve" smooth="yes"/>
      <point x="15" y="-93"/>
      <point x="10" y="-102"/>
      <point x="10" y="-122" type="curve" smooth="yes"/>
      <point x="10" y="-141"/>
      <point x="25" y="-151"/>
      <point x="50" y="-151" type="curve" smooth="yes"/>
      <point x="86" y="-151"/>
      <point x="101" y="-106"/>
      <point x="123" y="-50" type="curve" smooth="yes"/>
      <point x="144" y="5"/>
      <point x="167" y="47"/>
      <point x="167" y="65" type="curve" smooth="yes"/>
      <point x="167" y="79"/>
      <point x="151" y="116"/>
    </contour>
  </outline>
</glyph>
<glyph name="less" format="1">
  <advance width="661"/>
  <unicode hex="003C"/>
  <outline>
    <contour>
      <point x="100" y="290" type="line"/>
      <point x="100" y="369" type="line"/>
      <point x="562" y="644" type="line"/>
      <point x="562" y="573" type="line"/>
      <point x="165" y="333" type="line"/>
      <point x="562" y="93" type="line"/>
      <point x="562" y="19" type="line"/>
    </contour>
  </outline>
</glyph>
<glyph name="equal" format="1">
  <advance width="798"/>
  <unicode hex="003D"/>
  <outline>
    <contour>
      <point x="100" y="366" type="line"/>
      <point x="100" y="433" type="line"/>
      <point x="699" y="433" type="line"/>
      <point x="699" y="366" type="line"/>
    </contour>
    <contour>
      <point x="100" y="153" type="line"/>
      <point x="100" y="220" type="line"/>
      <point x="699" y="220" type="line"/>
      <point x="699" y="153" type="line"/>
    </contour>
  </outline>
</glyph>
<glyph name="greater" format="1">
  <advance width="695"/>
  <unicode hex="003E"/>
  <outline>
    <contour>
      <point x="168" y="587" type="curve" smooth="yes"/>
      <point x="138" y="587"/>
      <point x="115" y="558"/>
      <point x="115" y="538" type="curve" smooth="yes"/>
      <point x="115" y="517"/>
      <point x="133" y="480"/>
      <point x="159" y="470" type="curve" smooth="yes"/>
      <point x="253" y="437"/>
      <point x="494" y="335"/>
      <point x="521" y="302" type="curve"/>
      <point x="541" y="285"/>
      <point x="527" y="338"/>
      <point x="527" y="338" type="curve"/>
      <point x="527" y="338"/>
      <point x="407" y="265"/>
      <point x="331" y="225" type="curve" smooth="yes"/>
      <point x="256" y="186"/>
      <point x="208" y="152"/>
      <point x="138" y="124" type="curve" smooth="yes"/>
      <point x="76" y="91"/>
      <point x="93" y="17"/>
      <point x="139" y="17" type="curve" smooth="yes"/>
      <point x="189" y="17"/>
      <point x="224" y="62"/>
      <point x="392" y="162" type="curve" smooth="yes"/>
      <point x="445" y="194"/>
      <point x="562" y="280"/>
      <point x="591" y="280" type="curve" smooth="yes"/>
      <point x="617" y="280"/>
      <point x="621" y="291"/>
      <point x="621" y="321" type="curve" smooth="yes"/>
      <point x="621" y="340"/>
      <point x="613" y="374"/>
      <point x="591" y="378" type="curve"/>
      <point x="489" y="409"/>
      <point x="407" y="453"/>
      <point x="362" y="476" type="curve" smooth="yes"/>
      <point x="215" y="551"/>
      <point x="194" y="587"/>
    </contour>
  </outline>
</glyph>
<glyph name="question" format="1">
  <advance width="665"/>
  <unicode hex="003F"/>
  <outline>
    <contour>
      <point x="246" y="166" type="line"/>
      <point x="246" y="373" type="line"/>
      <point x="358" y="403"/>
      <point x="499" y="522"/>
      <point x="499" y="586" type="qcurve"/>
      <point x="499" y="643"/>
      <point x="394" y="726"/>
      <point x="320" y="726" type="qcurve"/>
      <point x="274" y="726"/>
      <point x="181" y="680"/>
      <point x="140" y="639" type="qcurve"/>
      <point x="100" y="692" type="line"/>
      <point x="148" y="740"/>
      <point x="262" y="792"/>
      <point x="320" y="792" type="qcurve"/>
      <point x="422" y="792"/>
      <point x="566" y="671"/>
      <point x="566" y="586" type="qcurve"/>
      <point x="566" y="510"/>
      <point x="427" y="368"/>
      <point x="313" y="326" type="qcurve"/>
      <point x="313" y="166" type="line"/>
    </contour>
    <contour>
      <point x="233" y="0" type="line"/>
      <point x="233" y="87" type="line"/>
      <point x="326" y="87" type="line"/>
      <point x="326" y="0" type="line"/>
    </contour>
  </outline>
</glyph>
<glyph name="at" format="1">
  <advance width="951"/>
  <unicode hex="0040"/>
  <outline>
    <contour>
      <point x="714" y="101" type="curve" smooth="yes"/>
      <point x="856" y="101"/>
      <point x="901" y="259"/>
      <point x="901" y="378" type="curve" smooth="yes"/>
      <point x="901" y="585"/>
      <point x="707" y="731"/>
      <point x="493" y="731" type="curve" smooth="yes"/>
      <point x="167" y="731"/>
      <point x="50" y="455"/>
      <point x="50" y="303" type="curve" smooth="yes"/>
      <point x="50" y="113"/>
      <point x="188" y="-74"/>
      <point x="447" y="-74" type="curve" smooth="yes"/>
      <point x="496" y="-74"/>
      <point x="524" y="-57"/>
      <point x="524" y="-28" type="curve" smooth="yes"/>
      <point x="524" y="43"/>
      <point x="427" y="-7"/>
      <point x="393" y="2" type="curve" smooth="yes"/>
      <point x="165" y="62"/>
      <point x="139" y="200"/>
      <point x="139" y="322" type="curve" smooth="yes"/>
      <point x="139" y="435"/>
      <point x="233" y="650"/>
      <point x="479" y="650" type="curve" smooth="yes"/>
      <point x="670" y="650"/>
      <point x="818" y="536"/>
      <point x="818" y="361" type="curve" smooth="yes"/>
      <point x="818" y="281"/>
      <point x="792" y="177"/>
      <point x="720" y="177" type="curve" smooth="yes"/>
      <point x="661" y="177"/>
      <point x="667" y="232"/>
      <point x="667" y="309" type="curve" smooth="yes"/>
      <point x="667" y="355"/>
      <point x="689" y="402"/>
      <point x="689" y="443" type="curve" smooth="yes"/>
      <point x="689" y="456"/>
      <point x="680" y="473"/>
      <point x="660" y="473" type="curve" smooth="yes"/>
      <point x="652" y="473"/>
      <point x="644" y="466"/>
      <point x="641" y="465" type="curve"/>
      <point x="633" y="478"/>
      <point x="585" y="536"/>
      <point x="525" y="536" type="curve" smooth="yes"/>
      <point x="395" y="536"/>
      <point x="264" y="377"/>
      <point x="264" y="233" type="curve" smooth="yes"/>
      <point x="264" y="156"/>
      <point x="321" y="111"/>
      <point x="380" y="111" type="curve" smooth="yes"/>
      <point x="478" y="111"/>
      <point x="556" y="186"/>
      <point x="599" y="254" type="curve"/>
      <point x="593" y="154"/>
      <point x="636" y="101"/>
    </contour>
    <contour>
      <point x="523" y="465" type="curve" smooth="yes"/>
      <point x="551" y="465"/>
      <point x="579" y="431"/>
      <point x="579" y="414" type="curve" smooth="yes"/>
      <point x="579" y="329"/>
      <point x="482" y="185"/>
      <point x="388" y="185" type="curve" smooth="yes"/>
      <point x="361" y="185"/>
      <point x="349" y="214"/>
      <point x="349" y="233" type="curve" smooth="yes"/>
      <point x="349" y="311"/>
      <point x="424" y="465"/>
    </contour>
  </outline>
</glyph>
<glyph name="A" format="1">
  <advance width="588"/>
  <unicode hex="0041"/>
  <outline>
    <contour>
      <point x="260" y="791" type="move" name="top"/>
    </contour>
    <contour>
      <point x="218" y="736" type="curve" smooth="yes"/>
      <point x="183" y="736"/>
      <point x="175" y="683"/>
      <point x="170" y="662" type="curve" smooth="yes"/>
      <point x="152" y="584"/>
      <point x="129" y="490"/>
      <point x="115" y="406" type="curve" smooth="yes"/>
      <point x="98" y="305"/>
      <point x="76" y="206"/>
      <point x="45" y="114" type="curve" smooth="yes"/>
      <point x="39" y="96"/>
      <point x="30" y="78"/>
      <point x="30" y="59" type="curve" smooth="yes"/>
      <point x="30" y="37"/>
      <point x="53" y="-18"/>
      <point x="85" y="-18" type="curve" smooth="yes"/>
      <point x="116" y="-18"/>
      <point x="144" y="22"/>
      <point x="144" y="48" type="curve" smooth="yes"/>
      <point x="144" y="80"/>
      <point x="153" y="172"/>
      <point x="184" y="338" type="curve"/>
      <point x="207" y="455"/>
      <point x="232" y="541"/>
      <point x="246" y="590" type="curve" smooth="yes"/>
      <point x="257" y="628"/>
      <point x="266" y="661"/>
      <point x="266" y="687" type="curve" smooth="yes"/>
      <point x="266" y="709"/>
      <point x="257" y="736"/>
    </contour>
    <contour>
      <point x="283" y="721" type="curve" smooth="yes"/>
      <point x="249" y="721"/>
      <point x="235" y="704"/>
      <point x="235" y="662" type="curve" smooth="yes"/>
      <point x="235" y="621"/>
      <point x="265" y="596"/>
      <point x="277" y="561" type="curve" smooth="yes"/>
      <point x="295" y="512"/>
      <point x="393" y="279"/>
      <point x="407" y="247" type="curve"/>
      <point x="433" y="196"/>
      <point x="463" y="128"/>
      <point x="473" y="75" type="curve"/>
      <point x="480" y="32"/>
      <point x="501" y="-4"/>
      <point x="539" y="-4" type="curve" smooth="yes"/>
      <point x="569" y="-4"/>
      <point x="589" y="23"/>
      <point x="589" y="53" type="curve" smooth="yes"/>
      <point x="589" y="72"/>
      <point x="573" y="98"/>
      <point x="560" y="117" type="curve" smooth="yes"/>
      <point x="555" y="124"/>
      <point x="550" y="130"/>
      <point x="547" y="138" type="curve" smooth="yes"/>
      <point x="530" y="180"/>
      <point x="465" y="323"/>
      <point x="441" y="372" type="curve" smooth="yes"/>
      <point x="417" y="423"/>
      <point x="365" y="584"/>
      <point x="357" y="610" type="curve" smooth="yes"/>
      <point x="350" y="630"/>
      <point x="352" y="649"/>
      <point x="345" y="667" type="curve" smooth="yes"/>
      <point x="337" y="691"/>
      <point x="317" y="721"/>
    </contour>
    <contour>
      <point x="107" y="239" type="curve" smooth="yes"/>
      <point x="107" y="192"/>
      <point x="125" y="192"/>
      <point x="144" y="192" type="curve" smooth="yes"/>
      <point x="174" y="192"/>
      <point x="203" y="194"/>
      <point x="232" y="196" type="curve" smooth="yes"/>
      <point x="260" y="198"/>
      <point x="289" y="200"/>
      <point x="317" y="200" type="curve"/>
      <point x="458" y="200" type="line"/>
      <point x="475" y="200"/>
      <point x="489" y="222"/>
      <point x="489" y="239" type="curve" smooth="yes"/>
      <point x="489" y="255"/>
      <point x="462" y="292"/>
      <point x="440" y="292" type="curve" smooth="yes"/>
      <point x="430" y="292"/>
      <point x="425" y="290"/>
      <point x="418" y="288" type="curve" smooth="yes"/>
      <point x="403" y="283"/>
      <point x="380" y="277"/>
      <point x="280" y="278" type="curve" smooth="yes"/>
      <point x="265" y="278"/>
      <point x="237" y="278"/>
      <point x="209" y="279" type="curve" smooth="yes"/>
      <point x="183" y="279"/>
      <point x="157" y="280"/>
      <point x="144" y="280" type="curve" smooth="yes"/>
      <point x="120" y="280"/>
      <point x="107" y="269"/>
    </contour>
  </outline>
</glyph>
<glyph name="B" format="1">
  <advance width="667"/>
  <unicode hex="0042"/>
  <outline>
    <contour>
      <point x="327" y="731" type="curve" smooth="yes"/>
      <point x="277" y="731"/>
      <point x="159" y="715"/>
      <point x="137" y="709" type="curve" smooth="yes"/>
      <point x="114" y="703"/>
      <point x="76" y="683"/>
      <point x="76" y="647" type="curve" smooth="yes"/>
      <point x="76" y="609"/>
      <point x="108" y="581"/>
      <point x="108" y="545" type="curve" smooth="yes"/>
      <point x="108" y="474"/>
      <point x="98" y="404"/>
      <point x="88" y="334" type="curve" smooth="yes"/>
      <point x="78" y="265"/>
      <point x="68" y="197"/>
      <point x="68" y="129" type="curve" smooth="yes"/>
      <point x="68" y="91"/>
      <point x="73" y="45"/>
      <point x="117" y="45" type="curve" smooth="yes"/>
      <point x="161" y="45"/>
      <point x="174" y="81"/>
      <point x="174" y="104" type="curve" smooth="yes"/>
      <point x="174" y="135"/>
      <point x="165" y="162"/>
      <point x="165" y="190" type="curve" smooth="yes"/>
      <point x="165" y="247"/>
      <point x="173" y="305"/>
      <point x="180" y="361" type="curve" smooth="yes"/>
      <point x="187" y="416"/>
      <point x="194" y="475"/>
      <point x="194" y="530" type="curve" smooth="yes"/>
      <point x="194" y="552"/>
      <point x="192" y="571"/>
      <point x="192" y="590" type="curve" smooth="yes"/>
      <point x="192" y="607"/>
      <point x="193" y="622"/>
      <point x="196" y="626" type="curve" smooth="yes"/>
      <point x="199" y="632"/>
      <point x="267" y="646"/>
      <point x="331" y="646" type="curve" smooth="yes"/>
      <point x="442" y="646"/>
      <point x="497" y="617"/>
      <point x="497" y="546" type="curve" smooth="yes"/>
      <point x="497" y="459"/>
      <point x="400" y="433"/>
      <point x="364" y="433" type="curve" smooth="yes"/>
      <point x="343" y="433"/>
      <point x="285" y="424"/>
      <point x="285" y="388" type="curve" smooth="yes"/>
      <point x="285" y="362"/>
      <point x="304" y="350"/>
      <point x="369" y="350" type="curve" smooth="yes"/>
      <point x="392" y="350"/>
      <point x="582" y="404"/>
      <point x="582" y="543" type="curve" smooth="yes"/>
      <point x="582" y="678"/>
      <point x="486" y="731"/>
    </contour>
    <contour>
      <point x="184" y="384" type="curve" smooth="yes"/>
      <point x="184" y="346"/>
      <point x="205" y="324"/>
      <point x="227" y="324" type="curve" smooth="yes"/>
      <point x="269" y="324"/>
      <point x="256" y="342"/>
      <point x="325" y="342" type="curve" smooth="yes"/>
      <point x="452" y="342"/>
      <point x="545" y="291"/>
      <point x="545" y="183" type="curve" smooth="yes"/>
      <point x="545" y="87"/>
      <point x="455" y="54"/>
      <point x="350" y="54" type="curve" smooth="yes"/>
      <point x="238" y="54"/>
      <point x="185" y="71"/>
      <point x="146" y="83" type="curve" smooth="yes"/>
      <point x="123" y="90"/>
      <point x="104" y="96"/>
      <point x="79" y="96" type="curve" smooth="yes"/>
      <point x="52" y="96"/>
      <point x="34" y="77"/>
      <point x="34" y="49" type="curve" smooth="yes"/>
      <point x="34" y="24"/>
      <point x="53" y="-10"/>
      <point x="99" y="-10" type="curve" smooth="yes"/>
      <point x="136" y="-10"/>
      <point x="165" y="-6"/>
      <point x="195" y="-6" type="curve" smooth="yes"/>
      <point x="252" y="-6"/>
      <point x="304" y="-20"/>
      <point x="358" y="-20" type="curve" smooth="yes"/>
      <point x="488" y="-20"/>
      <point x="633" y="20"/>
      <point x="633" y="180" type="curve" smooth="yes"/>
      <point x="633" y="343"/>
      <point x="513" y="423"/>
      <point x="279" y="423" type="curve" smooth="yes"/>
      <point x="225" y="423"/>
      <point x="184" y="425"/>
    </contour>
  </outline>
</glyph>
<glyph name="C" format="1">
  <advance width="527"/>
  <unicode hex="0043"/>
  <outline>
    <contour>
      <point x="339" y="728" type="curve" smooth="yes"/>
      <point x="249" y="728"/>
      <point x="157" y="689"/>
      <point x="110" y="609" type="curve" smooth="yes"/>
      <point x="70" y="542"/>
      <point x="36" y="459"/>
      <point x="36" y="351" type="curve" smooth="yes"/>
      <point x="36" y="79"/>
      <point x="164" y="-15"/>
      <point x="364" y="-15" type="curve" smooth="yes"/>
      <point x="387" y="-15"/>
      <point x="517" y="-12"/>
      <point x="517" y="31" type="curve" smooth="yes"/>
      <point x="517" y="74"/>
      <point x="493" y="95"/>
      <point x="460" y="95" type="curve" smooth="yes"/>
      <point x="425" y="95"/>
      <point x="405" y="69"/>
      <point x="333" y="69" type="curve" smooth="yes"/>
      <point x="158" y="69"/>
      <point x="123" y="189"/>
      <point x="123" y="353" type="curve" smooth="yes"/>
      <point x="123" y="496"/>
      <point x="191" y="651"/>
      <point x="318" y="651" type="curve" smooth="yes"/>
      <point x="365" y="651"/>
      <point x="379" y="633"/>
      <point x="389" y="624" type="curve" smooth="yes"/>
      <point x="400" y="615"/>
      <point x="410" y="607"/>
      <point x="422" y="607" type="curve" smooth="yes"/>
      <point x="455" y="607"/>
      <point x="472" y="642"/>
      <point x="472" y="656" type="curve" smooth="yes"/>
      <point x="472" y="672"/>
      <point x="472" y="705"/>
      <point x="423" y="722" type="curve"/>
      <point x="403" y="728"/>
      <point x="393" y="728"/>
    </contour>
  </outline>
</glyph>
<glyph name="D" format="1">
  <advance width="594"/>
  <unicode hex="0044"/>
  <outline>
    <contour>
      <point x="54" y="673" type="curve" smooth="yes"/>
      <point x="54" y="627"/>
      <point x="81" y="392"/>
      <point x="85" y="197" type="curve"/>
      <point x="80" y="181"/>
      <point x="68" y="168"/>
      <point x="68" y="151" type="curve" smooth="yes"/>
      <point x="68" y="113"/>
      <point x="108" y="89"/>
      <point x="126" y="89" type="curve" smooth="yes"/>
      <point x="158" y="89"/>
      <point x="166" y="136"/>
      <point x="166" y="171" type="curve" smooth="yes"/>
      <point x="166" y="254"/>
      <point x="149" y="331"/>
      <point x="149" y="408" type="curve" smooth="yes"/>
      <point x="149" y="450"/>
      <point x="149" y="491"/>
      <point x="149" y="523" type="curve" smooth="yes"/>
      <point x="149" y="562"/>
      <point x="148" y="586"/>
      <point x="148" y="618" type="curve"/>
      <point x="149" y="629"/>
      <point x="154" y="637"/>
      <point x="164" y="637" type="curve" smooth="yes"/>
      <point x="184" y="637"/>
      <point x="272" y="623"/>
      <point x="332" y="589" type="curve" smooth="yes"/>
      <point x="401" y="550"/>
      <point x="497" y="482"/>
      <point x="497" y="332" type="curve" smooth="yes"/>
      <point x="497" y="157"/>
      <point x="289" y="62"/>
      <point x="160" y="62" type="curve" smooth="yes"/>
      <point x="140" y="62"/>
      <point x="127" y="80"/>
      <point x="108" y="80" type="curve" smooth="yes"/>
      <point x="94" y="80"/>
      <point x="76" y="61"/>
      <point x="76" y="44" type="curve" smooth="yes"/>
      <point x="76" y="34"/>
      <point x="91" y="-16"/>
      <point x="122" y="-16" type="curve" smooth="yes"/>
      <point x="322" y="-16"/>
      <point x="570" y="99"/>
      <point x="568" y="317" type="curve"/>
      <point x="568" y="486"/>
      <point x="482" y="617"/>
      <point x="327" y="672" type="curve" smooth="yes"/>
      <point x="240" y="702"/>
      <point x="155" y="728"/>
      <point x="103" y="728" type="curve" smooth="yes"/>
      <point x="66" y="728"/>
      <point x="54" y="705"/>
    </contour>
  </outline>
</glyph>
<glyph name="E" format="1">
  <advance width="487"/>
  <unicode hex="0045"/>
  <outline>
    <contour>
      <point x="283" y="772" type="move" name="top"/>
    </contour>
    <contour>
      <point x="138" y="679" type="curve" smooth="yes"/>
      <point x="109" y="679"/>
      <point x="78" y="643"/>
      <point x="78" y="612" type="curve" smooth="yes"/>
      <point x="78" y="588"/>
      <point x="95" y="570"/>
      <point x="95" y="548" type="curve" smooth="yes"/>
      <point x="95" y="532"/>
      <point x="90" y="477"/>
      <point x="85" y="422" type="curve" smooth="yes"/>
      <point x="79" y="348"/>
      <point x="70" y="275"/>
      <point x="61" y="205" type="curve" smooth="yes"/>
      <point x="53" y="147"/>
      <point x="46" y="92"/>
      <point x="46" y="76" type="curve" smooth="yes"/>
      <point x="46" y="50"/>
      <point x="75" y="-23"/>
      <point x="117" y="-23" type="curve" smooth="yes"/>
      <point x="138" y="-23"/>
      <point x="152" y="-21"/>
      <point x="170" y="-18" type="curve" smooth="yes"/>
      <point x="203" y="-13"/>
      <point x="249" y="-7"/>
      <point x="375" y="-7" type="curve" smooth="yes"/>
      <point x="390" y="-7"/>
      <point x="421" y="2"/>
      <point x="421" y="24" type="curve" smooth="yes"/>
      <point x="421" y="62"/>
      <point x="360" y="97"/>
      <point x="342" y="97" type="curve" smooth="yes"/>
      <point x="324" y="97"/>
      <point x="310" y="78"/>
      <point x="295" y="73" type="curve" smooth="yes"/>
      <point x="269" y="69"/>
      <point x="243" y="67"/>
      <point x="221" y="67" type="curve" smooth="yes"/>
      <point x="199" y="67"/>
      <point x="157" y="70"/>
      <point x="151" y="74" type="curve" smooth="yes"/>
      <point x="148" y="75"/>
      <point x="139" y="84"/>
      <point x="139" y="111" type="curve" smooth="yes"/>
      <point x="139" y="135"/>
      <point x="146" y="202"/>
      <point x="153" y="265" type="curve" smooth="yes"/>
      <point x="157" y="304"/>
      <point x="161" y="342"/>
      <point x="164" y="380" type="curve" smooth="yes"/>
      <point x="168" y="422"/>
      <point x="172" y="466"/>
      <point x="177" y="508" type="curve" smooth="yes"/>
      <point x="183" y="558"/>
      <point x="188" y="610"/>
      <point x="188" y="626" type="curve" smooth="yes"/>
      <point x="188" y="660"/>
      <point x="165" y="679"/>
    </contour>
    <contour>
      <point x="399" y="731" type="curve" smooth="yes"/>
      <point x="344" y="731"/>
      <point x="296" y="713"/>
      <point x="246" y="713" type="curve" smooth="yes"/>
      <point x="225" y="713"/>
      <point x="209" y="719"/>
      <point x="191" y="719" type="curve" smooth="yes"/>
      <point x="177" y="719"/>
      <point x="148" y="693"/>
      <point x="148" y="656" type="curve" smooth="yes"/>
      <point x="148" y="635"/>
      <point x="155" y="612"/>
      <point x="196" y="612" type="curve" smooth="yes"/>
      <point x="249" y="612"/>
      <point x="293" y="650"/>
      <point x="345" y="650" type="curve" smooth="yes"/>
      <point x="373" y="650"/>
      <point x="396" y="643"/>
      <point x="421" y="643" type="curve" smooth="yes"/>
      <point x="442" y="643"/>
      <point x="467" y="657"/>
      <point x="467" y="679" type="curve" smooth="yes"/>
      <point x="467" y="700"/>
      <point x="455" y="731"/>
    </contour>
    <contour>
      <point x="368" y="404" type="curve" smooth="yes"/>
      <point x="337" y="404"/>
      <point x="307" y="400"/>
      <point x="277" y="395" type="curve" smooth="yes"/>
      <point x="252" y="391"/>
      <point x="226" y="387"/>
      <point x="201" y="386" type="curve" smooth="yes"/>
      <point x="157" y="385"/>
      <point x="132" y="353"/>
      <point x="132" y="337" type="curve" smooth="yes"/>
      <point x="132" y="319"/>
      <point x="153" y="285"/>
      <point x="180" y="285" type="curve" smooth="yes"/>
      <point x="236" y="285"/>
      <point x="283" y="322"/>
      <point x="338" y="322" type="curve" smooth="yes"/>
      <point x="360" y="322"/>
      <point x="378" y="319"/>
      <point x="396" y="319" type="curve" smooth="yes"/>
      <point x="409" y="319"/>
      <point x="426" y="331"/>
      <point x="426" y="344" type="curve" smooth="yes"/>
      <point x="426" y="355"/>
      <point x="426" y="404"/>
    </contour>
  </outline>
</glyph>
<glyph name="F" format="1">
  <advance width="497"/>
  <unicode hex="0046"/>
  <outline>
    <contour>
      <point x="421" y="731" type="curve" smooth="yes"/>
      <point x="374" y="731"/>
      <point x="230" y="708"/>
      <point x="190" y="695" type="curve" smooth="yes"/>
      <point x="165" y="686"/>
      <point x="140" y="667"/>
      <point x="126" y="651" type="curve"/>
      <point x="84" y="642"/>
      <point x="81" y="599"/>
      <point x="81" y="578" type="curve" smooth="yes"/>
      <point x="81" y="523"/>
      <point x="92" y="474"/>
      <point x="92" y="425" type="curve" smooth="yes"/>
      <point x="92" y="405"/>
      <point x="81" y="317"/>
      <point x="70" y="234" type="curve" smooth="yes"/>
      <point x="60" y="158"/>
      <point x="51" y="86"/>
      <point x="51" y="69" type="curve" smooth="yes"/>
      <point x="51" y="32"/>
      <point x="70" y="-3"/>
      <point x="91" y="-3" type="curve" smooth="yes"/>
      <point x="110" y="-3"/>
      <point x="149" y="18"/>
      <point x="149" y="34" type="curve" smooth="yes"/>
      <point x="149" y="64"/>
      <point x="142" y="90"/>
      <point x="142" y="117" type="curve" smooth="yes"/>
      <point x="142" y="167"/>
      <point x="152" y="237"/>
      <point x="161" y="302" type="curve" smooth="yes"/>
      <point x="170" y="364"/>
      <point x="179" y="434"/>
      <point x="179" y="480" type="curve" smooth="yes"/>
      <point x="179" y="534"/>
      <point x="180" y="589"/>
      <point x="183" y="595" type="curve" smooth="yes"/>
      <point x="194" y="622"/>
      <point x="321" y="642"/>
      <point x="366" y="642" type="curve" smooth="yes"/>
      <point x="392" y="642"/>
      <point x="412" y="624"/>
      <point x="436" y="624" type="curve" smooth="yes"/>
      <point x="458" y="624"/>
      <point x="487" y="643"/>
      <point x="487" y="664" type="curve" smooth="yes"/>
      <point x="487" y="683"/>
      <point x="482" y="731"/>
    </contour>
    <contour>
      <point x="418" y="425" type="curve" smooth="yes"/>
      <point x="408" y="425"/>
      <point x="388" y="418"/>
      <point x="373" y="413" type="curve" smooth="yes"/>
      <point x="315" y="394"/>
      <point x="251" y="392"/>
      <point x="192" y="392" type="curve" smooth="yes"/>
      <point x="172" y="392"/>
      <point x="125" y="392"/>
      <point x="114" y="398" type="curve"/>
      <point x="85" y="396"/>
      <point x="65" y="369"/>
      <point x="65" y="346" type="curve" smooth="yes"/>
      <point x="65" y="309"/>
      <point x="111" y="295"/>
      <point x="137" y="295" type="curve" smooth="yes"/>
      <point x="164" y="295"/>
      <point x="181" y="300"/>
      <point x="200" y="306" type="curve" smooth="yes"/>
      <point x="228" y="315"/>
      <point x="262" y="325"/>
      <point x="409" y="325" type="curve"/>
      <point x="439" y="325"/>
      <point x="463" y="345"/>
      <point x="463" y="366" type="curve" smooth="yes"/>
      <point x="463" y="389"/>
      <point x="449" y="425"/>
    </contour>
  </outline>
</glyph>
<glyph name="G" format="1">
  <advance width="635"/>
  <unicode hex="0047"/>
  <outline>
    <contour>
      <point x="425" y="728" type="curve" smooth="yes"/>
      <point x="269" y="728"/>
      <point x="35" y="469"/>
      <point x="35" y="296" type="curve" smooth="yes"/>
      <point x="35" y="78"/>
      <point x="172" y="-7"/>
      <point x="419" y="-7" type="curve" smooth="yes"/>
      <point x="463" y="-7"/>
      <point x="484" y="13"/>
      <point x="484" y="26" type="curve" smooth="yes"/>
      <point x="484" y="37"/>
      <point x="472" y="92"/>
      <point x="442" y="92" type="curve" smooth="yes"/>
      <point x="428" y="92"/>
      <point x="418" y="70"/>
      <point x="405" y="70" type="curve" smooth="yes"/>
      <point x="254" y="70"/>
      <point x="118" y="111"/>
      <point x="118" y="278" type="curve" smooth="yes"/>
      <point x="118" y="347"/>
      <point x="170" y="461"/>
      <point x="231" y="521" type="curve" smooth="yes"/>
      <point x="293" y="582"/>
      <point x="367" y="637"/>
      <point x="414" y="637" type="curve" smooth="yes"/>
      <point x="430" y="637"/>
      <point x="452" y="621"/>
      <point x="465" y="621" type="curve" smooth="yes"/>
      <point x="475" y="621"/>
      <point x="507" y="637"/>
      <point x="507" y="665" type="curve" smooth="yes"/>
      <point x="507" y="692"/>
      <point x="468" y="728"/>
    </contour>
    <contour>
      <point x="595" y="99" type="curve" smooth="yes"/>
      <point x="595" y="163"/>
      <point x="589" y="202"/>
      <point x="589" y="241" type="curve" smooth="yes"/>
      <point x="589" y="319"/>
      <point x="551" y="384"/>
      <point x="478" y="384" type="curve" smooth="yes"/>
      <point x="357" y="384"/>
      <point x="343" y="400"/>
      <point x="279" y="400" type="curve" smooth="yes"/>
      <point x="239" y="400"/>
      <point x="193" y="377"/>
      <point x="193" y="350" type="curve" smooth="yes"/>
      <point x="193" y="325"/>
      <point x="210" y="295"/>
      <point x="232" y="295" type="curve" smooth="yes"/>
      <point x="260" y="295"/>
      <point x="276" y="315"/>
      <point x="305" y="315" type="curve" smooth="yes"/>
      <point x="327" y="315"/>
      <point x="463" y="316"/>
      <point x="475" y="302" type="curve" smooth="yes"/>
      <point x="495" y="281"/>
      <point x="508" y="267"/>
      <point x="508" y="185" type="curve" smooth="yes"/>
      <point x="508" y="90"/>
      <point x="497" y="100"/>
      <point x="497" y="64" type="curve" smooth="yes"/>
      <point x="497" y="34"/>
      <point x="525" y="11"/>
      <point x="561" y="11" type="curve" smooth="yes"/>
      <point x="594" y="11"/>
      <point x="595" y="64"/>
    </contour>
  </outline>
</glyph>
<glyph name="H" format="1">
  <advance width="634"/>
  <unicode hex="0048"/>
  <outline>
    <contour>
      <point x="293" y="784" type="move" name="top"/>
    </contour>
    <contour>
      <point x="121" y="713" type="curve" smooth="yes"/>
      <point x="102" y="713"/>
      <point x="68" y="676"/>
      <point x="68" y="661" type="curve" smooth="yes"/>
      <point x="68" y="655"/>
      <point x="70" y="633"/>
      <point x="73" y="610" type="curve" smooth="yes"/>
      <point x="78" y="567"/>
      <point x="84" y="507"/>
      <point x="84" y="481" type="curve" smooth="yes"/>
      <point x="84" y="438"/>
      <point x="76" y="157"/>
      <point x="72" y="126" type="curve"/>
      <point x="66" y="110"/>
      <point x="46" y="94"/>
      <point x="46" y="78" type="curve" smooth="yes"/>
      <point x="46" y="66"/>
      <point x="76" y="13"/>
      <point x="103" y="13" type="curve" smooth="yes"/>
      <point x="142" y="13"/>
      <point x="161" y="65"/>
      <point x="161" y="100" type="curve" smooth="yes"/>
      <point x="161" y="142"/>
      <point x="166" y="502"/>
      <point x="174" y="575" type="curve" smooth="yes"/>
      <point x="176" y="594"/>
      <point x="185" y="609"/>
      <point x="185" y="626" type="curve" smooth="yes"/>
      <point x="185" y="642"/>
      <point x="166" y="713"/>
    </contour>
    <contour>
      <point x="472" y="735" type="curve" smooth="yes"/>
      <point x="449" y="735"/>
      <point x="427" y="723"/>
      <point x="427" y="691" type="curve" smooth="yes"/>
      <point x="427" y="675"/>
      <point x="432" y="658"/>
      <point x="438" y="646" type="curve" smooth="yes"/>
      <point x="453" y="613"/>
      <point x="473" y="559"/>
      <point x="473" y="427" type="curve" smooth="yes"/>
      <point x="473" y="341"/>
      <point x="468" y="198"/>
      <point x="468" y="60" type="curve" smooth="yes"/>
      <point x="468" y="22"/>
      <point x="492" y="-3"/>
      <point x="522" y="-3" type="curve" smooth="yes"/>
      <point x="553" y="-3"/>
      <point x="562" y="24"/>
      <point x="562" y="64" type="curve" smooth="yes"/>
      <point x="562" y="74"/>
      <point x="561" y="160"/>
      <point x="560" y="228" type="curve" smooth="yes"/>
      <point x="559" y="339"/>
      <point x="558" y="471"/>
      <point x="558" y="501" type="curve" smooth="yes"/>
      <point x="558" y="652"/>
      <point x="520" y="735"/>
    </contour>
    <contour>
      <point x="316" y="365" type="curve" smooth="yes"/>
      <point x="241" y="365"/>
      <point x="192" y="367"/>
      <point x="144" y="367" type="curve" smooth="yes"/>
      <point x="88" y="367"/>
      <point x="60" y="331"/>
      <point x="60" y="311" type="curve" smooth="yes"/>
      <point x="60" y="288"/>
      <point x="97" y="278"/>
      <point x="138" y="278" type="curve" smooth="yes"/>
      <point x="200" y="278"/>
      <point x="258" y="289"/>
      <point x="316" y="289" type="curve" smooth="yes"/>
      <point x="391" y="289"/>
      <point x="447" y="286"/>
      <point x="503" y="286" type="curve" smooth="yes"/>
      <point x="525" y="286"/>
      <point x="568" y="290"/>
      <point x="568" y="330" type="curve" smooth="yes"/>
      <point x="568" y="372"/>
      <point x="527" y="372"/>
      <point x="513" y="372" type="curve" smooth="yes"/>
      <point x="445" y="372"/>
      <point x="380" y="365"/>
    </contour>
  </outline>
</glyph>
<glyph name="I" format="1">
  <advance width="241"/>
  <unicode hex="0049"/>
  <outline>
    <contour>
      <point x="81" y="787" type="move" name="top"/>
    </contour>
    <contour>
      <point x="86" y="731" type="curve" smooth="yes"/>
      <point x="64" y="731"/>
      <point x="39" y="703"/>
      <point x="39" y="681" type="curve" smooth="yes"/>
      <point x="39" y="663"/>
      <point x="44" y="631"/>
      <point x="51" y="590" type="curve" smooth="yes"/>
      <point x="65" y="506"/>
      <point x="85" y="376"/>
      <point x="85" y="239" type="curve" smooth="yes"/>
      <point x="85" y="152"/>
      <point x="76" y="100"/>
      <point x="70" y="80" type="curve" smooth="yes"/>
      <point x="67" y="72"/>
      <point x="66" y="65"/>
      <point x="66" y="55" type="curve" smooth="yes"/>
      <point x="66" y="33"/>
      <point x="98" y="-9"/>
      <point x="132" y="-9" type="curve" smooth="yes"/>
      <point x="167" y="-9"/>
      <point x="175" y="47"/>
      <point x="175" y="72" type="curve" smooth="yes"/>
      <point x="175" y="91"/>
      <point x="171" y="197"/>
      <point x="167" y="291" type="curve" smooth="yes"/>
      <point x="166" y="320"/>
      <point x="165" y="356"/>
      <point x="164" y="381" type="curve" smooth="yes"/>
      <point x="161" y="482"/>
      <point x="156" y="591"/>
      <point x="146" y="685" type="curve" smooth="yes"/>
      <point x="143" y="711"/>
      <point x="111" y="731"/>
    </contour>
  </outline>
</glyph>
<glyph name="J" format="1">
  <advance width="609"/>
  <unicode hex="004A"/>
  <outline>
    <contour>
      <point x="361" y="772" type="move" name="top"/>
    </contour>
    <contour>
      <point x="37" y="115" type="curve" smooth="yes"/>
      <point x="10" y="115"/>
      <point x="0" y="78"/>
      <point x="0" y="54" type="curve" smooth="yes"/>
      <point x="0" y="32"/>
      <point x="16" y="-7"/>
      <point x="55" y="-7" type="curve" smooth="yes"/>
      <point x="121" y="-7"/>
      <point x="182" y="-33"/>
      <point x="245" y="-33" type="curve" smooth="yes"/>
      <point x="283" y="-33"/>
      <point x="341" y="-19"/>
      <point x="363" y="-2" type="curve" smooth="yes"/>
      <point x="435" y="51"/>
      <point x="442" y="82"/>
      <point x="442" y="171" type="curve" smooth="yes"/>
      <point x="442" y="182"/>
      <point x="440" y="214"/>
      <point x="437" y="256" type="curve" smooth="yes"/>
      <point x="431" y="336"/>
      <point x="424" y="454"/>
      <point x="424" y="535" type="curve" smooth="yes"/>
      <point x="424" y="566"/>
      <point x="425" y="593"/>
      <point x="428" y="609" type="curve" smooth="yes"/>
      <point x="439" y="666"/>
      <point x="410" y="704"/>
      <point x="377" y="704" type="curve" smooth="yes"/>
      <point x="345" y="704"/>
      <point x="318" y="679"/>
      <point x="318" y="648" type="curve" smooth="yes"/>
      <point x="318" y="645"/>
      <point x="327" y="607"/>
      <point x="328" y="604" type="curve" smooth="yes"/>
      <point x="353" y="458"/>
      <point x="353" y="247"/>
      <point x="353" y="210" type="curve" smooth="yes"/>
      <point x="353" y="159"/>
      <point x="359" y="42"/>
      <point x="234" y="42" type="curve" smooth="yes"/>
      <point x="190" y="42"/>
      <point x="136" y="64"/>
      <point x="88" y="89" type="curve" smooth="yes"/>
      <point x="71" y="98"/>
      <point x="56" y="115"/>
    </contour>
    <contour>
      <point x="132" y="727" type="curve" smooth="yes"/>
      <point x="112" y="727"/>
      <point x="94" y="697"/>
      <point x="94" y="673" type="curve" smooth="yes"/>
      <point x="94" y="648"/>
      <point x="133" y="618"/>
      <point x="152" y="618" type="curve" smooth="yes"/>
      <point x="170" y="618"/>
      <point x="184" y="623"/>
      <point x="199" y="628" type="curve" smooth="yes"/>
      <point x="253" y="645"/>
      <point x="309" y="641"/>
      <point x="360" y="641" type="curve"/>
      <point x="421" y="641"/>
      <point x="454" y="639"/>
      <point x="485" y="637" type="curve" smooth="yes"/>
      <point x="515" y="635"/>
      <point x="544" y="634"/>
      <point x="578" y="634" type="curve" smooth="yes"/>
      <point x="603" y="634"/>
      <point x="609" y="662"/>
      <point x="609" y="674" type="curve" smooth="yes"/>
      <point x="609" y="686"/>
      <point x="590" y="724"/>
      <point x="548" y="724" type="curve" smooth="yes"/>
      <point x="515" y="724"/>
      <point x="489" y="722"/>
      <point x="463" y="720" type="curve" smooth="yes"/>
      <point x="438" y="718"/>
      <point x="413" y="717"/>
      <point x="384" y="717" type="curve" smooth="yes"/>
      <point x="328" y="717"/>
      <point x="285" y="719"/>
      <point x="245" y="722" type="curve" smooth="yes"/>
      <point x="208" y="724"/>
      <point x="174" y="727"/>
    </contour>
  </outline>
</glyph>
<glyph name="K" format="1">
  <advance width="547"/>
  <unicode hex="004B"/>
  <outline>
    <contour>
      <point x="117" y="731" type="curve" smooth="yes"/>
      <point x="108" y="731"/>
      <point x="103" y="728"/>
      <point x="97" y="725" type="curve" smooth="yes"/>
      <point x="92" y="723"/>
      <point x="97" y="723"/>
      <point x="79" y="719" type="curve" smooth="yes"/>
      <point x="66" y="716"/>
      <point x="51" y="691"/>
      <point x="51" y="673" type="curve" smooth="yes"/>
      <point x="51" y="663"/>
      <point x="55" y="651"/>
      <point x="59" y="639" type="curve" smooth="yes"/>
      <point x="71" y="600"/>
      <point x="93" y="519"/>
      <point x="93" y="372" type="curve" smooth="yes"/>
      <point x="93" y="287"/>
      <point x="77" y="182"/>
      <point x="67" y="116" type="curve" smooth="yes"/>
      <point x="63" y="90"/>
      <point x="59" y="61"/>
      <point x="59" y="52" type="curve" smooth="yes"/>
      <point x="59" y="24"/>
      <point x="73" y="-7"/>
      <point x="98" y="-7" type="curve" smooth="yes"/>
      <point x="134" y="-7"/>
      <point x="160" y="7"/>
      <point x="160" y="37" type="curve" smooth="yes"/>
      <point x="160" y="56"/>
      <point x="155" y="72"/>
      <point x="155" y="89" type="curve" smooth="yes"/>
      <point x="155" y="135"/>
      <point x="161" y="182"/>
      <point x="167" y="230" type="curve" smooth="yes"/>
      <point x="173" y="278"/>
      <point x="179" y="327"/>
      <point x="179" y="374" type="curve" smooth="yes"/>
      <point x="179" y="646"/>
      <point x="157" y="731"/>
    </contour>
    <contour>
      <point x="466" y="731" type="curve" smooth="yes"/>
      <point x="432" y="731"/>
      <point x="413" y="681"/>
      <point x="395" y="663" type="curve" smooth="yes"/>
      <point x="358" y="609"/>
      <point x="288" y="551"/>
      <point x="222" y="495" type="curve" smooth="yes"/>
      <point x="141" y="425"/>
      <point x="75" y="362"/>
      <point x="75" y="319" type="curve" smooth="yes"/>
      <point x="75" y="309"/>
      <point x="76" y="292"/>
      <point x="79" y="286" type="curve"/>
      <point x="104" y="249"/>
      <point x="145" y="239"/>
      <point x="174" y="231" type="curve" smooth="yes"/>
      <point x="217" y="219"/>
      <point x="290" y="173"/>
      <point x="317" y="156" type="curve" smooth="yes"/>
      <point x="344" y="139"/>
      <point x="413" y="80"/>
      <point x="430" y="60" type="curve" smooth="yes"/>
      <point x="436" y="52"/>
      <point x="478" y="-4"/>
      <point x="506" y="-4" type="curve" smooth="yes"/>
      <point x="524" y="-4"/>
      <point x="557" y="19"/>
      <point x="557" y="45" type="curve" smooth="yes"/>
      <point x="557" y="82"/>
      <point x="532" y="90"/>
      <point x="497" y="114" type="curve" smooth="yes"/>
      <point x="478" y="127"/>
      <point x="461" y="144"/>
      <point x="444" y="158" type="curve" smooth="yes"/>
      <point x="390" y="199"/>
      <point x="308" y="275"/>
      <point x="178" y="332" type="curve"/>
      <point x="226" y="388"/>
      <point x="341" y="504"/>
      <point x="473" y="604" type="curve" smooth="yes"/>
      <point x="486" y="617"/>
      <point x="513" y="630"/>
      <point x="513" y="651" type="curve" smooth="yes"/>
      <point x="513" y="672"/>
      <point x="504" y="731"/>
    </contour>
  </outline>
</glyph>
<glyph name="L" format="1">
  <advance width="487"/>
  <unicode hex="004C"/>
  <outline>
    <contour>
      <point x="145" y="728" type="curve" smooth="yes"/>
      <point x="122" y="728"/>
      <point x="103" y="696"/>
      <point x="103" y="673" type="curve" smooth="yes"/>
      <point x="103" y="642"/>
      <point x="112" y="615"/>
      <point x="112" y="586" type="curve" smooth="yes"/>
      <point x="112" y="540"/>
      <point x="98" y="445"/>
      <point x="83" y="345" type="curve" smooth="yes"/>
      <point x="67" y="238"/>
      <point x="50" y="126"/>
      <point x="50" y="66" type="curve" smooth="yes"/>
      <point x="50" y="11"/>
      <point x="83" y="-13"/>
      <point x="99" y="-13" type="curve" smooth="yes"/>
      <point x="145" y="-13"/>
      <point x="143" y="3"/>
      <point x="377" y="3" type="curve" smooth="yes"/>
      <point x="389" y="3"/>
      <point x="422" y="-9"/>
      <point x="435" y="-9" type="curve" smooth="yes"/>
      <point x="459" y="-9"/>
      <point x="487" y="8"/>
      <point x="487" y="24" type="curve" smooth="yes"/>
      <point x="487" y="36"/>
      <point x="477" y="83"/>
      <point x="434" y="83" type="curve" smooth="yes"/>
      <point x="392" y="83"/>
      <point x="354" y="75"/>
      <point x="315" y="75" type="curve" smooth="yes"/>
      <point x="253" y="75"/>
      <point x="215" y="79"/>
      <point x="166" y="79" type="curve" smooth="yes"/>
      <point x="153" y="79"/>
      <point x="136" y="87"/>
      <point x="136" y="110" type="curve" smooth="yes"/>
      <point x="136" y="271"/>
      <point x="211" y="517"/>
      <point x="211" y="652" type="curve" smooth="yes"/>
      <point x="211" y="688"/>
      <point x="182" y="728"/>
    </contour>
  </outline>
</glyph>
<glyph name="M" format="1">
  <advance width="900"/>
  <unicode hex="004D"/>
  <outline>
    <contour>
      <point x="124" y="718" type="curve" smooth="yes"/>
      <point x="112" y="718"/>
      <point x="72" y="674"/>
      <point x="72" y="646" type="curve" smooth="yes"/>
      <point x="72" y="636"/>
      <point x="73" y="622"/>
      <point x="75" y="606" type="curve" smooth="yes"/>
      <point x="79" y="564"/>
      <point x="78" y="489"/>
      <point x="78" y="337" type="curve" smooth="yes"/>
      <point x="78" y="262"/>
      <point x="72" y="175"/>
      <point x="69" y="121" type="curve" smooth="yes"/>
      <point x="67" y="98"/>
      <point x="66" y="54"/>
      <point x="66" y="47" type="curve" smooth="yes"/>
      <point x="66" y="27"/>
      <point x="95" y="0"/>
      <point x="123" y="0" type="curve" smooth="yes"/>
      <point x="158" y="0"/>
      <point x="160" y="44"/>
      <point x="160" y="62" type="curve" smooth="yes"/>
      <point x="160" y="109"/>
      <point x="152" y="153"/>
      <point x="152" y="198" type="curve" smooth="yes"/>
      <point x="152" y="338"/>
      <point x="160" y="423"/>
      <point x="165" y="611" type="curve"/>
      <point x="219" y="530"/>
      <point x="239" y="513"/>
      <point x="301" y="404" type="curve" smooth="yes"/>
      <point x="347" y="323"/>
      <point x="424" y="199"/>
      <point x="456" y="199" type="curve" smooth="yes"/>
      <point x="469" y="199"/>
      <point x="488" y="197"/>
      <point x="506" y="223" type="curve"/>
      <point x="538" y="279"/>
      <point x="568" y="346"/>
      <point x="611" y="418" type="curve" smooth="yes"/>
      <point x="656" y="494"/>
      <point x="679" y="545"/>
      <point x="712" y="601" type="curve"/>
      <point x="729" y="500"/>
      <point x="746" y="386"/>
      <point x="746" y="283" type="curve" smooth="yes"/>
      <point x="746" y="100"/>
      <point x="744" y="77"/>
      <point x="744" y="36" type="curve" smooth="yes"/>
      <point x="744" y="21"/>
      <point x="759" y="-15"/>
      <point x="794" y="-15" type="curve" smooth="yes"/>
      <point x="817" y="-15"/>
      <point x="834" y="13"/>
      <point x="834" y="37" type="curve" smooth="yes"/>
      <point x="834" y="295"/>
      <point x="812" y="438"/>
      <point x="810" y="460" type="curve" smooth="yes"/>
      <point x="801" y="533"/>
      <point x="792" y="596"/>
      <point x="802" y="668" type="curve" smooth="yes"/>
      <point x="807" y="702"/>
      <point x="756" y="728"/>
      <point x="722" y="728" type="curve" smooth="yes"/>
      <point x="689" y="728"/>
      <point x="660" y="680"/>
      <point x="651" y="657" type="curve" smooth="yes"/>
      <point x="610" y="554"/>
      <point x="530" y="425"/>
      <point x="458" y="310" type="curve"/>
      <point x="399" y="396"/>
      <point x="347" y="475"/>
      <point x="298" y="554" type="curve" smooth="yes"/>
      <point x="253" y="629"/>
      <point x="198" y="718"/>
    </contour>
  </outline>
</glyph>
<glyph name="N" format="1">
  <advance width="733"/>
  <unicode hex="004E"/>
  <outline>
    <contour>
      <point x="361" y="782" type="move" name="top"/>
    </contour>
    <contour>
      <point x="177" y="722" type="curve" smooth="yes"/>
      <point x="144" y="722"/>
      <point x="103" y="690"/>
      <point x="103" y="651" type="curve" smooth="yes"/>
      <point x="103" y="510"/>
      <point x="85" y="388"/>
      <point x="75" y="243" type="curve" smooth="yes"/>
      <point x="70" y="177"/>
      <point x="57" y="94"/>
      <point x="57" y="60" type="curve" smooth="yes"/>
      <point x="57" y="22"/>
      <point x="93" y="-7"/>
      <point x="118" y="-7" type="curve" smooth="yes"/>
      <point x="144" y="-7"/>
      <point x="166" y="33"/>
      <point x="166" y="60" type="curve" smooth="yes"/>
      <point x="166" y="82"/>
      <point x="159" y="100"/>
      <point x="159" y="119" type="curve" smooth="yes"/>
      <point x="159" y="284"/>
      <point x="170" y="456"/>
      <point x="204" y="610" type="curve"/>
      <point x="325" y="464"/>
      <point x="434" y="276"/>
      <point x="532" y="99" type="curve" smooth="yes"/>
      <point x="564" y="39"/>
      <point x="588" y="-5"/>
      <point x="609" y="-5" type="curve" smooth="yes"/>
      <point x="648" y="-5"/>
      <point x="673" y="35"/>
      <point x="673" y="57" type="curve" smooth="yes"/>
      <point x="673" y="96"/>
      <point x="658" y="130"/>
      <point x="658" y="166" type="curve" smooth="yes"/>
      <point x="658" y="353"/>
      <point x="650" y="523"/>
      <point x="646" y="612" type="curve" smooth="yes"/>
      <point x="645" y="644"/>
      <point x="644" y="666"/>
      <point x="644" y="674" type="curve" smooth="yes"/>
      <point x="644" y="702"/>
      <point x="611" y="731"/>
      <point x="593" y="731" type="curve" smooth="yes"/>
      <point x="576" y="731"/>
      <point x="539" y="714"/>
      <point x="539" y="682" type="curve" smooth="yes"/>
      <point x="539" y="661"/>
      <point x="546" y="640"/>
      <point x="549" y="621" type="curve" smooth="yes"/>
      <point x="560" y="514"/>
      <point x="568" y="343"/>
      <point x="573" y="189" type="curve"/>
      <point x="553" y="221"/>
      <point x="530" y="258"/>
      <point x="502" y="303" type="curve" smooth="yes"/>
      <point x="442" y="400"/>
      <point x="289" y="722"/>
    </contour>
  </outline>
</glyph>
<glyph name="O" format="1">
  <advance width="608"/>
  <unicode hex="004F"/>
  <outline>
    <contour>
      <point x="164" y="692" type="curve"/>
      <point x="116" y="692"/>
      <point x="31" y="519"/>
      <point x="31" y="343" type="curve" smooth="yes"/>
      <point x="31" y="202"/>
      <point x="109" y="-7"/>
      <point x="309" y="-7" type="curve" smooth="yes"/>
      <point x="452" y="-7"/>
      <point x="577" y="128"/>
      <point x="577" y="319" type="curve" smooth="yes"/>
      <point x="577" y="514"/>
      <point x="499" y="587"/>
      <point x="421" y="672" type="curve" smooth="yes"/>
      <point x="385" y="712"/>
      <point x="328" y="728"/>
      <point x="275" y="728" type="curve" smooth="yes"/>
      <point x="239" y="728"/>
      <point x="184" y="714"/>
    </contour>
    <contour>
      <point x="262" y="655" type="curve" smooth="yes"/>
      <point x="305" y="655"/>
      <point x="361" y="634"/>
      <point x="395" y="604" type="curve" smooth="yes"/>
      <point x="471" y="537"/>
      <point x="500" y="409"/>
      <point x="500" y="336" type="curve" smooth="yes"/>
      <point x="500" y="174"/>
      <point x="414" y="70"/>
      <point x="301" y="70" type="curve" smooth="yes"/>
      <point x="169" y="70"/>
      <point x="115" y="221"/>
      <point x="115" y="326" type="curve" smooth="yes"/>
      <point x="115" y="442"/>
      <point x="131" y="528"/>
      <point x="178" y="584" type="curve" smooth="yes"/>
      <point x="182" y="588"/>
      <point x="188" y="593"/>
      <point x="195" y="597" type="curve" smooth="yes"/>
      <point x="207" y="604"/>
      <point x="220" y="613"/>
      <point x="220" y="624" type="curve" smooth="yes"/>
      <point x="220" y="629"/>
      <point x="219" y="637"/>
      <point x="215" y="646" type="curve"/>
      <point x="230" y="651"/>
      <point x="246" y="655"/>
    </contour>
  </outline>
</glyph>
<glyph name="P" format="1">
  <advance width="568"/>
  <unicode hex="0050"/>
  <outline>
    <contour>
      <point x="217" y="724" type="curve" smooth="yes"/>
      <point x="176" y="724"/>
      <point x="70" y="701"/>
      <point x="70" y="660" type="curve" smooth="yes"/>
      <point x="70" y="636"/>
      <point x="101" y="603"/>
      <point x="130" y="603" type="curve" smooth="yes"/>
      <point x="157" y="603"/>
      <point x="159" y="632"/>
      <point x="176" y="641" type="curve"/>
      <point x="182" y="646"/>
      <point x="217" y="649"/>
      <point x="234" y="649" type="curve" smooth="yes"/>
      <point x="322" y="649"/>
      <point x="469" y="570"/>
      <point x="469" y="498" type="curve" smooth="yes"/>
      <point x="469" y="415"/>
      <point x="333" y="356"/>
      <point x="132" y="356" type="curve" smooth="yes"/>
      <point x="113" y="356"/>
      <point x="124" y="360"/>
      <point x="110" y="360" type="curve" smooth="yes"/>
      <point x="78" y="360"/>
      <point x="54" y="342"/>
      <point x="54" y="325" type="curve" smooth="yes"/>
      <point x="54" y="296"/>
      <point x="81" y="268"/>
      <point x="113" y="268" type="curve" smooth="yes"/>
      <point x="145" y="268"/>
      <point x="148" y="293"/>
      <point x="178" y="293" type="curve" smooth="yes"/>
      <point x="193" y="293"/>
      <point x="552" y="292"/>
      <point x="552" y="504" type="curve" smooth="yes"/>
      <point x="552" y="565"/>
      <point x="455" y="724"/>
    </contour>
    <contour>
      <point x="116" y="633" type="curve" smooth="yes"/>
      <point x="101" y="633"/>
      <point x="63" y="597"/>
      <point x="63" y="577" type="curve" smooth="yes"/>
      <point x="63" y="550"/>
      <point x="81" y="540"/>
      <point x="83" y="495" type="curve" smooth="yes"/>
      <point x="84" y="467"/>
      <point x="81" y="196"/>
      <point x="65" y="111" type="curve"/>
      <point x="62" y="84"/>
      <point x="32" y="67"/>
      <point x="32" y="41" type="curve" smooth="yes"/>
      <point x="32" y="8"/>
      <point x="66" y="-13"/>
      <point x="98" y="-13" type="curve" smooth="yes"/>
      <point x="136" y="-13"/>
      <point x="145" y="49"/>
      <point x="149" y="82" type="curve" smooth="yes"/>
      <point x="152" y="109"/>
      <point x="164" y="480"/>
      <point x="164" y="522" type="curve" smooth="yes"/>
      <point x="164" y="543"/>
      <point x="171" y="562"/>
      <point x="171" y="582" type="curve" smooth="yes"/>
      <point x="171" y="601"/>
      <point x="138" y="633"/>
    </contour>
  </outline>
</glyph>
<glyph name="Q" format="1">
  <advance width="600"/>
  <unicode hex="0051"/>
  <outline>
    <contour>
      <point x="31" y="227" type="curve" smooth="yes"/>
      <point x="31" y="84"/>
      <point x="106" y="-22"/>
      <point x="208" y="-22" type="curve" smooth="yes"/>
      <point x="425" y="-22"/>
      <point x="569" y="206"/>
      <point x="569" y="299" type="curve" smooth="yes"/>
      <point x="569" y="522"/>
      <point x="437" y="731"/>
      <point x="388" y="731" type="curve" smooth="yes"/>
      <point x="348" y="731"/>
      <point x="210" y="671"/>
      <point x="197" y="625" type="curve"/>
      <point x="95" y="609"/>
      <point x="31" y="358"/>
    </contour>
    <contour>
      <point x="270" y="566" type="line"/>
      <point x="297" y="566"/>
      <point x="321" y="598"/>
      <point x="334" y="615" type="curve" smooth="yes"/>
      <point x="345" y="629"/>
      <point x="361" y="642"/>
      <point x="379" y="642" type="curve" smooth="yes"/>
      <point x="432" y="642"/>
      <point x="491" y="454"/>
      <point x="491" y="335" type="curve" smooth="yes"/>
      <point x="491" y="196"/>
      <point x="352" y="64"/>
      <point x="216" y="64" type="curve" smooth="yes"/>
      <point x="142" y="64"/>
      <point x="117" y="135"/>
      <point x="117" y="236" type="curve" smooth="yes"/>
      <point x="117" y="336"/>
      <point x="172" y="538"/>
      <point x="242" y="556" type="curve" smooth="yes"/>
      <point x="249" y="558"/>
      <point x="255" y="561"/>
      <point x="260" y="566" type="curve"/>
    </contour>
    <contour>
      <point x="525" y="-63" type="curve" smooth="yes"/>
      <point x="525" y="-38"/>
      <point x="481" y="7"/>
      <point x="434" y="56" type="curve" smooth="yes"/>
      <point x="376" y="115"/>
      <point x="313" y="179"/>
      <point x="313" y="222" type="curve" smooth="yes"/>
      <point x="313" y="224"/>
      <point x="318" y="245"/>
      <point x="318" y="247" type="curve" smooth="yes"/>
      <point x="319" y="257"/>
      <point x="316" y="274"/>
      <point x="278" y="274" type="curve" smooth="yes"/>
      <point x="254" y="274"/>
      <point x="235" y="235"/>
      <point x="235" y="206" type="curve" smooth="yes"/>
      <point x="235" y="159"/>
      <point x="301" y="88"/>
      <point x="358" y="24" type="curve" smooth="yes"/>
      <point x="391" y="-12"/>
      <point x="423" y="-50"/>
      <point x="437" y="-74" type="curve"/>
      <point x="438" y="-89"/>
      <point x="451" y="-128"/>
      <point x="472" y="-128" type="curve" smooth="yes"/>
      <point x="494" y="-128"/>
      <point x="525" y="-92"/>
    </contour>
  </outline>
</glyph>
<glyph name="R" format="1">
  <advance width="607"/>
  <unicode hex="0052"/>
  <outline>
    <contour>
      <point x="294" y="779" type="move" name="top"/>
    </contour>
    <contour>
      <point x="179" y="728" type="curve" smooth="yes"/>
      <point x="159" y="728"/>
      <point x="112" y="699"/>
      <point x="112" y="662" type="curve" smooth="yes"/>
      <point x="112" y="626"/>
      <point x="146" y="617"/>
      <point x="167" y="617" type="curve" smooth="yes"/>
      <point x="197" y="617"/>
      <point x="217" y="647"/>
      <point x="246" y="647" type="curve" smooth="yes"/>
      <point x="280" y="647"/>
      <point x="459" y="621"/>
      <point x="459" y="531" type="curve" smooth="yes"/>
      <point x="459" y="403"/>
      <point x="253" y="385"/>
      <point x="135" y="379" type="curve" smooth="yes"/>
      <point x="90" y="377"/>
      <point x="64" y="345"/>
      <point x="64" y="308" type="curve" smooth="yes"/>
      <point x="64" y="261"/>
      <point x="166" y="202"/>
      <point x="295" y="127" type="curve" smooth="yes"/>
      <point x="351" y="96"/>
      <point x="396" y="69"/>
      <point x="440" y="40" type="curve" smooth="yes"/>
      <point x="487" y="9"/>
      <point x="526" y="-14"/>
      <point x="565" y="-14" type="curve" smooth="yes"/>
      <point x="590" y="-14"/>
      <point x="617" y="26"/>
      <point x="617" y="49" type="curve" smooth="yes"/>
      <point x="617" y="73"/>
      <point x="560" y="81"/>
      <point x="542" y="88" type="curve" smooth="yes"/>
      <point x="384" y="142"/>
      <point x="259" y="237"/>
      <point x="167" y="306" type="curve"/>
      <point x="311" y="317"/>
      <point x="555" y="358"/>
      <point x="555" y="545" type="curve" smooth="yes"/>
      <point x="555" y="661"/>
      <point x="396" y="728"/>
    </contour>
    <contour>
      <point x="112" y="687" type="curve" smooth="yes"/>
      <point x="101" y="687"/>
      <point x="61" y="666"/>
      <point x="61" y="641" type="curve" smooth="yes"/>
      <point x="61" y="619"/>
      <point x="70" y="596"/>
      <point x="78" y="578" type="curve" smooth="yes"/>
      <point x="88" y="555"/>
      <point x="100" y="527"/>
      <point x="100" y="494" type="curve"/>
      <point x="100" y="367"/>
      <point x="97" y="213"/>
      <point x="73" y="123" type="curve" smooth="yes"/>
      <point x="65" y="107"/>
      <point x="60" y="83"/>
      <point x="60" y="66" type="curve" smooth="yes"/>
      <point x="60" y="14"/>
      <point x="99" y="-6"/>
      <point x="121" y="-6" type="curve" smooth="yes"/>
      <point x="144" y="-6"/>
      <point x="160" y="29"/>
      <point x="160" y="68" type="curve"/>
      <point x="159" y="86"/>
      <point x="158" y="102"/>
      <point x="161" y="122" type="curve" smooth="yes"/>
      <point x="170" y="188"/>
      <point x="185" y="332"/>
      <point x="185" y="481" type="curve" smooth="yes"/>
      <point x="185" y="509"/>
      <point x="183" y="537"/>
      <point x="181" y="564" type="curve" smooth="yes"/>
      <point x="179" y="590"/>
      <point x="177" y="616"/>
      <point x="177" y="640" type="curve" smooth="yes"/>
      <point x="177" y="668"/>
      <point x="142" y="687"/>
    </contour>
  </outline>
</glyph>
<glyph name="S" format="1">
  <advance width="555"/>
  <unicode hex="0053"/>
  <outline>
    <contour>
      <point x="330" y="796" type="move" name="top"/>
    </contour>
    <contour>
      <point x="329" y="741" type="curve" smooth="yes"/>
      <point x="229" y="741"/>
      <point x="91" y="591"/>
      <point x="91" y="476" type="curve" smooth="yes"/>
      <point x="91" y="426"/>
      <point x="111" y="358"/>
      <point x="180" y="353" type="curve" smooth="yes"/>
      <point x="309" y="345"/>
      <point x="434" y="287"/>
      <point x="434" y="190" type="curve" smooth="yes"/>
      <point x="434" y="92"/>
      <point x="327" y="62"/>
      <point x="269" y="62" type="curve" smooth="yes"/>
      <point x="165" y="62"/>
      <point x="126" y="163"/>
      <point x="126" y="183" type="curve" smooth="yes"/>
      <point x="126" y="205"/>
      <point x="140" y="224"/>
      <point x="140" y="245" type="curve" smooth="yes"/>
      <point x="140" y="261"/>
      <point x="115" y="302"/>
      <point x="95" y="302" type="curve" smooth="yes"/>
      <point x="54" y="302"/>
      <point x="30" y="265"/>
      <point x="30" y="230" type="curve" smooth="yes"/>
      <point x="30" y="92"/>
      <point x="127" y="-13"/>
      <point x="268" y="-16" type="curve" smooth="yes"/>
      <point x="432" y="-20"/>
      <point x="523" y="102"/>
      <point x="523" y="185" type="curve" smooth="yes"/>
      <point x="523" y="370"/>
      <point x="352" y="407"/>
      <point x="271" y="425" type="curve" smooth="yes"/>
      <point x="242" y="431"/>
      <point x="180" y="437"/>
      <point x="180" y="474" type="curve" smooth="yes"/>
      <point x="180" y="552"/>
      <point x="293" y="657"/>
      <point x="340" y="657" type="curve" smooth="yes"/>
      <point x="382" y="657"/>
      <point x="401" y="637"/>
      <point x="416" y="618" type="curve" smooth="yes"/>
      <point x="430" y="601"/>
      <point x="443" y="587"/>
      <point x="469" y="587" type="curve" smooth="yes"/>
      <point x="485" y="587"/>
      <point x="511" y="609"/>
      <point x="511" y="652" type="curve" smooth="yes"/>
      <point x="511" y="684"/>
      <point x="438" y="741"/>
    </contour>
  </outline>
</glyph>
<glyph name="T" format="1">
  <advance width="559"/>
  <unicode hex="0054"/>
  <outline>
    <contour>
      <point x="279" y="772" type="move" name="top"/>
    </contour>
    <contour>
      <point x="45" y="726" type="curve" smooth="yes"/>
      <point x="28" y="726"/>
      <point x="-20" y="705"/>
      <point x="-20" y="668" type="curve" smooth="yes"/>
      <point x="-20" y="649"/>
      <point x="8" y="619"/>
      <point x="38" y="619" type="curve" smooth="yes"/>
      <point x="74" y="619"/>
      <point x="107" y="630"/>
      <point x="141" y="634" type="curve" smooth="yes"/>
      <point x="165" y="637"/>
      <point x="241" y="642"/>
      <point x="302" y="642" type="curve" smooth="yes"/>
      <point x="439" y="642"/>
      <point x="455" y="631"/>
      <point x="508" y="631" type="curve" smooth="yes"/>
      <point x="541" y="631"/>
      <point x="569" y="656"/>
      <point x="569" y="670" type="curve" smooth="yes"/>
      <point x="569" y="701"/>
      <point x="534" y="726"/>
      <point x="503" y="726" type="curve" smooth="yes"/>
      <point x="492" y="726"/>
      <point x="460" y="724"/>
      <point x="424" y="722" type="curve" smooth="yes"/>
      <point x="375" y="719"/>
      <point x="318" y="717"/>
      <point x="292" y="717" type="curve" smooth="yes"/>
      <point x="257" y="717"/>
      <point x="170" y="718"/>
      <point x="124" y="719" type="curve" smooth="yes"/>
      <point x="77" y="720"/>
      <point x="62" y="726"/>
    </contour>
    <contour>
      <point x="281" y="695" type="curve" smooth="yes"/>
      <point x="266" y="695"/>
      <point x="237" y="662"/>
      <point x="237" y="637" type="curve" smooth="yes"/>
      <point x="237" y="606"/>
      <point x="256" y="579"/>
      <point x="256" y="550" type="curve" smooth="yes"/>
      <point x="256" y="380"/>
      <point x="233" y="205"/>
      <point x="221" y="113" type="curve" smooth="yes"/>
      <point x="217" y="80"/>
      <point x="214" y="59"/>
      <point x="214" y="51" type="curve" smooth="yes"/>
      <point x="214" y="31"/>
      <point x="238" y="-8"/>
      <point x="260" y="-8" type="curve" smooth="yes"/>
      <point x="283" y="-8"/>
      <point x="334" y="34"/>
      <point x="334" y="68" type="curve" smooth="yes"/>
      <point x="334" y="82"/>
      <point x="320" y="97"/>
      <point x="314" y="103" type="curve"/>
      <point x="314" y="106"/>
      <point x="318" y="165"/>
      <point x="323" y="240" type="curve" smooth="yes"/>
      <point x="331" y="357"/>
      <point x="341" y="511"/>
      <point x="341" y="544" type="curve" smooth="yes"/>
      <point x="341" y="647"/>
      <point x="323" y="695"/>
    </contour>
  </outline>
</glyph>
<glyph name="U" format="1">
  <advance width="662"/>
  <unicode hex="0055"/>
  <outline>
    <contour>
      <point x="287" y="783" type="move" name="top"/>
    </contour>
    <contour>
      <point x="109" y="727" type="curve" smooth="yes"/>
      <point x="89" y="727"/>
      <point x="57" y="696"/>
      <point x="57" y="652" type="curve" smooth="yes"/>
      <point x="57" y="624"/>
      <point x="64" y="600"/>
      <point x="64" y="576" type="curve" smooth="yes"/>
      <point x="64" y="544"/>
      <point x="63" y="511"/>
      <point x="62" y="479" type="curve" smooth="yes"/>
      <point x="61" y="449"/>
      <point x="60" y="420"/>
      <point x="60" y="394" type="curve" smooth="yes"/>
      <point x="60" y="161"/>
      <point x="132" y="-14"/>
      <point x="312" y="-14" type="curve" smooth="yes"/>
      <point x="434" y="-14"/>
      <point x="619" y="94"/>
      <point x="619" y="297" type="curve" smooth="yes"/>
      <point x="619" y="449"/>
      <point x="560" y="584"/>
      <point x="524" y="649" type="curve"/>
      <point x="512" y="680"/>
      <point x="491" y="730"/>
      <point x="454" y="730" type="curve" smooth="yes"/>
      <point x="432" y="730"/>
      <point x="400" y="691"/>
      <point x="400" y="674" type="curve" smooth="yes"/>
      <point x="400" y="634"/>
      <point x="456" y="586"/>
      <point x="481" y="561" type="curve"/>
      <point x="516" y="498"/>
      <point x="533" y="411"/>
      <point x="533" y="276" type="curve" smooth="yes"/>
      <point x="533" y="182"/>
      <point x="446" y="76"/>
      <point x="312" y="76" type="curve" smooth="yes"/>
      <point x="200" y="76"/>
      <point x="147" y="218"/>
      <point x="147" y="388" type="curve" smooth="yes"/>
      <point x="147" y="458"/>
      <point x="150" y="574"/>
      <point x="158" y="598" type="curve"/>
      <point x="164" y="609"/>
      <point x="173" y="632"/>
      <point x="173" y="650" type="curve" smooth="yes"/>
      <point x="173" y="673"/>
      <point x="149" y="727"/>
    </contour>
  </outline>
</glyph>
<glyph name="V" format="1">
  <advance width="556"/>
  <unicode hex="0056"/>
  <outline>
    <contour>
      <point x="40" y="700" type="curve" smooth="yes"/>
      <point x="27" y="700"/>
      <point x="-14" y="663"/>
      <point x="-14" y="641" type="curve" smooth="yes"/>
      <point x="-14" y="616"/>
      <point x="2" y="604"/>
      <point x="17" y="594" type="curve" smooth="yes"/>
      <point x="26" y="589"/>
      <point x="32" y="584"/>
      <point x="35" y="579" type="curve" smooth="yes"/>
      <point x="90" y="483"/>
      <point x="205" y="115"/>
      <point x="205" y="66" type="curve" smooth="yes"/>
      <point x="205" y="56"/>
      <point x="198" y="48"/>
      <point x="198" y="39" type="curve" smooth="yes"/>
      <point x="198" y="30"/>
      <point x="228" y="-7"/>
      <point x="246" y="-7" type="curve" smooth="yes"/>
      <point x="270" y="-7"/>
      <point x="299" y="4"/>
      <point x="317" y="59" type="curve" smooth="yes"/>
      <point x="338" y="122"/>
      <point x="379" y="219"/>
      <point x="417" y="331" type="curve" smooth="yes"/>
      <point x="444" y="411"/>
      <point x="475" y="506"/>
      <point x="506" y="589" type="curve"/>
      <point x="518" y="617"/>
      <point x="539" y="653"/>
      <point x="539" y="681" type="curve" smooth="yes"/>
      <point x="539" y="705"/>
      <point x="515" y="727"/>
      <point x="498" y="727" type="curve" smooth="yes"/>
      <point x="460" y="727"/>
      <point x="440" y="711"/>
      <point x="433" y="693" type="curve"/>
      <point x="432" y="634"/>
      <point x="347" y="331"/>
      <point x="267" y="144" type="curve"/>
      <point x="222" y="314"/>
      <point x="126" y="700"/>
    </contour>
  </outline>
</glyph>
<glyph name="W" format="1">
  <advance width="847"/>
  <unicode hex="0057"/>
  <outline>
    <contour>
      <point x="67" y="725" type="curve" smooth="yes"/>
      <point x="42" y="725"/>
      <point x="16" y="682"/>
      <point x="16" y="645" type="curve" smooth="yes"/>
      <point x="16" y="617"/>
      <point x="30" y="584"/>
      <point x="48" y="566" type="curve" smooth="yes"/>
      <point x="68" y="544"/>
      <point x="105" y="335"/>
      <point x="115" y="217" type="curve" smooth="yes"/>
      <point x="120" y="157"/>
      <point x="119" y="104"/>
      <point x="119" y="49" type="curve" smooth="yes"/>
      <point x="119" y="17"/>
      <point x="146" y="-18"/>
      <point x="174" y="-18" type="curve" smooth="yes"/>
      <point x="204" y="-18"/>
      <point x="238" y="17"/>
      <point x="238" y="30" type="curve" smooth="yes"/>
      <point x="238" y="82"/>
      <point x="401" y="399"/>
      <point x="426" y="399" type="curve" smooth="yes"/>
      <point x="444" y="399"/>
      <point x="451" y="356"/>
      <point x="460" y="321" type="curve" smooth="yes"/>
      <point x="492" y="199"/>
      <point x="536" y="28"/>
      <point x="653" y="28" type="curve" smooth="yes"/>
      <point x="784" y="28"/>
      <point x="792" y="298"/>
      <point x="792" y="348" type="curve" smooth="yes"/>
      <point x="792" y="396"/>
      <point x="779" y="634"/>
      <point x="767" y="662" type="curve"/>
      <point x="756" y="681"/>
      <point x="751" y="705"/>
      <point x="716" y="705" type="curve" smooth="yes"/>
      <point x="686" y="705"/>
      <point x="664" y="688"/>
      <point x="664" y="664" type="curve" smooth="yes"/>
      <point x="664" y="646"/>
      <point x="679" y="626"/>
      <point x="688" y="614" type="curve"/>
      <point x="689" y="600"/>
      <point x="714" y="423"/>
      <point x="714" y="350" type="curve" smooth="yes"/>
      <point x="714" y="185"/>
      <point x="686" y="124"/>
      <point x="650" y="124" type="curve" smooth="yes"/>
      <point x="601" y="124"/>
      <point x="570" y="205"/>
      <point x="555" y="276" type="curve" smooth="yes"/>
      <point x="539" y="350"/>
      <point x="496" y="518"/>
      <point x="438" y="518" type="curve" smooth="yes"/>
      <point x="385" y="518"/>
      <point x="293" y="348"/>
      <point x="272" y="305" type="curve" smooth="yes"/>
      <point x="246" y="251"/>
      <point x="224" y="199"/>
      <point x="200" y="148" type="curve"/>
      <point x="198" y="161"/>
      <point x="197" y="175"/>
      <point x="196" y="188" type="curve" smooth="yes"/>
      <point x="188" y="308"/>
      <point x="169" y="481"/>
      <point x="133" y="604" type="curve"/>
      <point x="131" y="619"/>
      <point x="130" y="658"/>
      <point x="127" y="672" type="curve" smooth="yes"/>
      <point x="122" y="695"/>
      <point x="105" y="725"/>
    </contour>
  </outline>
</glyph>
<glyph name="X" format="1">
  <advance width="567"/>
  <unicode hex="0058"/>
  <outline>
    <contour>
      <point x="457" y="741" type="curve" smooth="yes"/>
      <point x="419" y="741"/>
      <point x="395" y="635"/>
      <point x="373" y="596" type="curve" smooth="yes"/>
      <point x="326" y="512"/>
      <point x="206" y="340"/>
      <point x="199" y="329" type="curve" smooth="yes"/>
      <point x="143" y="243"/>
      <point x="28" y="80"/>
      <point x="28" y="49" type="curve" smooth="yes"/>
      <point x="28" y="8"/>
      <point x="60" y="-8"/>
      <point x="80" y="-8" type="curve" smooth="yes"/>
      <point x="102" y="-8"/>
      <point x="121" y="29"/>
      <point x="127" y="64" type="curve" smooth="yes"/>
      <point x="132" y="96"/>
      <point x="292" y="341"/>
      <point x="335" y="401" type="curve" smooth="yes"/>
      <point x="373" y="454"/>
      <point x="469" y="615"/>
      <point x="482" y="628" type="curve" smooth="yes"/>
      <point x="499" y="645"/>
      <point x="515" y="652"/>
      <point x="515" y="666" type="curve" smooth="yes"/>
      <point x="515" y="681"/>
      <point x="502" y="741"/>
    </contour>
    <contour>
      <point x="95" y="712" type="curve" smooth="yes"/>
      <point x="69" y="712"/>
      <point x="47" y="677"/>
      <point x="47" y="657" type="curve" smooth="yes"/>
      <point x="47" y="609"/>
      <point x="87" y="583"/>
      <point x="102" y="559" type="curve" smooth="yes"/>
      <point x="132" y="509"/>
      <point x="207" y="394"/>
      <point x="230" y="359" type="curve" smooth="yes"/>
      <point x="256" y="320"/>
      <point x="445" y="87"/>
      <point x="443" y="80" type="curve"/>
      <point x="453" y="53"/>
      <point x="478" y="16"/>
      <point x="509" y="16" type="curve" smooth="yes"/>
      <point x="532" y="16"/>
      <point x="559" y="27"/>
      <point x="559" y="53" type="curve" smooth="yes"/>
      <point x="559" y="90"/>
      <point x="528" y="129"/>
      <point x="517" y="136" type="curve" smooth="yes"/>
      <point x="509" y="141"/>
      <point x="496" y="145"/>
      <point x="488" y="148" type="curve"/>
      <point x="479" y="156"/>
      <point x="406" y="250"/>
      <point x="309" y="385" type="curve" smooth="yes"/>
      <point x="212" y="520"/>
      <point x="165" y="612"/>
      <point x="155" y="648" type="curve" smooth="yes"/>
      <point x="147" y="676"/>
      <point x="122" y="712"/>
    </contour>
  </outline>
</glyph>
<glyph name="Y" format="1">
  <advance width="484"/>
  <unicode hex="0059"/>
  <outline>
    <contour>
      <point x="429" y="737" type="curve"/>
      <point x="398" y="737"/>
      <point x="374" y="716"/>
      <point x="374" y="699" type="curve" smooth="yes"/>
      <point x="374" y="682"/>
      <point x="373" y="663"/>
      <point x="371" y="648" type="curve" smooth="yes"/>
      <point x="356" y="536"/>
      <point x="147" y="98"/>
      <point x="147" y="40" type="curve" smooth="yes"/>
      <point x="147" y="3"/>
      <point x="184" y="-14"/>
      <point x="194" y="-14" type="curve" smooth="yes"/>
      <point x="213" y="-14"/>
      <point x="238" y="-4"/>
      <point x="241" y="29" type="curve" smooth="yes"/>
      <point x="248" y="120"/>
      <point x="277" y="179"/>
      <point x="304" y="241" type="curve" smooth="yes"/>
      <point x="361" y="371"/>
      <point x="440" y="583"/>
      <point x="447" y="607" type="curve" smooth="yes"/>
      <point x="458" y="645"/>
      <point x="476" y="669"/>
      <point x="476" y="694" type="curve" smooth="yes"/>
      <point x="476" y="715"/>
      <point x="458" y="735"/>
    </contour>
    <contour>
      <point x="30" y="737" type="curve" smooth="yes"/>
      <point x="5" y="737"/>
      <point x="-10" y="702"/>
      <point x="-10" y="681" type="curve" smooth="yes"/>
      <point x="-10" y="662"/>
      <point x="109" y="498"/>
      <point x="135" y="462" type="curve" smooth="yes"/>
      <point x="209" y="358"/>
      <point x="229" y="282"/>
      <point x="283" y="282" type="curve" smooth="yes"/>
      <point x="328" y="282"/>
      <point x="345" y="306"/>
      <point x="345" y="316" type="curve" smooth="yes"/>
      <point x="345" y="326"/>
      <point x="339" y="348"/>
      <point x="319" y="357" type="curve"/>
      <point x="262" y="386"/>
      <point x="229" y="456"/>
      <point x="192" y="507" type="curve" smooth="yes"/>
      <point x="127" y="597"/>
      <point x="95" y="663"/>
      <point x="94" y="673" type="curve" smooth="yes"/>
      <point x="92" y="698"/>
      <point x="64" y="737"/>
    </contour>
  </outline>
</glyph>
<glyph name="Z" format="1">
  <advance width="654"/>
  <unicode hex="005A"/>
  <outline>
    <contour>
      <point x="332" y="774" type="move" name="top"/>
    </contour>
    <contour>
      <point x="48" y="657" type="curve" smooth="yes"/>
      <point x="48" y="635"/>
      <point x="84" y="593"/>
      <point x="109" y="593" type="curve" smooth="yes"/>
      <point x="128" y="593"/>
      <point x="140" y="608"/>
      <point x="154" y="617" type="curve" smooth="yes"/>
      <point x="183" y="636"/>
      <point x="363" y="647"/>
      <point x="416" y="647" type="curve" smooth="yes"/>
      <point x="443" y="647"/>
      <point x="467" y="646"/>
      <point x="490" y="644" type="curve" smooth="yes"/>
      <point x="513" y="643"/>
      <point x="534" y="641"/>
      <point x="562" y="641" type="curve"/>
      <point x="586" y="641"/>
      <point x="624" y="641"/>
      <point x="624" y="676" type="curve" smooth="yes"/>
      <point x="624" y="711"/>
      <point x="604" y="731"/>
      <point x="563" y="731" type="curve" smooth="yes"/>
      <point x="546" y="731"/>
      <point x="514" y="729"/>
      <point x="473" y="727" type="curve" smooth="yes"/>
      <point x="359" y="719"/>
      <point x="246" y="713"/>
      <point x="133" y="713" type="curve" smooth="yes"/>
      <point x="104" y="713"/>
      <point x="48" y="699"/>
    </contour>
    <contour>
      <point x="69" y="36" type="curve" smooth="yes"/>
      <point x="69" y="21"/>
      <point x="73" y="-2"/>
      <point x="103" y="-2" type="curve" smooth="yes"/>
      <point x="136" y="-2"/>
      <point x="162" y="-3"/>
      <point x="201" y="-3" type="curve" smooth="yes"/>
      <point x="235" y="-3"/>
      <point x="280" y="-4"/>
      <point x="586" y="-4" type="curve"/>
      <point x="610" y="-4"/>
      <point x="639" y="12"/>
      <point x="639" y="35" type="curve" smooth="yes"/>
      <point x="639" y="59"/>
      <point x="621" y="96"/>
      <point x="579" y="96" type="curve" smooth="yes"/>
      <point x="553" y="96"/>
      <point x="530" y="81"/>
      <point x="507" y="81" type="curve" smooth="yes"/>
      <point x="473" y="81"/>
      <point x="441" y="80"/>
      <point x="410" y="80" type="curve" smooth="yes"/>
      <point x="300" y="79"/>
      <point x="209" y="79"/>
      <point x="108" y="79" type="curve" smooth="yes"/>
      <point x="82" y="79"/>
      <point x="69" y="59"/>
    </contour>
    <contour>
      <point x="534" y="703" type="curve" smooth="yes"/>
      <point x="525" y="703"/>
      <point x="495" y="661"/>
      <point x="487" y="652" type="curve" smooth="yes"/>
      <point x="418" y="567"/>
      <point x="359" y="479"/>
      <point x="292" y="397" type="curve" smooth="yes"/>
      <point x="215" y="307"/>
      <point x="15" y="61"/>
      <point x="15" y="46" type="curve" smooth="yes"/>
      <point x="15" y="27"/>
      <point x="41" y="-21"/>
      <point x="71" y="-21" type="curve" smooth="yes"/>
      <point x="115" y="-21"/>
      <point x="142" y="57"/>
      <point x="165" y="93" type="curve" smooth="yes"/>
      <point x="223" y="183"/>
      <point x="284" y="254"/>
      <point x="340" y="329" type="curve" smooth="yes"/>
      <point x="383" y="387"/>
      <point x="548" y="590"/>
      <point x="566" y="605" type="curve"/>
      <point x="580" y="611"/>
      <point x="620" y="644"/>
      <point x="620" y="660" type="curve" smooth="yes"/>
      <point x="620" y="675"/>
      <point x="572" y="703"/>
    </contour>
  </outline>
</glyph>
<glyph name="bracketleft" format="1">
  <advance width="438"/>
  <unicode hex="005B"/>
  <outline>
    <contour>
      <point x="157" y="741" type="curve" smooth="yes"/>
      <point x="141" y="741"/>
      <point x="109" y="702"/>
      <point x="109" y="691" type="curve" smooth="yes"/>
      <point x="109" y="673"/>
      <point x="114" y="652"/>
      <point x="157" y="649" type="curve" smooth="yes"/>
      <point x="288" y="639"/>
      <point x="329" y="624"/>
      <point x="349" y="624" type="curve" smooth="yes"/>
      <point x="369" y="624"/>
      <point x="378" y="644"/>
      <point x="378" y="662" type="curve" smooth="yes"/>
      <point x="378" y="698"/>
      <point x="347" y="719"/>
      <point x="330" y="719" type="curve" smooth="yes"/>
      <point x="311" y="719"/>
      <point x="272" y="713"/>
      <point x="260" y="713" type="curve" smooth="yes"/>
      <point x="221" y="713"/>
      <point x="183" y="741"/>
    </contour>
    <contour>
      <point x="160" y="695" type="curve" smooth="yes"/>
      <point x="139" y="695"/>
      <point x="121" y="676"/>
      <point x="121" y="656" type="curve" smooth="yes"/>
      <point x="121" y="631"/>
      <point x="126" y="537"/>
      <point x="114" y="361" type="curve" smooth="yes"/>
      <point x="103" y="186"/>
      <point x="40" y="-65"/>
      <point x="40" y="-95" type="curve" smooth="yes"/>
      <point x="40" y="-117"/>
      <point x="66" y="-152"/>
      <point x="82" y="-152" type="curve" smooth="yes"/>
      <point x="136" y="-152"/>
      <point x="163" y="-129"/>
      <point x="206" y="-129" type="curve" smooth="yes"/>
      <point x="250" y="-128"/>
      <point x="311" y="-139"/>
      <point x="320" y="-139" type="curve" smooth="yes"/>
      <point x="330" y="-139"/>
      <point x="354" y="-124"/>
      <point x="354" y="-114" type="curve" smooth="yes"/>
      <point x="354" y="-105"/>
      <point x="345" y="-47"/>
      <point x="306" y="-47" type="curve" smooth="yes"/>
      <point x="263" y="-47"/>
      <point x="165" y="-61"/>
      <point x="146" y="-62" type="curve"/>
      <point x="146" y="-43"/>
      <point x="156" y="45"/>
      <point x="175" y="170" type="curve" smooth="yes"/>
      <point x="192" y="283"/>
      <point x="212" y="556"/>
      <point x="218" y="591" type="curve"/>
      <point x="223" y="626"/>
      <point x="232" y="643"/>
      <point x="232" y="661" type="curve" smooth="yes"/>
      <point x="232" y="676"/>
      <point x="180" y="695"/>
    </contour>
  </outline>
</glyph>
<glyph name="backslash" format="1">
  <advance width="451"/>
  <unicode hex="005C"/>
  <outline>
    <contour>
      <point x="378" y="-129" type="curve" smooth="yes"/>
      <point x="403" y="-129"/>
      <point x="431" y="-105"/>
      <point x="431" y="-69" type="curve" smooth="yes"/>
      <point x="431" y="-53"/>
      <point x="398" y="-14"/>
      <point x="396" y="1" type="curve" smooth="yes"/>
      <point x="394" y="11"/>
      <point x="235" y="434"/>
      <point x="190" y="543" type="curve" smooth="yes"/>
      <point x="167" y="599"/>
      <point x="143" y="727"/>
      <point x="81" y="727" type="curve" smooth="yes"/>
      <point x="51" y="727"/>
      <point x="27" y="687"/>
      <point x="27" y="676" type="curve" smooth="yes"/>
      <point x="27" y="647"/>
      <point x="37" y="630"/>
      <point x="41" y="625" type="curve" smooth="yes"/>
      <point x="78" y="586"/>
      <point x="89" y="569"/>
      <point x="176" y="354" type="curve" smooth="yes"/>
      <point x="195" y="306"/>
      <point x="301" y="-7"/>
      <point x="309" y="-30" type="curve" smooth="yes"/>
      <point x="326" y="-77"/>
      <point x="325" y="-129"/>
    </contour>
  </outline>
</glyph>
<glyph name="bracketright" format="1">
  <advance width="436"/>
  <unicode hex="005D"/>
  <outline>
    <contour>
      <point x="118" y="722" type="curve" smooth="yes"/>
      <point x="92" y="722"/>
      <point x="81" y="692"/>
      <point x="81" y="673" type="curve" smooth="yes"/>
      <point x="81" y="655"/>
      <point x="107" y="628"/>
      <point x="127" y="628" type="curve" smooth="yes"/>
      <point x="147" y="628"/>
      <point x="188" y="645"/>
      <point x="223" y="645" type="curve" smooth="yes"/>
      <point x="254" y="645"/>
      <point x="308" y="645"/>
      <point x="326" y="645" type="curve" smooth="yes"/>
      <point x="347" y="645"/>
      <point x="366" y="652"/>
      <point x="366" y="666" type="curve" smooth="yes"/>
      <point x="366" y="720"/>
      <point x="342" y="740"/>
      <point x="321" y="740" type="curve" smooth="yes"/>
      <point x="302" y="740"/>
      <point x="260" y="717"/>
      <point x="223" y="717" type="curve" smooth="yes"/>
      <point x="142" y="717"/>
      <point x="135" y="722"/>
    </contour>
    <contour>
      <point x="330" y="675" type="curve" smooth="yes"/>
      <point x="315" y="675"/>
      <point x="264" y="672"/>
      <point x="264" y="618" type="curve" smooth="yes"/>
      <point x="264" y="555"/>
      <point x="274" y="601"/>
      <point x="248" y="344" type="curve" smooth="yes"/>
      <point x="222" y="97"/>
      <point x="218" y="68"/>
      <point x="215" y="51" type="curve" smooth="yes"/>
      <point x="208" y="12"/>
      <point x="197" y="-47"/>
      <point x="191" y="-64" type="curve"/>
      <point x="169" y="-65"/>
      <point x="76" y="-53"/>
      <point x="54" y="-57" type="curve" smooth="yes"/>
      <point x="34" y="-61"/>
      <point x="21" y="-78"/>
      <point x="21" y="-100" type="curve" smooth="yes"/>
      <point x="21" y="-116"/>
      <point x="40" y="-138"/>
      <point x="72" y="-138" type="curve" smooth="yes"/>
      <point x="252" y="-138"/>
      <point x="218" y="-151"/>
      <point x="253" y="-151" type="curve" smooth="yes"/>
      <point x="285" y="-151"/>
      <point x="296" y="-119"/>
      <point x="296" y="-93" type="curve" smooth="yes"/>
      <point x="296" y="-68"/>
      <point x="297" y="-7"/>
      <point x="303" y="40" type="curve" smooth="yes"/>
      <point x="305" y="55"/>
      <point x="317" y="194"/>
      <point x="330" y="347" type="curve" smooth="yes"/>
      <point x="341" y="469"/>
      <point x="364" y="629"/>
      <point x="364" y="648" type="curve" smooth="yes"/>
      <point x="364" y="664"/>
      <point x="341" y="675"/>
    </contour>
  </outline>
</glyph>
<glyph name="asciicircum" format="1">
  <advance width="671"/>
  <unicode hex="005E"/>
  <outline>
    <contour>
      <point x="290" y="481" type="line"/>
      <point x="377" y="481" type="line"/>
      <point x="571" y="138" type="line"/>
      <point x="493" y="138" type="line"/>
      <point x="336" y="423" type="line"/>
      <point x="178" y="138" type="line"/>
      <point x="100" y="138" type="line"/>
    </contour>
  </outline>
</glyph>
<glyph name="underscore" format="1">
  <advance width="500"/>
  <unicode hex="005F"/>
  <outline>
    <contour>
      <point x="500" y="-178" type="curve" smooth="yes"/>
      <point x="500" y="-136"/>
      <point x="464" y="-140"/>
      <point x="441" y="-140" type="curve" smooth="yes"/>
      <point x="415" y="-140"/>
      <point x="337" y="-143"/>
      <point x="311" y="-143" type="curve" smooth="yes"/>
      <point x="295" y="-143"/>
      <point x="159" y="-144"/>
      <point x="53" y="-150" type="curve" smooth="yes"/>
      <point x="2" y="-153"/>
      <point x="0" y="-178"/>
      <point x="0" y="-188" type="curve" smooth="yes"/>
      <point x="0" y="-218"/>
      <point x="28" y="-237"/>
      <point x="46" y="-237" type="curve" smooth="yes"/>
      <point x="65" y="-237"/>
      <point x="53" y="-224"/>
      <point x="336" y="-224" type="curve" smooth="yes"/>
      <point x="380" y="-224"/>
      <point x="441" y="-235"/>
      <point x="459" y="-235" type="curve" smooth="yes"/>
      <point x="475" y="-235"/>
      <point x="500" y="-206"/>
    </contour>
  </outline>
</glyph>
<glyph name="grave" format="1">
  <advance width="400"/>
  <unicode hex="0060"/>
  <outline>
    <contour>
      <point x="242" y="548" type="move" name="_top"/>
    </contour>
    <contour>
      <point x="96" y="700" type="curve" smooth="yes"/>
      <point x="96" y="683"/>
      <point x="123" y="678"/>
      <point x="143" y="657" type="curve" smooth="yes"/>
      <point x="157" y="642"/>
      <point x="236" y="548"/>
      <point x="261" y="548" type="curve" smooth="yes"/>
      <point x="294" y="548"/>
      <point x="304" y="573"/>
      <point x="304" y="580" type="curve" smooth="yes"/>
      <point x="304" y="602"/>
      <point x="251" y="647"/>
      <point x="238" y="666" type="curve" smooth="yes"/>
      <point x="234" y="672"/>
      <point x="187" y="729"/>
      <point x="182" y="739" type="curve" smooth="yes"/>
      <point x="178" y="749"/>
      <point x="161" y="759"/>
      <point x="140" y="759" type="curve" smooth="yes"/>
      <point x="111" y="759"/>
      <point x="96" y="725"/>
    </contour>
  </outline>
</glyph>
<glyph name="a" format="1">
  <advance width="553"/>
  <unicode hex="0061"/>
  <outline>
    <contour>
      <point x="313" y="552" type="move" name="top"/>
    </contour>
    <contour>
      <point x="313" y="492" type="curve" smooth="yes"/>
      <point x="191" y="492"/>
      <point x="22" y="302"/>
      <point x="22" y="131" type="curve" smooth="yes"/>
      <point x="22" y="38"/>
      <point x="69" y="-15"/>
      <point x="141" y="-15" type="curve" smooth="yes"/>
      <point x="257" y="-15"/>
      <point x="350" y="86"/>
      <point x="402" y="168" type="curve"/>
      <point x="401" y="153"/>
      <point x="400" y="150"/>
      <point x="399" y="136" type="curve" smooth="yes"/>
      <point x="397" y="107"/>
      <point x="394" y="80"/>
      <point x="394" y="53" type="curve" smooth="yes"/>
      <point x="394" y="12"/>
      <point x="405" y="-10"/>
      <point x="450" y="-10" type="curve" smooth="yes"/>
      <point x="461" y="-10"/>
      <point x="496" y="4"/>
      <point x="496" y="27" type="curve" smooth="yes"/>
      <point x="496" y="45"/>
      <point x="494" y="57"/>
      <point x="492" y="71" type="curve" smooth="yes"/>
      <point x="488" y="96"/>
      <point x="482" y="129"/>
      <point x="482" y="221" type="curve" smooth="yes"/>
      <point x="482" y="259"/>
      <point x="489" y="293"/>
      <point x="495" y="321" type="curve" smooth="yes"/>
      <point x="499" y="341"/>
      <point x="503" y="357"/>
      <point x="503" y="372" type="curve" smooth="yes"/>
      <point x="503" y="387"/>
      <point x="491" y="411"/>
      <point x="468" y="411" type="curve" smooth="yes"/>
      <point x="458" y="411"/>
      <point x="455" y="409"/>
      <point x="451" y="407" type="curve"/>
      <point x="441" y="422"/>
      <point x="384" y="492"/>
    </contour>
    <contour>
      <point x="313" y="410" type="curve" smooth="yes"/>
      <point x="346" y="410"/>
      <point x="380" y="370"/>
      <point x="380" y="349" type="curve" smooth="yes"/>
      <point x="380" y="248"/>
      <point x="262" y="65"/>
      <point x="150" y="65" type="curve" smooth="yes"/>
      <point x="117" y="65"/>
      <point x="104" y="100"/>
      <point x="104" y="122" type="curve" smooth="yes"/>
      <point x="104" y="215"/>
      <point x="195" y="410"/>
    </contour>
  </outline>
</glyph>
<glyph name="b" format="1">
  <advance width="553"/>
  <unicode hex="0062"/>
  <outline>
    <contour>
      <point x="116" y="724" type="curve" smooth="yes"/>
      <point x="95" y="724"/>
      <point x="65" y="690"/>
      <point x="65" y="673" type="curve" smooth="yes"/>
      <point x="65" y="652"/>
      <point x="84" y="637"/>
      <point x="84" y="618" type="curve" smooth="yes"/>
      <point x="84" y="345"/>
      <point x="68" y="207"/>
      <point x="53" y="126" type="curve" smooth="yes"/>
      <point x="47" y="92"/>
      <point x="42" y="68"/>
      <point x="42" y="48" type="curve" smooth="yes"/>
      <point x="42" y="21"/>
      <point x="46" y="-9"/>
      <point x="69" y="-9" type="curve" smooth="yes"/>
      <point x="90" y="-9"/>
      <point x="136" y="19"/>
      <point x="136" y="48" type="curve" smooth="yes"/>
      <point x="136" y="73"/>
      <point x="143" y="198"/>
      <point x="155" y="308" type="curve" smooth="yes"/>
      <point x="170" y="444"/>
      <point x="177" y="604"/>
      <point x="177" y="645" type="curve" smooth="yes"/>
      <point x="177" y="682"/>
      <point x="146" y="724"/>
    </contour>
    <contour>
      <point x="234" y="-6" type="curve" smooth="yes"/>
      <point x="466" y="-6"/>
      <point x="530" y="199"/>
      <point x="530" y="277" type="curve" smooth="yes"/>
      <point x="530" y="393"/>
      <point x="453" y="479"/>
      <point x="367" y="479" type="curve" smooth="yes"/>
      <point x="279" y="479"/>
      <point x="192" y="415"/>
      <point x="132" y="299" type="curve" smooth="yes"/>
      <point x="121" y="277"/>
      <point x="108" y="241"/>
      <point x="95" y="204" type="curve" smooth="yes"/>
      <point x="80" y="163"/>
      <point x="64" y="118"/>
      <point x="53" y="100" type="curve"/>
      <point x="29" y="71"/>
      <point x="29" y="48"/>
      <point x="29" y="40" type="curve" smooth="yes"/>
      <point x="29" y="17"/>
      <point x="34" y="-15"/>
      <point x="69" y="-15" type="curve" smooth="yes"/>
      <point x="86" y="-15"/>
      <point x="99" y="-8"/>
      <point x="108" y="2" type="curve"/>
      <point x="142" y="-4"/>
      <point x="190" y="-6"/>
    </contour>
    <contour>
      <point x="359" y="405" type="curve" smooth="yes"/>
      <point x="401" y="405"/>
      <point x="450" y="347"/>
      <point x="450" y="275" type="curve" smooth="yes"/>
      <point x="450" y="191"/>
      <point x="380" y="63"/>
      <point x="234" y="63" type="curve" smooth="yes"/>
      <point x="173" y="63"/>
      <point x="149" y="72"/>
      <point x="136" y="78" type="curve"/>
      <point x="154" y="179"/>
      <point x="215" y="405"/>
    </contour>
  </outline>
</glyph>
<glyph name="c" format="1">
  <advance width="469"/>
  <unicode hex="0063"/>
  <outline>
    <contour>
      <point x="356" y="485" type="curve" smooth="yes"/>
      <point x="197" y="485"/>
      <point x="30" y="379"/>
      <point x="30" y="174" type="curve" smooth="yes"/>
      <point x="30" y="51"/>
      <point x="103" y="-14"/>
      <point x="238" y="-14" type="curve" smooth="yes"/>
      <point x="297" y="-14"/>
      <point x="350" y="-2"/>
      <point x="404" y="-2" type="curve" smooth="yes"/>
      <point x="432" y="-2"/>
      <point x="444" y="22"/>
      <point x="444" y="39" type="curve" smooth="yes"/>
      <point x="444" y="54"/>
      <point x="436" y="89"/>
      <point x="410" y="89" type="curve" smooth="yes"/>
      <point x="389" y="89"/>
      <point x="366" y="76"/>
      <point x="348" y="67" type="curve"/>
      <point x="325" y="59"/>
      <point x="266" y="54"/>
      <point x="246" y="54" type="curve" smooth="yes"/>
      <point x="149" y="54"/>
      <point x="114" y="109"/>
      <point x="114" y="168" type="curve" smooth="yes"/>
      <point x="114" y="281"/>
      <point x="188" y="402"/>
      <point x="304" y="402" type="curve" smooth="yes"/>
      <point x="326" y="402"/>
      <point x="343" y="385"/>
      <point x="363" y="385" type="curve" smooth="yes"/>
      <point x="386" y="385"/>
      <point x="414" y="412"/>
      <point x="414" y="429" type="curve" smooth="yes"/>
      <point x="414" y="448"/>
      <point x="415" y="485"/>
    </contour>
  </outline>
</glyph>
<glyph name="d" format="1">
  <advance width="582"/>
  <unicode hex="0064"/>
  <outline>
    <contour>
      <point x="486" y="-13" type="curve" smooth="yes"/>
      <point x="505" y="-13"/>
      <point x="527" y="-2"/>
      <point x="527" y="48" type="curve" smooth="yes"/>
      <point x="527" y="62"/>
      <point x="526" y="90"/>
      <point x="524" y="118" type="curve" smooth="yes"/>
      <point x="521" y="169"/>
      <point x="518" y="236"/>
      <point x="518" y="308" type="curve" smooth="yes"/>
      <point x="518" y="326"/>
      <point x="517" y="351"/>
      <point x="519" y="369" type="curve" smooth="yes"/>
      <point x="527" y="458"/>
      <point x="536" y="578"/>
      <point x="536" y="634" type="curve" smooth="yes"/>
      <point x="536" y="694"/>
      <point x="514" y="731"/>
      <point x="475" y="731" type="curve" smooth="yes"/>
      <point x="452" y="731"/>
      <point x="409" y="701"/>
      <point x="430" y="664" type="curve" smooth="yes"/>
      <point x="437" y="652"/>
      <point x="439" y="621"/>
      <point x="439" y="582" type="curve" smooth="yes"/>
      <point x="439" y="526"/>
      <point x="437" y="491"/>
      <point x="436" y="464" type="curve" smooth="yes"/>
      <point x="435" y="434"/>
      <point x="434" y="377"/>
      <point x="433" y="350" type="curve" smooth="yes"/>
      <point x="429" y="182"/>
      <point x="286" y="60"/>
      <point x="203" y="60" type="curve" smooth="yes"/>
      <point x="156" y="60"/>
      <point x="113" y="106"/>
      <point x="113" y="175" type="curve" smooth="yes"/>
      <point x="113" y="310"/>
      <point x="203" y="410"/>
      <point x="267" y="410" type="curve" smooth="yes"/>
      <point x="306" y="410"/>
      <point x="326" y="389"/>
      <point x="326" y="384" type="curve" smooth="yes"/>
      <point x="328" y="347"/>
      <point x="346" y="333"/>
      <point x="366" y="333" type="curve" smooth="yes"/>
      <point x="389" y="333"/>
      <point x="414" y="354"/>
      <point x="414" y="379" type="curve" smooth="yes"/>
      <point x="414" y="408"/>
      <point x="378" y="491"/>
      <point x="270" y="491" type="curve" smooth="yes"/>
      <point x="124" y="491"/>
      <point x="30" y="317"/>
      <point x="30" y="179" type="curve" smooth="yes"/>
      <point x="30" y="38"/>
      <point x="111" y="-20"/>
      <point x="185" y="-20" type="curve" smooth="yes"/>
      <point x="266" y="-20"/>
      <point x="355" y="14"/>
      <point x="435" y="140" type="curve"/>
      <point x="433" y="108"/>
      <point x="434" y="100"/>
      <point x="434" y="50" type="curve" smooth="yes"/>
      <point x="434" y="4"/>
      <point x="444" y="-13"/>
    </contour>
  </outline>
</glyph>
<glyph name="e" format="1">
  <advance width="506"/>
  <unicode hex="0065"/>
  <outline>
    <contour>
      <point x="284" y="542" type="move" name="top"/>
    </contour>
    <contour>
      <point x="322" y="482" type="curve" smooth="yes"/>
      <point x="141" y="482"/>
      <point x="30" y="355"/>
      <point x="30" y="215" type="curve" smooth="yes"/>
      <point x="30" y="76"/>
      <point x="112" y="-18"/>
      <point x="310" y="-18" type="curve" smooth="yes"/>
      <point x="401" y="-18"/>
      <point x="460" y="-4"/>
      <point x="460" y="39" type="curve" smooth="yes"/>
      <point x="460" y="77"/>
      <point x="443" y="90"/>
      <point x="424" y="90" type="curve" smooth="yes"/>
      <point x="412" y="90"/>
      <point x="404" y="86"/>
      <point x="394" y="79" type="curve" smooth="yes"/>
      <point x="378" y="69"/>
      <point x="357" y="56"/>
      <point x="299" y="56" type="curve" smooth="yes"/>
      <point x="174" y="56"/>
      <point x="117" y="114"/>
      <point x="117" y="220" type="curve" smooth="yes"/>
      <point x="117" y="326"/>
      <point x="195" y="404"/>
      <point x="313" y="404" type="curve" smooth="yes"/>
      <point x="364" y="404"/>
      <point x="400" y="380"/>
      <point x="400" y="355" type="curve" smooth="yes"/>
      <point x="400" y="282"/>
      <point x="215" y="279"/>
      <point x="180" y="279" type="curve" smooth="yes"/>
      <point x="146" y="279"/>
      <point x="145" y="255"/>
      <point x="145" y="235" type="curve" smooth="yes"/>
      <point x="145" y="213"/>
      <point x="165" y="195"/>
      <point x="194" y="195" type="curve" smooth="yes"/>
      <point x="225" y="195"/>
      <point x="252" y="204"/>
      <point x="279" y="207" type="curve" smooth="yes"/>
      <point x="359" y="215"/>
      <point x="484" y="250"/>
      <point x="484" y="343" type="curve" smooth="yes"/>
      <point x="484" y="430"/>
      <point x="394" y="482"/>
    </contour>
  </outline>
</glyph>
<glyph name="f" format="1">
  <advance width="385"/>
  <unicode hex="0066"/>
  <outline>
    <contour>
      <point x="383" y="733" type="curve" smooth="yes"/>
      <point x="168" y="733"/>
      <point x="133" y="452"/>
      <point x="124" y="297" type="curve" smooth="yes"/>
      <point x="117" y="180"/>
      <point x="106" y="124"/>
      <point x="99" y="93" type="curve" smooth="yes"/>
      <point x="95" y="74"/>
      <point x="92" y="62"/>
      <point x="92" y="41" type="curve" smooth="yes"/>
      <point x="92" y="20"/>
      <point x="102" y="-13"/>
      <point x="155" y="-13" type="curve" smooth="yes"/>
      <point x="178" y="-13"/>
      <point x="205" y="-14"/>
      <point x="205" y="43" type="curve" smooth="yes"/>
      <point x="205" y="288"/>
      <point x="211" y="656"/>
      <point x="363" y="656" type="curve" smooth="yes"/>
      <point x="377" y="656"/>
      <point x="394" y="644"/>
      <point x="394" y="633" type="curve" smooth="yes"/>
      <point x="394" y="610"/>
      <point x="376" y="594"/>
      <point x="376" y="572" type="curve" smooth="yes"/>
      <point x="376" y="552"/>
      <point x="387" y="539"/>
      <point x="433" y="539" type="curve" smooth="yes"/>
      <point x="490" y="539"/>
      <point x="495" y="572"/>
      <point x="495" y="638" type="curve" smooth="yes"/>
      <point x="495" y="678"/>
      <point x="457" y="733"/>
    </contour>
    <contour>
      <point x="52" y="475" type="curve" smooth="yes"/>
      <point x="30" y="475"/>
      <point x="13" y="451"/>
      <point x="13" y="431" type="curve" smooth="yes"/>
      <point x="13" y="420"/>
      <point x="26" y="382"/>
      <point x="52" y="382" type="curve" smooth="yes"/>
      <point x="65" y="382"/>
      <point x="78" y="385"/>
      <point x="91" y="388" type="curve" smooth="yes"/>
      <point x="173" y="406"/>
      <point x="233" y="395"/>
      <point x="359" y="395" type="curve" smooth="yes"/>
      <point x="391" y="395"/>
      <point x="401" y="401"/>
      <point x="401" y="423" type="curve" smooth="yes"/>
      <point x="401" y="441"/>
      <point x="394" y="478"/>
      <point x="365" y="478" type="curve" smooth="yes"/>
      <point x="342" y="478"/>
      <point x="319" y="476"/>
      <point x="297" y="473" type="curve" smooth="yes"/>
      <point x="272" y="470"/>
      <point x="242" y="467"/>
      <point x="210" y="467" type="curve" smooth="yes"/>
      <point x="178" y="467"/>
      <point x="146" y="469"/>
      <point x="120" y="471" type="curve" smooth="yes"/>
      <point x="97" y="473"/>
      <point x="73" y="475"/>
    </contour>
  </outline>
</glyph>
<glyph name="g" format="1">
  <advance width="532"/>
  <unicode hex="0067"/>
  <outline>
    <contour>
      <point x="294" y="538" type="move" name="top"/>
    </contour>
    <contour>
      <point x="308" y="478" type="curve" smooth="yes"/>
      <point x="129" y="478"/>
      <point x="30" y="301"/>
      <point x="30" y="163" type="curve" smooth="yes"/>
      <point x="30" y="21"/>
      <point x="130" y="-11"/>
      <point x="194" y="-11" type="curve" smooth="yes"/>
      <point x="240" y="-11"/>
      <point x="324" y="11"/>
      <point x="378" y="52" type="curve"/>
      <point x="367" y="-47"/>
      <point x="347" y="-280"/>
      <point x="223" y="-280" type="curve" smooth="yes"/>
      <point x="195" y="-280"/>
      <point x="134" y="-259"/>
      <point x="121" y="-245" type="curve" smooth="yes"/>
      <point x="105" y="-229"/>
      <point x="91" y="-201"/>
      <point x="67" y="-201" type="curve" smooth="yes"/>
      <point x="43" y="-201"/>
      <point x="32" y="-252"/>
      <point x="32" y="-269" type="curve" smooth="yes"/>
      <point x="32" y="-303"/>
      <point x="73" y="-311"/>
      <point x="96" y="-323" type="curve" smooth="yes"/>
      <point x="126" y="-337"/>
      <point x="174" y="-361"/>
      <point x="229" y="-361" type="curve" smooth="yes"/>
      <point x="352" y="-361"/>
      <point x="397" y="-263"/>
      <point x="409" y="-219" type="curve" smooth="yes"/>
      <point x="446" y="-77"/>
      <point x="479" y="174"/>
      <point x="479" y="284" type="curve" smooth="yes"/>
      <point x="479" y="339"/>
      <point x="464" y="478"/>
    </contour>
    <contour>
      <point x="371" y="178" type="curve" smooth="yes"/>
      <point x="358" y="150"/>
      <point x="300" y="66"/>
      <point x="195" y="66" type="curve" smooth="yes"/>
      <point x="150" y="66"/>
      <point x="122" y="114"/>
      <point x="122" y="155" type="curve" smooth="yes"/>
      <point x="122" y="276"/>
      <point x="200" y="398"/>
      <point x="288" y="398" type="curve" smooth="yes"/>
      <point x="376" y="398"/>
      <point x="390" y="337"/>
      <point x="390" y="315" type="curve" smooth="yes"/>
      <point x="390" y="278"/>
      <point x="389" y="238"/>
      <point x="388" y="197" type="curve"/>
      <point x="380" y="192"/>
      <point x="374" y="184"/>
    </contour>
  </outline>
</glyph>
<glyph name="h" format="1">
  <advance width="561"/>
  <unicode hex="0068"/>
  <outline>
    <contour>
      <point x="123" y="727" type="curve" smooth="yes"/>
      <point x="107" y="727"/>
      <point x="63" y="707"/>
      <point x="63" y="683" type="curve" smooth="yes"/>
      <point x="63" y="663"/>
      <point x="73" y="647"/>
      <point x="73" y="628" type="curve" smooth="yes"/>
      <point x="73" y="481"/>
      <point x="74" y="215"/>
      <point x="55" y="112" type="curve" smooth="yes"/>
      <point x="53" y="99"/>
      <point x="40" y="49"/>
      <point x="40" y="39" type="curve" smooth="yes"/>
      <point x="40" y="0"/>
      <point x="82" y="-4"/>
      <point x="94" y="-4" type="curve" smooth="yes"/>
      <point x="128" y="-4"/>
      <point x="146" y="59"/>
      <point x="146" y="203" type="curve"/>
      <point x="154" y="253"/>
      <point x="208" y="404"/>
      <point x="321" y="404" type="curve" smooth="yes"/>
      <point x="389" y="404"/>
      <point x="432" y="332"/>
      <point x="432" y="199" type="curve" smooth="yes"/>
      <point x="432" y="107"/>
      <point x="414" y="90"/>
      <point x="414" y="38" type="curve" smooth="yes"/>
      <point x="414" y="18"/>
      <point x="442" y="-8"/>
      <point x="458" y="-8" type="curve" smooth="yes"/>
      <point x="479" y="-8"/>
      <point x="505" y="16"/>
      <point x="503" y="44" type="curve" smooth="yes"/>
      <point x="500" y="90"/>
      <point x="509" y="148"/>
      <point x="509" y="181" type="curve" smooth="yes"/>
      <point x="509" y="399"/>
      <point x="432" y="479"/>
      <point x="333" y="479" type="curve" smooth="yes"/>
      <point x="248" y="479"/>
      <point x="181" y="423"/>
      <point x="147" y="377" type="curve"/>
      <point x="145" y="450"/>
      <point x="163" y="629"/>
      <point x="168" y="676" type="curve" smooth="yes"/>
      <point x="170" y="702"/>
      <point x="158" y="727"/>
    </contour>
  </outline>
</glyph>
<glyph name="i" format="1">
  <advance width="239"/>
  <unicode hex="0069"/>
  <outline>
    <contour>
      <point x="133" y="700" type="curve" smooth="yes"/>
      <point x="117" y="700"/>
      <point x="88" y="676"/>
      <point x="88" y="649" type="curve" smooth="yes"/>
      <point x="88" y="618"/>
      <point x="106" y="578"/>
      <point x="137" y="578" type="curve" smooth="yes"/>
      <point x="181" y="578"/>
      <point x="196" y="612"/>
      <point x="196" y="630" type="curve" smooth="yes"/>
      <point x="196" y="658"/>
      <point x="161" y="700"/>
    </contour>
    <contour>
      <point x="136" y="480" type="curve" smooth="yes"/>
      <point x="107" y="480"/>
      <point x="80" y="456"/>
      <point x="80" y="422" type="curve" smooth="yes"/>
      <point x="80" y="412"/>
      <point x="87" y="348"/>
      <point x="87" y="314" type="curve" smooth="yes"/>
      <point x="87" y="240"/>
      <point x="78" y="171"/>
      <point x="72" y="125" type="curve" smooth="yes"/>
      <point x="70" y="109"/>
      <point x="68" y="95"/>
      <point x="67" y="86" type="curve" smooth="yes"/>
      <point x="63" y="33"/>
      <point x="71" y="-9"/>
      <point x="136" y="-9" type="curve" smooth="yes"/>
      <point x="183" y="-9"/>
      <point x="184" y="12"/>
      <point x="186" y="29" type="curve" smooth="yes"/>
      <point x="187" y="43"/>
      <point x="180" y="48"/>
      <point x="172" y="53" type="curve" smooth="yes"/>
      <point x="164" y="58"/>
      <point x="154" y="63"/>
      <point x="154" y="86" type="curve" smooth="yes"/>
      <point x="154" y="141"/>
      <point x="164" y="248"/>
      <point x="172" y="330" type="curve" smooth="yes"/>
      <point x="177" y="378"/>
      <point x="181" y="421"/>
      <point x="181" y="434" type="curve" smooth="yes"/>
      <point x="181" y="453"/>
      <point x="160" y="480"/>
    </contour>
  </outline>
</glyph>
<glyph name="j" format="1">
  <advance width="231"/>
  <unicode hex="006A"/>
  <outline>
    <contour>
      <point x="109" y="477" type="curve" smooth="yes"/>
      <point x="86" y="477"/>
      <point x="48" y="453"/>
      <point x="48" y="418" type="curve" smooth="yes"/>
      <point x="48" y="399"/>
      <point x="53" y="374"/>
      <point x="58" y="364" type="curve" smooth="yes"/>
      <point x="73" y="333"/>
      <point x="80" y="152"/>
      <point x="80" y="-68" type="curve" smooth="yes"/>
      <point x="80" y="-135"/>
      <point x="67" y="-197"/>
      <point x="3" y="-197" type="curve" smooth="yes"/>
      <point x="-36" y="-197"/>
      <point x="-59" y="-183"/>
      <point x="-80" y="-170" type="curve" smooth="yes"/>
      <point x="-98" y="-159"/>
      <point x="-115" y="-149"/>
      <point x="-142" y="-149" type="curve" smooth="yes"/>
      <point x="-169" y="-149"/>
      <point x="-177" y="-176"/>
      <point x="-177" y="-198" type="curve" smooth="yes"/>
      <point x="-177" y="-222"/>
      <point x="-153" y="-246"/>
      <point x="-140" y="-247" type="curve" smooth="yes"/>
      <point x="-118" y="-249"/>
      <point x="-96" y="-254"/>
      <point x="-74" y="-260" type="curve" smooth="yes"/>
      <point x="-46" y="-267"/>
      <point x="-17" y="-274"/>
      <point x="15" y="-274" type="curve" smooth="yes"/>
      <point x="95" y="-274"/>
      <point x="166" y="-227"/>
      <point x="166" y="-80" type="curve" smooth="yes"/>
      <point x="166" y="-71"/>
      <point x="164" y="-28"/>
      <point x="163" y="27" type="curve" smooth="yes"/>
      <point x="161" y="101"/>
      <point x="159" y="197"/>
      <point x="158" y="262" type="curve" smooth="yes"/>
      <point x="157" y="340"/>
      <point x="161" y="383"/>
      <point x="163" y="406" type="curve" smooth="yes"/>
      <point x="164" y="413"/>
      <point x="165" y="420"/>
      <point x="165" y="425" type="curve" smooth="yes"/>
      <point x="165" y="453"/>
      <point x="139" y="477"/>
    </contour>
    <contour>
      <point x="102" y="719" type="curve" smooth="yes"/>
      <point x="82" y="719"/>
      <point x="44" y="699"/>
      <point x="44" y="652" type="curve" smooth="yes"/>
      <point x="44" y="622"/>
      <point x="82" y="597"/>
      <point x="102" y="597" type="curve" smooth="yes"/>
      <point x="125" y="597"/>
      <point x="159" y="631"/>
      <point x="159" y="667" type="curve" smooth="yes"/>
      <point x="159" y="686"/>
      <point x="129" y="719"/>
    </contour>
  </outline>
</glyph>
<glyph name="k" format="1">
  <advance width="491"/>
  <unicode hex="006B"/>
  <outline>
    <contour>
      <point x="113" y="714" type="curve" smooth="yes"/>
      <point x="84" y="714"/>
      <point x="53" y="679"/>
      <point x="53" y="658" type="curve" smooth="yes"/>
      <point x="53" y="637"/>
      <point x="62" y="622"/>
      <point x="65" y="601" type="curve" smooth="yes"/>
      <point x="72" y="545"/>
      <point x="66" y="458"/>
      <point x="66" y="292" type="curve" smooth="yes"/>
      <point x="66" y="116"/>
      <point x="48" y="54"/>
      <point x="48" y="36" type="curve" smooth="yes"/>
      <point x="48" y="18"/>
      <point x="73" y="-8"/>
      <point x="90" y="-8" type="curve" smooth="yes"/>
      <point x="108" y="-8"/>
      <point x="142" y="10"/>
      <point x="142" y="42" type="curve" smooth="yes"/>
      <point x="142" y="88"/>
      <point x="149" y="606"/>
      <point x="149" y="647" type="curve" smooth="yes"/>
      <point x="149" y="686"/>
      <point x="141" y="714"/>
    </contour>
    <contour>
      <point x="412" y="466" type="curve" smooth="yes"/>
      <point x="380" y="466"/>
      <point x="368" y="430"/>
      <point x="345" y="410" type="curve" smooth="yes"/>
      <point x="320" y="390"/>
      <point x="201" y="301"/>
      <point x="159" y="279" type="curve"/>
      <point x="119" y="256"/>
      <point x="53" y="233"/>
      <point x="53" y="217" type="curve" smooth="yes"/>
      <point x="53" y="199"/>
      <point x="72" y="157"/>
      <point x="96" y="157" type="curve" smooth="yes"/>
      <point x="122" y="157"/>
      <point x="172" y="206"/>
      <point x="273" y="272" type="curve" smooth="yes"/>
      <point x="355" y="327"/>
      <point x="437" y="366"/>
      <point x="446" y="394" type="curve" smooth="yes"/>
      <point x="457" y="428"/>
      <point x="445" y="466"/>
    </contour>
    <contour>
      <point x="105" y="192" type="curve" smooth="yes"/>
      <point x="105" y="179"/>
      <point x="100" y="145"/>
      <point x="156" y="156" type="curve" smooth="yes"/>
      <point x="184" y="161"/>
      <point x="368" y="32"/>
      <point x="373" y="26" type="curve"/>
      <point x="380" y="22"/>
      <point x="401" y="-10"/>
      <point x="443" y="-10" type="curve" smooth="yes"/>
      <point x="460" y="-10"/>
      <point x="474" y="15"/>
      <point x="474" y="28" type="curve" smooth="yes"/>
      <point x="474" y="74"/>
      <point x="460" y="67"/>
      <point x="421" y="89" type="curve"/>
      <point x="380" y="110"/>
      <point x="187" y="235"/>
      <point x="164" y="235" type="curve" smooth="yes"/>
      <point x="140" y="235"/>
      <point x="105" y="229"/>
    </contour>
  </outline>
</glyph>
<glyph name="l" format="1">
  <advance width="241"/>
  <unicode hex="006C"/>
  <outline>
    <contour>
      <point x="214" y="35" type="curve" smooth="yes"/>
      <point x="214" y="73"/>
      <point x="188" y="64"/>
      <point x="170" y="73" type="curve"/>
      <point x="162" y="88"/>
      <point x="150" y="107"/>
      <point x="150" y="183" type="curve" smooth="yes"/>
      <point x="150" y="457"/>
      <point x="187" y="620"/>
      <point x="187" y="640" type="curve" smooth="yes"/>
      <point x="187" y="659"/>
      <point x="164" y="705"/>
      <point x="128" y="705" type="curve" smooth="yes"/>
      <point x="107" y="705"/>
      <point x="77" y="687"/>
      <point x="77" y="664" type="curve" smooth="yes"/>
      <point x="77" y="659"/>
      <point x="85" y="637"/>
      <point x="85" y="607" type="curve"/>
      <point x="80" y="354"/>
      <point x="65" y="200"/>
      <point x="65" y="78" type="curve" smooth="yes"/>
      <point x="65" y="19"/>
      <point x="123" y="-13"/>
      <point x="155" y="-13" type="curve" smooth="yes"/>
      <point x="182" y="-13"/>
      <point x="214" y="5"/>
    </contour>
  </outline>
</glyph>
<glyph name="m" format="1">
  <advance width="868"/>
  <unicode hex="006D"/>
  <outline>
    <contour>
      <point x="135" y="474" type="curve" smooth="yes"/>
      <point x="78" y="474"/>
      <point x="64" y="454"/>
      <point x="64" y="423" type="curve" smooth="yes"/>
      <point x="64" y="389"/>
      <point x="74" y="359"/>
      <point x="74" y="328" type="curve" smooth="yes"/>
      <point x="74" y="172"/>
      <point x="60" y="119"/>
      <point x="51" y="85" type="curve" smooth="yes"/>
      <point x="46" y="69"/>
      <point x="43" y="56"/>
      <point x="43" y="36" type="curve" smooth="yes"/>
      <point x="43" y="-13"/>
      <point x="80" y="-12"/>
      <point x="104" y="-12" type="curve" smooth="yes"/>
      <point x="150" y="-12"/>
      <point x="151" y="68"/>
      <point x="151" y="94" type="curve" smooth="yes"/>
      <point x="151" y="159"/>
      <point x="162" y="220"/>
      <point x="162" y="282" type="curve"/>
      <point x="179" y="341"/>
      <point x="241" y="395"/>
      <point x="299" y="395" type="curve" smooth="yes"/>
      <point x="367" y="395"/>
      <point x="394" y="335"/>
      <point x="394" y="233" type="curve" smooth="yes"/>
      <point x="394" y="202"/>
      <point x="389" y="157"/>
      <point x="384" y="117" type="curve" smooth="yes"/>
      <point x="380" y="86"/>
      <point x="377" y="58"/>
      <point x="377" y="44" type="curve" smooth="yes"/>
      <point x="377" y="1"/>
      <point x="395" y="-6"/>
      <point x="411" y="-6" type="curve" smooth="yes"/>
      <point x="458" y="-6"/>
      <point x="472" y="31"/>
      <point x="472" y="52" type="curve" smooth="yes"/>
      <point x="472" y="82"/>
      <point x="481" y="225"/>
      <point x="487" y="258" type="curve"/>
      <point x="501" y="286"/>
      <point x="561" y="391"/>
      <point x="634" y="391" type="curve" smooth="yes"/>
      <point x="700" y="391"/>
      <point x="720" y="324"/>
      <point x="720" y="242" type="curve" smooth="yes"/>
      <point x="720" y="206"/>
      <point x="712" y="161"/>
      <point x="705" y="119" type="curve" smooth="yes"/>
      <point x="699" y="83"/>
      <point x="693" y="50"/>
      <point x="693" y="26" type="curve" smooth="yes"/>
      <point x="693" y="-5"/>
      <point x="730" y="-8"/>
      <point x="743" y="-8" type="curve" smooth="yes"/>
      <point x="768" y="-8"/>
      <point x="797" y="3"/>
      <point x="798" y="28" type="curve" smooth="yes"/>
      <point x="799" y="56"/>
      <point x="802" y="86"/>
      <point x="805" y="118" type="curve" smooth="yes"/>
      <point x="809" y="163"/>
      <point x="813" y="210"/>
      <point x="813" y="250" type="curve" smooth="yes"/>
      <point x="813" y="387"/>
      <point x="746" y="470"/>
      <point x="646" y="470" type="curve" smooth="yes"/>
      <point x="551" y="470"/>
      <point x="490" y="405"/>
      <point x="457" y="367" type="curve"/>
      <point x="434" y="430"/>
      <point x="380" y="474"/>
      <point x="318" y="474" type="curve" smooth="yes"/>
      <point x="244" y="474"/>
      <point x="193" y="436"/>
      <point x="159" y="405" type="curve"/>
      <point x="159" y="410"/>
      <point x="160" y="416"/>
      <point x="161" y="421" type="curve" smooth="yes"/>
      <point x="164" y="447"/>
      <point x="166" y="474"/>
    </contour>
  </outline>
</glyph>
<glyph name="n" format="1">
  <advance width="579"/>
  <unicode hex="006E"/>
  <outline>
    <contour>
      <point x="297" y="540" type="move" name="top"/>
    </contour>
    <contour>
      <point x="57" y="422" type="curve" smooth="yes"/>
      <point x="57" y="416"/>
      <point x="72" y="379"/>
      <point x="72" y="350" type="curve" smooth="yes"/>
      <point x="72" y="288"/>
      <point x="68" y="231"/>
      <point x="62" y="176" type="curve" smooth="yes"/>
      <point x="57" y="128"/>
      <point x="52" y="77"/>
      <point x="52" y="36" type="curve" smooth="yes"/>
      <point x="52" y="8"/>
      <point x="89" y="-11"/>
      <point x="102" y="-11" type="curve" smooth="yes"/>
      <point x="154" y="-11"/>
      <point x="152" y="173"/>
      <point x="152" y="228" type="curve" smooth="yes"/>
      <point x="152" y="252"/>
      <point x="165" y="277"/>
      <point x="171" y="290" type="curve" smooth="yes"/>
      <point x="179" y="308"/>
      <point x="241" y="405"/>
      <point x="332" y="405" type="curve" smooth="yes"/>
      <point x="429" y="405"/>
      <point x="441" y="287"/>
      <point x="441" y="243" type="curve" smooth="yes"/>
      <point x="441" y="137"/>
      <point x="426" y="92"/>
      <point x="416" y="68" type="curve" smooth="yes"/>
      <point x="412" y="60"/>
      <point x="410" y="53"/>
      <point x="410" y="46" type="curve" smooth="yes"/>
      <point x="410" y="20"/>
      <point x="421" y="-10"/>
      <point x="448" y="-10" type="curve" smooth="yes"/>
      <point x="494" y="-10"/>
      <point x="506" y="25"/>
      <point x="514" y="65" type="curve" smooth="yes"/>
      <point x="521" y="100"/>
      <point x="526" y="172"/>
      <point x="526" y="241" type="curve" smooth="yes"/>
      <point x="526" y="389"/>
      <point x="460" y="480"/>
      <point x="354" y="480" type="curve" smooth="yes"/>
      <point x="253" y="480"/>
      <point x="186" y="418"/>
      <point x="159" y="388" type="curve"/>
      <point x="160" y="395"/>
      <point x="160" y="404"/>
      <point x="160" y="413" type="curve" smooth="yes"/>
      <point x="160" y="440"/>
      <point x="157" y="481"/>
      <point x="130" y="481" type="curve" smooth="yes"/>
      <point x="56" y="481"/>
      <point x="57" y="422"/>
    </contour>
  </outline>
</glyph>
<glyph name="o" format="1">
  <advance width="514"/>
  <unicode hex="006F"/>
  <outline>
    <contour>
      <point x="254" y="548" type="move" name="top"/>
    </contour>
    <contour>
      <point x="248" y="488" type="curve" smooth="yes"/>
      <point x="137" y="488"/>
      <point x="30" y="359"/>
      <point x="30" y="179" type="curve" smooth="yes"/>
      <point x="30" y="70"/>
      <point x="111" y="-13"/>
      <point x="216" y="-13" type="curve" smooth="yes"/>
      <point x="430" y="-13"/>
      <point x="484" y="155"/>
      <point x="484" y="235" type="curve" smooth="yes"/>
      <point x="484" y="435"/>
      <point x="335" y="488"/>
    </contour>
    <contour>
      <point x="240" y="407" type="curve" smooth="yes"/>
      <point x="335" y="407"/>
      <point x="401" y="339"/>
      <point x="401" y="256" type="curve" smooth="yes"/>
      <point x="401" y="161"/>
      <point x="338" y="66"/>
      <point x="233" y="66" type="curve" smooth="yes"/>
      <point x="171" y="66"/>
      <point x="114" y="110"/>
      <point x="114" y="188" type="curve" smooth="yes"/>
      <point x="114" y="284"/>
      <point x="171" y="407"/>
    </contour>
  </outline>
</glyph>
<glyph name="p" format="1">
  <advance width="540"/>
  <unicode hex="0070"/>
  <outline>
    <contour>
      <point x="173" y="489" type="curve" smooth="yes"/>
      <point x="153" y="489"/>
      <point x="103" y="487"/>
      <point x="103" y="445" type="curve" smooth="yes"/>
      <point x="103" y="405"/>
      <point x="127" y="393"/>
      <point x="143" y="393" type="curve" smooth="yes"/>
      <point x="165" y="393"/>
      <point x="182" y="410"/>
      <point x="203" y="410" type="curve" smooth="yes"/>
      <point x="338" y="410"/>
      <point x="414" y="340"/>
      <point x="414" y="234" type="curve" smooth="yes"/>
      <point x="414" y="150"/>
      <point x="323" y="70"/>
      <point x="193" y="70" type="curve" smooth="yes"/>
      <point x="179" y="70"/>
      <point x="165" y="71"/>
      <point x="150" y="73" type="curve" smooth="yes"/>
      <point x="123" y="76"/>
      <point x="91" y="52"/>
      <point x="91" y="20" type="curve" smooth="yes"/>
      <point x="91" y="-5"/>
      <point x="109" y="-12"/>
      <point x="132" y="-12" type="curve" smooth="yes"/>
      <point x="143" y="-12"/>
      <point x="158" y="-5"/>
      <point x="199" y="-5" type="curve" smooth="yes"/>
      <point x="359" y="-4"/>
      <point x="510" y="104"/>
      <point x="510" y="232" type="curve" smooth="yes"/>
      <point x="510" y="354"/>
      <point x="401" y="489"/>
    </contour>
    <contour>
      <point x="93" y="481" type="curve" smooth="yes"/>
      <point x="67" y="481"/>
      <point x="50" y="462"/>
      <point x="50" y="434" type="curve" smooth="yes"/>
      <point x="50" y="420"/>
      <point x="52" y="393"/>
      <point x="55" y="364" type="curve" smooth="yes"/>
      <point x="59" y="318"/>
      <point x="65" y="260"/>
      <point x="65" y="214" type="curve" smooth="yes"/>
      <point x="65" y="173"/>
      <point x="58" y="71"/>
      <point x="52" y="-27" type="curve" smooth="yes"/>
      <point x="46" y="-117"/>
      <point x="40" y="-203"/>
      <point x="40" y="-235" type="curve" smooth="yes"/>
      <point x="40" y="-266"/>
      <point x="73" y="-304"/>
      <point x="100" y="-304" type="curve" smooth="yes"/>
      <point x="134" y="-304"/>
      <point x="143" y="-263"/>
      <point x="143" y="-239" type="curve" smooth="yes"/>
      <point x="143" y="-211"/>
      <point x="132" y="-187"/>
      <point x="132" y="-161" type="curve" smooth="yes"/>
      <point x="132" y="-151"/>
      <point x="135" y="-100"/>
      <point x="139" y="-39" type="curve" smooth="yes"/>
      <point x="145" y="57"/>
      <point x="153" y="181"/>
      <point x="153" y="220" type="curve" smooth="yes"/>
      <point x="153" y="284"/>
      <point x="153" y="434"/>
      <point x="147" y="450" type="curve" smooth="yes"/>
      <point x="142" y="461"/>
      <point x="102" y="481"/>
    </contour>
  </outline>
</glyph>
<glyph name="q" format="1">
  <advance width="543"/>
  <unicode hex="0071"/>
  <outline>
    <contour>
      <point x="222" y="479" type="curve" smooth="yes"/>
      <point x="129" y="479"/>
      <point x="35" y="403"/>
      <point x="35" y="240" type="curve" smooth="yes"/>
      <point x="35" y="119"/>
      <point x="108" y="-4"/>
      <point x="234" y="-4" type="curve" smooth="yes"/>
      <point x="352" y="-4"/>
      <point x="466" y="94"/>
      <point x="466" y="137" type="curve" smooth="yes"/>
      <point x="466" y="161"/>
      <point x="448" y="175"/>
      <point x="425" y="175" type="curve" smooth="yes"/>
      <point x="403" y="175"/>
      <point x="386" y="145"/>
      <point x="361" y="123" type="curve" smooth="yes"/>
      <point x="346" y="109"/>
      <point x="309" y="68"/>
      <point x="234" y="68" type="curve" smooth="yes"/>
      <point x="165" y="68"/>
      <point x="110" y="136"/>
      <point x="110" y="241" type="curve" smooth="yes"/>
      <point x="110" y="339"/>
      <point x="164" y="405"/>
      <point x="220" y="405" type="curve" smooth="yes"/>
      <point x="353" y="405"/>
      <point x="299" y="342"/>
      <point x="350" y="342" type="curve" smooth="yes"/>
      <point x="370" y="342"/>
      <point x="378" y="362"/>
      <point x="378" y="386" type="curve" smooth="yes"/>
      <point x="378" y="456"/>
      <point x="271" y="479"/>
    </contour>
    <contour>
      <point x="510" y="-251" type="curve" smooth="yes"/>
      <point x="510" y="-235"/>
      <point x="496" y="-210"/>
      <point x="491" y="-178" type="curve" smooth="yes"/>
      <point x="486" y="-139"/>
      <point x="475" y="45"/>
      <point x="475" y="147" type="curve" smooth="yes"/>
      <point x="475" y="224"/>
      <point x="487" y="284"/>
      <point x="487" y="346" type="curve" smooth="yes"/>
      <point x="487" y="412"/>
      <point x="472" y="476"/>
      <point x="410" y="476" type="curve" smooth="yes"/>
      <point x="387" y="476"/>
      <point x="367" y="462"/>
      <point x="367" y="434" type="curve" smooth="yes"/>
      <point x="367" y="441"/>
      <point x="405" y="156"/>
      <point x="405" y="-37" type="curve" smooth="yes"/>
      <point x="405" y="-136"/>
      <point x="399" y="-240"/>
      <point x="399" y="-254" type="curve" smooth="yes"/>
      <point x="399" y="-286"/>
      <point x="433" y="-294"/>
      <point x="449" y="-294" type="curve" smooth="yes"/>
      <point x="468" y="-294"/>
      <point x="510" y="-280"/>
    </contour>
  </outline>
</glyph>
<glyph name="r" format="1">
  <advance width="446"/>
  <unicode hex="0072"/>
  <outline>
    <contour>
      <point x="223" y="533" type="move" name="top"/>
    </contour>
    <contour>
      <point x="85" y="474" type="curve" smooth="yes"/>
      <point x="45" y="474"/>
      <point x="43" y="448"/>
      <point x="43" y="432" type="curve" smooth="yes"/>
      <point x="43" y="411"/>
      <point x="59" y="394"/>
      <point x="61" y="374" type="curve" smooth="yes"/>
      <point x="65" y="291"/>
      <point x="67" y="237"/>
      <point x="67" y="198" type="curve" smooth="yes"/>
      <point x="67" y="148"/>
      <point x="63" y="110"/>
      <point x="63" y="71" type="curve" smooth="yes"/>
      <point x="63" y="55"/>
      <point x="69" y="63"/>
      <point x="76" y="78" type="curve" smooth="yes"/>
      <point x="81" y="87"/>
      <point x="87" y="100"/>
      <point x="91" y="100" type="curve" smooth="yes"/>
      <point x="102" y="100"/>
      <point x="122" y="112"/>
      <point x="119" y="150" type="curve"/>
      <point x="120" y="208"/>
      <point x="129" y="263"/>
      <point x="137" y="310" type="curve" smooth="yes"/>
      <point x="142" y="342"/>
      <point x="148" y="378"/>
      <point x="148" y="403" type="curve" smooth="yes"/>
      <point x="149" y="451"/>
      <point x="136" y="474"/>
    </contour>
    <contour>
      <point x="351" y="473" type="curve" smooth="yes"/>
      <point x="127" y="473"/>
      <point x="63" y="130"/>
      <point x="63" y="78" type="curve" smooth="yes"/>
      <point x="63" y="57"/>
      <point x="55" y="39"/>
      <point x="55" y="20" type="curve" smooth="yes"/>
      <point x="55" y="3"/>
      <point x="82" y="-9"/>
      <point x="104" y="-9" type="curve" smooth="yes"/>
      <point x="126" y="-9"/>
      <point x="154" y="22"/>
      <point x="154" y="45" type="curve" smooth="yes"/>
      <point x="154" y="78"/>
      <point x="148" y="106"/>
      <point x="148" y="134" type="curve" smooth="yes"/>
      <point x="148" y="154"/>
      <point x="196" y="395"/>
      <point x="343" y="395" type="curve" smooth="yes"/>
      <point x="374" y="395"/>
      <point x="382" y="356"/>
      <point x="411" y="356" type="curve" smooth="yes"/>
      <point x="423" y="356"/>
      <point x="456" y="385"/>
      <point x="456" y="422" type="curve" smooth="yes"/>
      <point x="456" y="437"/>
      <point x="423" y="473"/>
    </contour>
  </outline>
</glyph>
<glyph name="s" format="1">
  <advance width="453"/>
  <unicode hex="0073"/>
  <outline>
    <contour>
      <point x="289" y="485" type="curve" smooth="yes"/>
      <point x="278" y="485"/>
      <point x="257" y="478"/>
      <point x="240" y="478" type="curve" smooth="yes"/>
      <point x="114" y="478"/>
      <point x="44" y="397"/>
      <point x="44" y="329" type="curve" smooth="yes"/>
      <point x="44" y="249"/>
      <point x="92" y="219"/>
      <point x="165" y="213" type="curve" smooth="yes"/>
      <point x="238" y="207"/>
      <point x="349" y="200"/>
      <point x="349" y="115" type="curve" smooth="yes"/>
      <point x="349" y="81"/>
      <point x="300" y="46"/>
      <point x="245" y="46" type="curve" smooth="yes"/>
      <point x="135" y="46"/>
      <point x="120" y="99"/>
      <point x="66" y="99" type="curve" smooth="yes"/>
      <point x="55" y="99"/>
      <point x="28" y="79"/>
      <point x="28" y="57" type="curve" smooth="yes"/>
      <point x="28" y="34"/>
      <point x="46" y="9"/>
      <point x="71" y="9" type="curve" smooth="yes"/>
      <point x="124" y="9"/>
      <point x="136" y="-13"/>
      <point x="217" y="-13" type="curve" smooth="yes"/>
      <point x="362" y="-13"/>
      <point x="425" y="52"/>
      <point x="425" y="133" type="curve" smooth="yes"/>
      <point x="425" y="253"/>
      <point x="283" y="273"/>
      <point x="183" y="277" type="curve" smooth="yes"/>
      <point x="137" y="279"/>
      <point x="124" y="292"/>
      <point x="124" y="328" type="curve" smooth="yes"/>
      <point x="124" y="364"/>
      <point x="159" y="416"/>
      <point x="214" y="416" type="curve" smooth="yes"/>
      <point x="296" y="416"/>
      <point x="281" y="368"/>
      <point x="321" y="368" type="curve" smooth="yes"/>
      <point x="340" y="368"/>
      <point x="371" y="389"/>
      <point x="371" y="405" type="curve" smooth="yes"/>
      <point x="371" y="442"/>
      <point x="318" y="485"/>
    </contour>
  </outline>
</glyph>
<glyph name="t" format="1">
  <advance width="365"/>
  <unicode hex="0074"/>
  <outline>
    <contour>
      <point x="153" y="645" type="curve" smooth="yes"/>
      <point x="141" y="645"/>
      <point x="110" y="608"/>
      <point x="110" y="584" type="curve" smooth="yes"/>
      <point x="110" y="568"/>
      <point x="118" y="554"/>
      <point x="125" y="543" type="curve"/>
      <point x="125" y="465"/>
      <point x="117" y="387"/>
      <point x="109" y="312" type="curve" smooth="yes"/>
      <point x="101" y="238"/>
      <point x="93" y="165"/>
      <point x="93" y="94" type="curve" smooth="yes"/>
      <point x="93" y="22"/>
      <point x="152" y="-11"/>
      <point x="180" y="-11" type="curve" smooth="yes"/>
      <point x="206" y="-11"/>
      <point x="226" y="-6"/>
      <point x="246" y="-1" type="curve" smooth="yes"/>
      <point x="265" y="4"/>
      <point x="283" y="8"/>
      <point x="305" y="8" type="curve" smooth="yes"/>
      <point x="318" y="8"/>
      <point x="336" y="31"/>
      <point x="336" y="46" type="curve" smooth="yes"/>
      <point x="336" y="60"/>
      <point x="314" y="93"/>
      <point x="296" y="93" type="curve" smooth="yes"/>
      <point x="276" y="93"/>
      <point x="259" y="86"/>
      <point x="244" y="80" type="curve" smooth="yes"/>
      <point x="230" y="74"/>
      <point x="211" y="67"/>
      <point x="195" y="67" type="curve" smooth="yes"/>
      <point x="192" y="67"/>
      <point x="178" y="103"/>
      <point x="178" y="112" type="curve" smooth="yes"/>
      <point x="178" y="191"/>
      <point x="192" y="346"/>
      <point x="205" y="444" type="curve" smooth="yes"/>
      <point x="208" y="463"/>
      <point x="212" y="485"/>
      <point x="215" y="506" type="curve" smooth="yes"/>
      <point x="221" y="543"/>
      <point x="226" y="579"/>
      <point x="226" y="588" type="curve" smooth="yes"/>
      <point x="226" y="630"/>
      <point x="191" y="645"/>
    </contour>
    <contour>
      <point x="36" y="467" type="curve" smooth="yes"/>
      <point x="20" y="467"/>
      <point x="0" y="447"/>
      <point x="0" y="423" type="curve" smooth="yes"/>
      <point x="0" y="379"/>
      <point x="28" y="379"/>
      <point x="44" y="379" type="curve" smooth="yes"/>
      <point x="60" y="379"/>
      <point x="87" y="382"/>
      <point x="93" y="386" type="curve"/>
      <point x="121" y="396"/>
      <point x="149" y="390"/>
      <point x="175" y="390" type="curve" smooth="yes"/>
      <point x="201" y="390"/>
      <point x="223" y="391"/>
      <point x="244" y="391" type="curve"/>
      <point x="305" y="391" type="line"/>
      <point x="332" y="391"/>
      <point x="355" y="419"/>
      <point x="355" y="436" type="curve" smooth="yes"/>
      <point x="355" y="458"/>
      <point x="334" y="473"/>
      <point x="308" y="473" type="curve" smooth="yes"/>
      <point x="283" y="473"/>
      <point x="262" y="464"/>
      <point x="240" y="464" type="curve"/>
      <point x="94" y="464" type="line"/>
      <point x="69" y="464"/>
      <point x="52" y="467"/>
    </contour>
  </outline>
</glyph>
<glyph name="u" format="1">
  <advance width="531"/>
  <unicode hex="0075"/>
  <outline>
    <contour>
      <point x="278" y="536" type="move" name="top"/>
    </contour>
    <contour>
      <point x="127" y="477" type="curve" smooth="yes"/>
      <point x="93" y="477"/>
      <point x="63" y="447"/>
      <point x="63" y="422" type="curve" smooth="yes"/>
      <point x="63" y="404"/>
      <point x="68" y="389"/>
      <point x="68" y="374" type="curve" smooth="yes"/>
      <point x="68" y="369"/>
      <point x="66" y="353"/>
      <point x="63" y="332" type="curve" smooth="yes"/>
      <point x="58" y="289"/>
      <point x="50" y="223"/>
      <point x="50" y="181" type="curve" smooth="yes"/>
      <point x="50" y="44"/>
      <point x="127" y="-12"/>
      <point x="202" y="-12" type="curve" smooth="yes"/>
      <point x="282" y="-12"/>
      <point x="346" y="33"/>
      <point x="380" y="64" type="curve"/>
      <point x="379" y="1"/>
      <point x="379" y="-12"/>
      <point x="414" y="-12" type="curve" smooth="yes"/>
      <point x="451" y="-12"/>
      <point x="480" y="15"/>
      <point x="480" y="32" type="curve" smooth="yes"/>
      <point x="480" y="68"/>
      <point x="460" y="98"/>
      <point x="460" y="132" type="curve" smooth="yes"/>
      <point x="460" y="173"/>
      <point x="467" y="338"/>
      <point x="471" y="372" type="curve" smooth="yes"/>
      <point x="473" y="391"/>
      <point x="482" y="415"/>
      <point x="482" y="434" type="curve" smooth="yes"/>
      <point x="482" y="450"/>
      <point x="470" y="476"/>
      <point x="446" y="476" type="curve" smooth="yes"/>
      <point x="422" y="476"/>
      <point x="375" y="447"/>
      <point x="375" y="424" type="curve" smooth="yes"/>
      <point x="375" y="418"/>
      <point x="376" y="408"/>
      <point x="377" y="394" type="curve" smooth="yes"/>
      <point x="379" y="366"/>
      <point x="382" y="324"/>
      <point x="382" y="273" type="curve" smooth="yes"/>
      <point x="382" y="237"/>
      <point x="380" y="197"/>
      <point x="376" y="155" type="curve"/>
      <point x="346" y="111"/>
      <point x="279" y="61"/>
      <point x="208" y="61" type="curve" smooth="yes"/>
      <point x="181" y="61"/>
      <point x="131" y="98"/>
      <point x="131" y="163" type="curve" smooth="yes"/>
      <point x="131" y="233"/>
      <point x="143" y="282"/>
      <point x="154" y="327" type="curve" smooth="yes"/>
      <point x="163" y="362"/>
      <point x="172" y="397"/>
      <point x="173" y="439" type="curve" smooth="yes"/>
      <point x="173" y="451"/>
      <point x="171" y="477"/>
    </contour>
  </outline>
</glyph>
<glyph name="v" format="1">
  <advance width="430"/>
  <unicode hex="0076"/>
  <outline>
    <contour>
      <point x="60" y="475" type="curve" smooth="yes"/>
      <point x="38" y="475"/>
      <point x="15" y="435"/>
      <point x="15" y="423" type="curve" smooth="yes"/>
      <point x="15" y="394"/>
      <point x="32" y="389"/>
      <point x="52" y="338" type="curve"/>
      <point x="81" y="295"/>
      <point x="163" y="21"/>
      <point x="165" y="7" type="curve" smooth="yes"/>
      <point x="169" y="-13"/>
      <point x="194" y="-14"/>
      <point x="205" y="-14" type="curve" smooth="yes"/>
      <point x="220" y="-14"/>
      <point x="247" y="-9"/>
      <point x="260" y="32" type="curve"/>
      <point x="267" y="59"/>
      <point x="329" y="200"/>
      <point x="342" y="230" type="curve" smooth="yes"/>
      <point x="386" y="336"/>
      <point x="431" y="402"/>
      <point x="431" y="429" type="curve" smooth="yes"/>
      <point x="431" y="459"/>
      <point x="385" y="475"/>
      <point x="366" y="475" type="curve" smooth="yes"/>
      <point x="348" y="475"/>
      <point x="336" y="440"/>
      <point x="326" y="409" type="curve"/>
      <point x="319" y="382"/>
      <point x="242" y="154"/>
      <point x="211" y="105" type="curve"/>
      <point x="195" y="175"/>
      <point x="136" y="339"/>
      <point x="129" y="362" type="curve" smooth="yes"/>
      <point x="123" y="382"/>
      <point x="111" y="439"/>
      <point x="108" y="453" type="curve"/>
      <point x="103" y="466"/>
      <point x="104" y="475"/>
    </contour>
  </outline>
</glyph>
<glyph name="w" format="1">
  <advance width="659"/>
  <unicode hex="0077"/>
  <outline>
    <contour>
      <point x="327" y="498" type="move" name="top"/>
    </contour>
    <contour>
      <point x="97" y="477" type="curve" smooth="yes"/>
      <point x="79" y="477"/>
      <point x="39" y="446"/>
      <point x="39" y="424" type="curve" smooth="yes"/>
      <point x="39" y="402"/>
      <point x="62" y="378"/>
      <point x="66" y="358" type="curve" smooth="yes"/>
      <point x="70" y="339"/>
      <point x="73" y="291"/>
      <point x="73" y="206" type="curve" smooth="yes"/>
      <point x="73" y="147"/>
      <point x="71" y="99"/>
      <point x="71" y="53" type="curve" smooth="yes"/>
      <point x="71" y="32"/>
      <point x="82" y="-14"/>
      <point x="121" y="-14" type="curve" smooth="yes"/>
      <point x="160" y="-14"/>
      <point x="186" y="28"/>
      <point x="193" y="49" type="curve" smooth="yes"/>
      <point x="201" y="74"/>
      <point x="275" y="244"/>
      <point x="287" y="244" type="curve" smooth="yes"/>
      <point x="288" y="244"/>
      <point x="292" y="229"/>
      <point x="298" y="206" type="curve" smooth="yes"/>
      <point x="316" y="138"/>
      <point x="352" y="9"/>
      <point x="437" y="9" type="curve" smooth="yes"/>
      <point x="546" y="9"/>
      <point x="598" y="207"/>
      <point x="604" y="267" type="curve" smooth="yes"/>
      <point x="607" y="298"/>
      <point x="607" y="331"/>
      <point x="607" y="339" type="curve" smooth="yes"/>
      <point x="607" y="350"/>
      <point x="626" y="358"/>
      <point x="626" y="371" type="curve" smooth="yes"/>
      <point x="626" y="405"/>
      <point x="598" y="487"/>
      <point x="555" y="487" type="curve" smooth="yes"/>
      <point x="532" y="487"/>
      <point x="516" y="462"/>
      <point x="516" y="445" type="curve" smooth="yes"/>
      <point x="516" y="408"/>
      <point x="524" y="369"/>
      <point x="524" y="298" type="curve" smooth="yes"/>
      <point x="524" y="219"/>
      <point x="492" y="104"/>
      <point x="445" y="104" type="curve" smooth="yes"/>
      <point x="404" y="104"/>
      <point x="388" y="167"/>
      <point x="373" y="228" type="curve" smooth="yes"/>
      <point x="358" y="290"/>
      <point x="344" y="350"/>
      <point x="301" y="350" type="curve" smooth="yes"/>
      <point x="249" y="350"/>
      <point x="210" y="263"/>
      <point x="182" y="199" type="curve" smooth="yes"/>
      <point x="174" y="182"/>
      <point x="169" y="169"/>
      <point x="161" y="154" type="curve"/>
      <point x="154" y="181"/>
      <point x="155" y="234"/>
      <point x="155" y="265" type="curve" smooth="yes"/>
      <point x="155" y="326"/>
      <point x="155" y="393"/>
      <point x="144" y="421" type="curve" smooth="yes"/>
      <point x="134" y="445"/>
      <point x="119" y="477"/>
    </contour>
  </outline>
</glyph>
<glyph name="x" format="1">
  <advance width="482"/>
  <unicode hex="0078"/>
  <outline>
    <contour>
      <point x="73" y="479" type="curve" smooth="yes"/>
      <point x="45" y="479"/>
      <point x="28" y="447"/>
      <point x="28" y="428" type="curve" smooth="yes"/>
      <point x="28" y="409"/>
      <point x="36" y="384"/>
      <point x="54" y="376" type="curve" smooth="yes"/>
      <point x="134" y="337"/>
      <point x="225" y="195"/>
      <point x="285" y="124" type="curve" smooth="yes"/>
      <point x="298" y="107"/>
      <point x="349" y="48"/>
      <point x="352" y="39" type="curve" smooth="yes"/>
      <point x="357" y="24"/>
      <point x="375" y="-12"/>
      <point x="412" y="-12" type="curve" smooth="yes"/>
      <point x="434" y="-12"/>
      <point x="457" y="9"/>
      <point x="457" y="18" type="curve" smooth="yes"/>
      <point x="457" y="28"/>
      <point x="453" y="69"/>
      <point x="430" y="80" type="curve" smooth="yes"/>
      <point x="419" y="85"/>
      <point x="373" y="143"/>
      <point x="330" y="195" type="curve" smooth="yes"/>
      <point x="308" y="222"/>
      <point x="289" y="247"/>
      <point x="271" y="267" type="curve" smooth="yes"/>
      <point x="223" y="320"/>
      <point x="149" y="414"/>
      <point x="140" y="425" type="curve" smooth="yes"/>
      <point x="123" y="449"/>
      <point x="99" y="479"/>
    </contour>
    <contour>
      <point x="359" y="489" type="curve" smooth="yes"/>
      <point x="334" y="489"/>
      <point x="301" y="463"/>
      <point x="286" y="431" type="curve" smooth="yes"/>
      <point x="274" y="405"/>
      <point x="204" y="284"/>
      <point x="172" y="230" type="curve" smooth="yes"/>
      <point x="148" y="189"/>
      <point x="123" y="151"/>
      <point x="93" y="117" type="curve" smooth="yes"/>
      <point x="68" y="89"/>
      <point x="37" y="59"/>
      <point x="37" y="46" type="curve" smooth="yes"/>
      <point x="37" y="13"/>
      <point x="66" y="-10"/>
      <point x="90" y="-10" type="curve" smooth="yes"/>
      <point x="112" y="-10"/>
      <point x="143" y="23"/>
      <point x="150" y="46" type="curve" smooth="yes"/>
      <point x="154" y="61"/>
      <point x="250" y="223"/>
      <point x="297" y="298" type="curve" smooth="yes"/>
      <point x="310" y="320"/>
      <point x="336" y="365"/>
      <point x="357" y="385" type="curve" smooth="yes"/>
      <point x="375" y="402"/>
      <point x="403" y="421"/>
      <point x="403" y="431" type="curve" smooth="yes"/>
      <point x="403" y="443"/>
      <point x="398" y="489"/>
    </contour>
  </outline>
</glyph>
<glyph name="y" format="1">
  <advance width="493"/>
  <unicode hex="0079"/>
  <outline>
    <contour>
      <point x="416" y="470" type="curve"/>
      <point x="372" y="468"/>
      <point x="352" y="442"/>
      <point x="352" y="409" type="curve" smooth="yes"/>
      <point x="352" y="395"/>
      <point x="360" y="379"/>
      <point x="360" y="365" type="curve" smooth="yes"/>
      <point x="360" y="306"/>
      <point x="350" y="147"/>
      <point x="339" y="44" type="curve" smooth="yes"/>
      <point x="327" y="-65"/>
      <point x="329" y="-290"/>
      <point x="238" y="-290" type="curve" smooth="yes"/>
      <point x="159" y="-290"/>
      <point x="107" y="-271"/>
      <point x="107" y="-249" type="curve" smooth="yes"/>
      <point x="107" y="-234"/>
      <point x="117" y="-225"/>
      <point x="117" y="-214" type="curve" smooth="yes"/>
      <point x="117" y="-202"/>
      <point x="105" y="-186"/>
      <point x="82" y="-186" type="curve" smooth="yes"/>
      <point x="59" y="-186"/>
      <point x="24" y="-207"/>
      <point x="24" y="-247" type="curve" smooth="yes"/>
      <point x="24" y="-304"/>
      <point x="83" y="-363"/>
      <point x="240" y="-363" type="curve" smooth="yes"/>
      <point x="356" y="-363"/>
      <point x="379" y="-276"/>
      <point x="392" y="-197" type="curve" smooth="yes"/>
      <point x="399" y="-155"/>
      <point x="421" y="67"/>
      <point x="427" y="143" type="curve" smooth="yes"/>
      <point x="444" y="351"/>
      <point x="460" y="404"/>
      <point x="460" y="422" type="curve" smooth="yes"/>
      <point x="460" y="440"/>
      <point x="449" y="470"/>
    </contour>
    <contour>
      <point x="118" y="477" type="curve" smooth="yes"/>
      <point x="110" y="477"/>
      <point x="81" y="442"/>
      <point x="80" y="383" type="curve" smooth="yes"/>
      <point x="79" y="322"/>
      <point x="50" y="282"/>
      <point x="50" y="143" type="curve" smooth="yes"/>
      <point x="50" y="36"/>
      <point x="121" y="-10"/>
      <point x="195" y="-10" type="curve" smooth="yes"/>
      <point x="340" y="-10"/>
      <point x="417" y="97"/>
      <point x="417" y="120" type="curve" smooth="yes"/>
      <point x="417" y="136"/>
      <point x="398" y="153"/>
      <point x="379" y="145" type="curve" smooth="yes"/>
      <point x="352" y="134"/>
      <point x="314" y="61"/>
      <point x="207" y="61" type="curve" smooth="yes"/>
      <point x="171" y="61"/>
      <point x="127" y="105"/>
      <point x="127" y="165" type="curve" smooth="yes"/>
      <point x="127" y="222"/>
      <point x="151" y="323"/>
      <point x="167" y="363" type="curve"/>
      <point x="183" y="379"/>
      <point x="192" y="409"/>
      <point x="192" y="422" type="curve" smooth="yes"/>
      <point x="192" y="436"/>
      <point x="180" y="477"/>
    </contour>
  </outline>
</glyph>
